<?xml version="1.0" encoding="utf-8"?>
<!-- Generator: Adobe Illustrator 21.0.2, SVG Export Plug-In . SVG Version: 6.00 Build 0)  -->
<svg version="1.1" id="Layer_1" xmlns="http://www.w3.org/2000/svg" xmlns:xlink="http://www.w3.org/1999/xlink" x="0px" y="0px"
	 viewBox="0 0 34.1 29.7" style="enable-background:new 0 0 34.1 29.7;" xml:space="preserve">
<style type="text/css">
	.st0{fill:#223570;}
	.st1{fill:#16224D;}
	.st2{fill:#DF3D7B;}
	.st3{fill:#F9B25F;}
	.st4{fill:#42E0BE;}
	.st5{fill:#FFFFFF;}
</style>
<title>b3</title>
<path class="st0" d="M1,0h24.9c0.6,0,1,0.4,1,1v21.6c0,0.6-0.4,1-1,1H1c-0.6,0-1-0.4-1-1V1C0,0.5,0.5,0,1,0z"/>
<path class="st1" d="M1,0h24.9c0.6,0,1,0.4,1,1v3.2l0,0H0l0,0V1C0,0.4,0.4,0,1,0z"/>
<circle class="st2" cx="18.3" cy="2.1" r="0.7"/>
<circle class="st3" cx="21.5" cy="2.1" r="0.7"/>
<circle class="st4" cx="24.6" cy="2.1" r="0.7"/>
<path class="st5" d="M2.9,12.8l0.4-0.2C3.4,12.8,3.7,13,4,13c0.4,0,0.5-0.2,0.5-0.4s-0.2-0.3-0.6-0.5S3,11.9,3,11.4
	c0-0.5,0.4-0.8,0.8-0.8c0,0,0,0,0.1,0c0.4,0,0.8,0.2,1,0.6l-0.4,0.2C4.4,11.1,4.2,11,3.9,11c-0.3,0-0.4,0.1-0.4,0.4s0.2,0.3,0.6,0.4
	s0.9,0.3,0.9,0.9s-0.4,0.8-1,0.8C3.5,13.5,3,13.2,2.9,12.8z"/>
<path class="st5" d="M5.4,12.4c0-0.6,0.4-1,0.9-1.1c0,0,0.1,0,0.1,0c0.4,0,0.7,0.2,0.9,0.5l-0.4,0.2c-0.1-0.2-0.3-0.3-0.5-0.3
	c-0.3,0-0.6,0.4-0.5,0.7c0,0.3,0.3,0.5,0.5,0.5c0.2,0,0.5-0.1,0.6-0.3l0.4,0.2c-0.2,0.3-0.5,0.5-0.9,0.5c-0.5,0.1-1-0.3-1.1-0.9
	C5.4,12.5,5.4,12.5,5.4,12.4z"/>
<path class="st5" d="M9.6,12.2v1.2H9.1v-1.2c0-0.2-0.1-0.4-0.4-0.5c0,0,0,0-0.1,0c-0.3,0-0.5,0.2-0.5,0.6v1.1H7.7v-2.8h0.4v1.1
	c0.1-0.2,0.4-0.3,0.6-0.3C9.2,11.3,9.6,11.7,9.6,12.2C9.6,12.1,9.6,12.1,9.6,12.2z"/>
<path class="st5" d="M11.1,13.1c0.2,0,0.4-0.1,0.5-0.3L12,13c-0.2,0.3-0.5,0.5-0.9,0.4c-0.6,0-1.1-0.5-1.1-1c0-0.6,0.5-1.1,1-1.1
	c0,0,0,0,0,0c0.6,0,1,0.4,1,1c0,0,0,0,0,0.1c0,0.1,0,0.1,0,0.2h-1.7C10.5,12.9,10.8,13.1,11.1,13.1z M11.6,12.2
	c0-0.3-0.3-0.5-0.6-0.5c-0.3,0-0.6,0.2-0.6,0.5H11.6z"/>
<path class="st5" d="M15.5,12.2v1.2h-0.4v-1.2c0-0.3-0.1-0.4-0.4-0.4s-0.4,0.2-0.4,0.5v1.1h-0.4v-1.2c0-0.3-0.1-0.4-0.4-0.4
	S13,11.9,13,12.3v1.1h-0.4v-2H13v0.2c0.1-0.2,0.3-0.3,0.6-0.3c0.2,0,0.5,0.1,0.6,0.3c0.1-0.2,0.4-0.3,0.6-0.3
	C15.2,11.3,15.5,11.7,15.5,12.2C15.5,12.1,15.5,12.1,15.5,12.2z"/>
<path class="st5" d="M18.1,11.4v2h-0.4v-0.3c-0.2,0.2-0.4,0.4-0.7,0.3c-0.6,0-1-0.5-1-1.1c0-0.6,0.5-1,1-1c0.3,0,0.5,0.1,0.7,0.3
	v-0.3H18.1z M17.6,12.4c0-0.3-0.3-0.6-0.6-0.7c-0.3,0-0.6,0.3-0.7,0.6c0,0.3,0.3,0.6,0.6,0.7c0,0,0,0,0,0
	C17.3,13,17.6,12.7,17.6,12.4C17.6,12.4,17.6,12.4,17.6,12.4z"/>
<circle class="st3" cx="26.9" cy="22.5" r="7.2"/>
<g id="c25_diagram">
	<path class="st5" d="M30,22.8l-2.3-1.4H29v-3.8h-3.8v3.8h1.4l-2.1,1.4h-1.5v3.8h3.8v-3.8h-1.4l1.9-1.2l2.2,1.2h-1.5v3.8h3.8v-3.8
		H30z M25.9,18.4h2.4v2.4h-2.3L25.9,18.4z M25.9,23.6v2.3h-2.3v-2.3H25.9z M30.8,25.9h-2.4v-2.3h2.4V25.9z"/>
</g>
</svg>
