<svg xmlns="http://www.w3.org/2000/svg" viewBox="0 0 34.12 29.74"><defs><style>.cls-1{fill:#223570;}.cls-2{fill:#16224d;}.cls-3{fill:#df3d7b;}.cls-4{fill:#f9b25f;}.cls-5{fill:#42e0be;}.cls-6{fill:#fff;}.cls-7,.cls-8{fill:none;stroke:#fff;}.cls-7{stroke-miterlimit:10;stroke-width:0.6px;}.cls-8{stroke-linecap:round;stroke-linejoin:round;stroke-width:0.3px;stroke-dasharray:4 10;}</style></defs><title>b4</title><g id="Layer_2" data-name="Layer 2"><g id="Layer_1-2" data-name="Layer 1"><rect class="cls-1" x="0.01" y="0.01" width="26.92" height="23.56" rx="1" ry="1"/><path class="cls-2" d="M1,0H25.92a1,1,0,0,1,1,1V4.21a0,0,0,0,1,0,0H0a0,0,0,0,1,0,0V1A1,1,0,0,1,1,0Z"/><circle class="cls-3" cx="18.33" cy="2.11" r="0.66"/><circle class="cls-4" cx="21.45" cy="2.11" r="0.66"/><circle class="cls-5" cx="24.58" cy="2.1" r="0.66"/><path class="cls-6" d="M5.16,10.59H4.37v2.36H3.91V10.59H3.12v-.44h2Z"/><path class="cls-6" d="M6.19,12.6a.61.61,0,0,0,.52-.25l.36.21a1,1,0,0,1-.87.44,1.05,1.05,0,1,1,0-2.1,1,1,0,0,1,1,1.06,1.33,1.33,0,0,1,0,.18H5.55A.6.6,0,0,0,6.19,12.6Zm.53-.82a.56.56,0,0,0-.57-.49.58.58,0,0,0-.6.49Z"/><path class="cls-6" d="M9,12.38c0,.4-.35.62-.78.62a.83.83,0,0,1-.82-.47l.37-.22a.44.44,0,0,0,.44.29c.19,0,.34-.06.34-.22,0-.36-1.08-.16-1.08-.87a.65.65,0,0,1,.73-.61.8.8,0,0,1,.74.42l-.36.2a.39.39,0,0,0-.38-.23c-.16,0-.29.07-.29.21C7.94,11.86,9,11.64,9,12.38Z"/><path class="cls-6" d="M10,11.36v1c0,.26.17.25.5.24v.39c-.66.08-.93-.1-.93-.62v-1H9.24v-.42h.37v-.43l.43-.13v.56h.5v.42Z"/><path class="cls-6" d="M14.62,11.55a1.35,1.35,0,0,1-1.34,1.4h-1.1v-2.8h1.1A1.34,1.34,0,0,1,14.62,11.55Zm-.44,0a.89.89,0,0,0-.9-1h-.64v1.92h.64A.89.89,0,0,0,14.17,11.55Z"/><path class="cls-6" d="M16.16,10.91v.47a.53.53,0,0,0-.62.56v1h-.43v-2h.43v.34A.63.63,0,0,1,16.16,10.91Z"/><path class="cls-6" d="M16.52,10.37a.28.28,0,1,1,.28.28A.28.28,0,0,1,16.52,10.37Zm.06.58H17v2h-.43Z"/><path class="cls-6" d="M19.44,10.95l-.78,2h-.5l-.78-2h.47l.56,1.52L19,10.95Z"/><path class="cls-6" d="M20.71,12.6a.61.61,0,0,0,.52-.25l.36.21a1,1,0,0,1-.87.44,1.05,1.05,0,1,1,0-2.1,1,1,0,0,1,1,1.06,1.33,1.33,0,0,1,0,.18H20.07A.6.6,0,0,0,20.71,12.6Zm.53-.82a.56.56,0,0,0-.57-.49.58.58,0,0,0-.6.49Z"/><path class="cls-6" d="M24,11.72v1.23h-.43V11.76a.42.42,0,0,0-.45-.46c-.28,0-.51.17-.51.58v1.07h-.43v-2h.43v.26a.69.69,0,0,1,.62-.31A.75.75,0,0,1,24,11.72Z"/><circle class="cls-3" cx="26.93" cy="22.55" r="7.19"/><circle class="cls-7" cx="26.93" cy="19.62" r="1.33"/><circle class="cls-7" cx="30.07" cy="24.36" r="1.33"/><circle class="cls-7" cx="23.79" cy="24.36" r="1.33"/><line class="cls-8" x1="25.74" y1="21.38" x2="25.12" y2="22.55"/><line class="cls-8" x1="28.44" y1="21.38" x2="29.05" y2="22.55"/><line class="cls-8" x1="25.91" y1="24.57" x2="27.88" y2="24.57"/></g></g></svg>