<svg xmlns="http://www.w3.org/2000/svg" viewBox="0 0 33.88 29.32"><defs><style>.cls-1{fill:#223570;}.cls-2{fill:#16224d;}.cls-3{fill:#df3d7b;}.cls-4{fill:#f9b25f;}.cls-5{fill:#42e0be;}.cls-6,.cls-7,.cls-9{fill:#fff;}.cls-7{opacity:0.33;}.cls-8{fill:#f35045;}.cls-9{stroke:#fff;stroke-miterlimit:10;stroke-width:0.3px;}</style></defs><title>b5</title><g id="Layer_2" data-name="Layer 2"><g id="Layer_1-2" data-name="Layer 1"><rect class="cls-1" x="0.01" y="0.01" width="26.92" height="23.56" rx="1" ry="1"/><path class="cls-2" d="M1,0H25.92a1,1,0,0,1,1,1V4.21a0,0,0,0,1,0,0H0a0,0,0,0,1,0,0V1A1,1,0,0,1,1,0Z"/><circle class="cls-3" cx="18.33" cy="2.11" r="0.66"/><circle class="cls-4" cx="21.45" cy="2.11" r="0.66"/><circle class="cls-5" cx="24.58" cy="2.1" r="0.66"/><path class="cls-6" d="M4.19,9.34l-1.06.42,1.06.42v.4L2.7,9.93V9.58l1.49-.65Z"/><path class="cls-6" d="M4.58,11.33,6,8.19h.19l-1.4,3.14Z"/><path class="cls-6" d="M8,10.49H7L6.83,11H6.4l.89-2.45h.48L8.65,11H8.22Zm-.13-.38L7.52,9l-.39,1.1Z"/><path class="cls-6" d="M10.72,9.34a.79.79,0,0,1-.81.8H9.4V11H9V8.54h.9A.79.79,0,0,1,10.72,9.34Zm-.4,0a.4.4,0,0,0-.41-.43H9.4v.85h.5A.4.4,0,0,0,10.31,9.34Z"/><path class="cls-6" d="M11.56,8.54V11h-.4V8.54Z"/><path class="cls-6" d="M13.55,9.58v.35l-1.49.65v-.4l1.06-.42-1.06-.42v-.4Z"/><path class="cls-7" d="M4.38,16.41H4.09V15.16L3.56,16h0L3,15.16v1.25H2.7V14.65H3l.53.88.53-.88h.31Z"/><path class="cls-7" d="M4.7,15.78a.66.66,0,1,1,.66.66A.65.65,0,0,1,4.7,15.78Zm1.05,0a.39.39,0,1,0-.39.4A.38.38,0,0,0,5.76,15.78Z"/><path class="cls-7" d="M7.66,15.78a.64.64,0,0,1-.62.66.52.52,0,0,1-.44-.21v.18H6.33V14.65H6.6v.68A.52.52,0,0,1,7,15.12.64.64,0,0,1,7.66,15.78Zm-.27,0a.4.4,0,1,0-.4.4A.39.39,0,0,0,7.39,15.78Z"/><path class="cls-7" d="M7.93,14.79a.17.17,0,0,1,.35,0,.17.17,0,0,1-.35,0Zm0,.36h.27v1.25H8Z"/><path class="cls-7" d="M8.61,14.58h.27v1.83H8.61Z"/><path class="cls-7" d="M9.87,16.19A.38.38,0,0,0,10.2,16l.22.13a.63.63,0,0,1-.55.27.66.66,0,1,1,0-1.32.63.63,0,0,1,.63.66.84.84,0,0,1,0,.11h-1A.38.38,0,0,0,9.87,16.19Zm.33-.52a.35.35,0,0,0-.36-.31.36.36,0,0,0-.38.31Z"/><path class="cls-7" d="M12.5,16.05h-.75l-.12.35h-.31L12,14.65h.34l.63,1.75h-.31Zm-.09-.27L12.13,15l-.28.79Z"/><path class="cls-7" d="M14.41,15.23a.57.57,0,0,1-.58.58h-.36v.6h-.29V14.65h.65A.57.57,0,0,1,14.41,15.23Zm-.29,0a.29.29,0,0,0-.29-.31h-.36v.61h.36A.29.29,0,0,0,14.12,15.23Z"/><path class="cls-7" d="M15,14.65v1.75h-.29V14.65Z"/><path class="cls-7" d="M2.58,18h.3l.37,1.37L3.65,18h.27l.4,1.37L4.68,18H5l-.5,1.75H4.15l-.37-1.28-.37,1.28H3.07Z"/><path class="cls-7" d="M5.71,19.5A.38.38,0,0,0,6,19.35l.22.13a.63.63,0,0,1-.55.27.66.66,0,1,1,0-1.32.63.63,0,0,1,.63.66.84.84,0,0,1,0,.11h-1A.38.38,0,0,0,5.71,19.5ZM6,19a.35.35,0,0,0-.36-.31.36.36,0,0,0-.38.31Z"/><path class="cls-7" d="M7.95,19.09a.64.64,0,0,1-.62.66.52.52,0,0,1-.44-.21v.18H6.61V18h.27v.68a.52.52,0,0,1,.44-.21A.64.64,0,0,1,7.95,19.09Zm-.27,0a.4.4,0,1,0-.4.4A.39.39,0,0,0,7.68,19.09Z"/><path class="cls-7" d="M10,19.37H9.23l-.12.35H8.79L9.43,18h.34l.63,1.75H10.1Zm-.09-.27L9.6,18.3l-.28.79Z"/><path class="cls-7" d="M11.88,18.54a.57.57,0,0,1-.58.58h-.36v.6h-.29V18h.65A.57.57,0,0,1,11.88,18.54Zm-.29,0a.29.29,0,0,0-.29-.31h-.36v.61h.36A.29.29,0,0,0,11.59,18.54Z"/><path class="cls-7" d="M12.48,18v1.75h-.29V18Z"/><circle class="cls-8" cx="26.68" cy="22.13" r="7.19"/><path class="cls-9" d="M24.57,20.9h-.7a.53.53,0,0,0-.53.53v1.76a.18.18,0,1,0,.35,0v-.53h1.06v.53a.18.18,0,1,0,.35,0V21.42A.53.53,0,0,0,24.57,20.9Zm.18,1.41H23.69v-.88a.18.18,0,0,1,.18-.18h.7a.18.18,0,0,1,.18.18Z"/><path class="cls-9" d="M26.86,20.9h-.7a.18.18,0,0,0-.18.18v2.11a.18.18,0,1,0,.35,0v-.53h.53a.88.88,0,0,0,0-1.76Zm0,1.41h-.53V21.25h.53a.53.53,0,0,1,0,1.06Z"/><path class="cls-9" d="M29.86,23h-.53V21.25h.53a.18.18,0,0,0,0-.35H28.45a.18.18,0,1,0,0,.35H29V23h-.53a.18.18,0,1,0,0,.35h1.41a.18.18,0,0,0,0-.35Z"/><path class="cls-9" d="M30.21,19.13H27.46l-.65-.65a.18.18,0,0,0-.25,0l-.65.65H23.16a.53.53,0,0,0-.53.53v.53a.18.18,0,0,0,.35,0v-.53a.18.18,0,0,1,.18-.18H26a.18.18,0,0,0,.12-.05l.58-.58.58.58a.18.18,0,0,0,.12.05h2.82a.18.18,0,0,1,.18.18v.53a.18.18,0,0,0,.35,0v-.53A.53.53,0,0,0,30.21,19.13Z"/><path class="cls-9" d="M30.56,23.89a.18.18,0,0,0-.18.18v.53a.18.18,0,0,1-.18.18H27.39a.18.18,0,0,0-.12.05l-.58.58-.58-.58a.18.18,0,0,0-.12-.05H23.16A.18.18,0,0,1,23,24.6v-.53a.18.18,0,1,0-.35,0v.53a.53.53,0,0,0,.53.53h2.75l.65.65a.18.18,0,0,0,.25,0l.65-.65h2.75a.53.53,0,0,0,.53-.53v-.53A.18.18,0,0,0,30.56,23.89Z"/></g></g></svg>