<svg xmlns="http://www.w3.org/2000/svg" viewBox="0 0 34.12 29.74"><defs><style>.cls-1{fill:#223570;}.cls-2{fill:#16224d;}.cls-3{fill:#df3d7b;}.cls-4{fill:#f9b25f;}.cls-5{fill:#fff;}.cls-6{fill:#42e0be;}.cls-7{fill:#f2f1f0;}.cls-8{fill:#3777e3;}.cls-9{fill:#ffcf63;}.cls-10{fill:#11a861;}</style></defs><title>c1</title><g id="Layer_2" data-name="Layer 2"><g id="Layer_1-2" data-name="Layer 1"><rect class="cls-1" x="0.01" y="0.01" width="26.92" height="23.56" rx="1" ry="1"/><path class="cls-2" d="M1,0H25.92a1,1,0,0,1,1,1V4.21a0,0,0,0,1,0,0H0a0,0,0,0,1,0,0V1A1,1,0,0,1,1,0Z"/><circle class="cls-3" cx="18.33" cy="2.11" r="0.66"/><circle class="cls-4" cx="21.45" cy="2.11" r="0.66"/><path class="cls-5" d="M4.5,11.43a1.12,1.12,0,0,1-1.2,1.14,1.27,1.27,0,1,1,0-2.54,1.23,1.23,0,0,1,1.07.58l-.35.2a.81.81,0,0,0-.72-.39.88.88,0,1,0,0,1.75.73.73,0,0,0,.79-.56H3.28v-.36H4.5Z"/><path class="cls-5" d="M4.84,11.65a.92.92,0,1,1,.92.92A.91.91,0,0,1,4.84,11.65Zm1.47,0a.54.54,0,1,0-.54.55A.54.54,0,0,0,6.31,11.65Z"/><path class="cls-5" d="M7,11.65a.92.92,0,1,1,.92.92A.91.91,0,0,1,7,11.65Zm1.47,0a.54.54,0,1,0-.54.55A.54.54,0,0,0,8.48,11.65Z"/><path class="cls-5" d="M11.06,10.78v1.67a.82.82,0,0,1-.9.82.87.87,0,0,1-.83-.42l.33-.19a.5.5,0,0,0,.51.27.46.46,0,0,0,.52-.48v-.21a.71.71,0,0,1-.61.3.9.9,0,0,1,0-1.8.71.71,0,0,1,.61.3v-.26Zm-.37.86a.56.56,0,1,0-.56.55A.54.54,0,0,0,10.69,11.63Z"/><path class="cls-5" d="M11.59,10H12v2.55h-.38Z"/><path class="cls-5" d="M13.35,12.22A.53.53,0,0,0,13.8,12l.31.18a.88.88,0,0,1-.77.38.92.92,0,1,1,0-1.84.88.88,0,0,1,.88.92,1.16,1.16,0,0,1,0,.16H12.79A.52.52,0,0,0,13.35,12.22Zm.46-.72a.49.49,0,0,0-.5-.43.51.51,0,0,0-.53.43Z"/><path class="cls-5" d="M17.73,11.3a1.18,1.18,0,0,1-1.17,1.22h-1V10.08h1A1.17,1.17,0,0,1,17.73,11.3Zm-.39,0a.78.78,0,0,0-.78-.84H16v1.68h.56A.78.78,0,0,0,17.35,11.3Z"/><path class="cls-5" d="M19.08,10.74v.41a.46.46,0,0,0-.54.49v.88h-.38V10.78h.38v.29A.55.55,0,0,1,19.08,10.74Z"/><path class="cls-5" d="M19.4,10.27a.24.24,0,1,1,.48,0,.24.24,0,0,1-.48,0Zm.05.5h.38v1.75h-.38Z"/><path class="cls-5" d="M22,10.78l-.68,1.75h-.44l-.68-1.75h.41l.49,1.33.49-1.33Z"/><path class="cls-5" d="M23.07,12.22a.53.53,0,0,0,.45-.22l.31.18a.88.88,0,0,1-.77.38.92.92,0,1,1,0-1.84.88.88,0,0,1,.88.92,1.16,1.16,0,0,1,0,.16H22.51A.52.52,0,0,0,23.07,12.22Zm.46-.72a.49.49,0,0,0-.5-.43.51.51,0,0,0-.53.43Z"/><circle class="cls-6" cx="24.58" cy="2.11" r="0.66"/><circle class="cls-7" cx="26.93" cy="22.55" r="7.19"/><path class="cls-8" d="M24.16,26.15l1.39-2.4h5.54l-1.39,2.4Z"/><path class="cls-9" d="M28.32,23.75h2.77L28.32,19H25.55Z"/><path class="cls-10" d="M22.78,23.75l1.39,2.4,2.77-4.8L25.55,19Z"/></g></g></svg>