<svg xmlns="http://www.w3.org/2000/svg" viewBox="0 0 34.12 29.74"><defs><style>.cls-1{fill:#223570;}.cls-2{fill:#16224d;}.cls-3{fill:#df3d7b;}.cls-4{fill:#f9b25f;}.cls-5{fill:#fff;}.cls-6{fill:#42e0be;}.cls-7{fill:#f2f1f0;}.cls-8{fill:#70cadb;}.cls-9{fill:#e01765;}.cls-10{fill:#e8a723;}.cls-11{fill:#3eb890;}.cls-12{fill:#cc2027;}.cls-13{fill:#361238;}.cls-14{fill:#65863a;}.cls-15{fill:#1a937d;}</style></defs><title>c2</title><g id="Layer_2" data-name="Layer 2"><g id="Layer_1-2" data-name="Layer 1"><rect class="cls-1" x="0.01" y="0.01" width="26.92" height="23.56" rx="1" ry="1"/><path class="cls-2" d="M1,0H25.92a1,1,0,0,1,1,1V4.21a0,0,0,0,1,0,0H0a0,0,0,0,1,0,0V1A1,1,0,0,1,1,0Z"/><circle class="cls-3" cx="18.33" cy="2.11" r="0.66"/><circle class="cls-4" cx="21.45" cy="2.11" r="0.66"/><path class="cls-5" d="M2,12l.35-.2a.59.59,0,0,0,.61.41c.32,0,.45-.14.45-.32s-.19-.29-.56-.4-.75-.25-.75-.72A.72.72,0,0,1,2.88,10a.91.91,0,0,1,.85.54l-.34.2a.53.53,0,0,0-.51-.34c-.23,0-.38.12-.38.3s.14.27.49.38.81.25.81.74-.36.72-.87.72A.93.93,0,0,1,2,12Z"/><path class="cls-5" d="M4.22,10H4.6v2.55H4.22Z"/><path class="cls-5" d="M6.88,10.78v1.75H6.5v-.25a.72.72,0,0,1-.61.3.92.92,0,0,1,0-1.84A.72.72,0,0,1,6.5,11v-.25Zm-.38.87a.55.55,0,1,0-.55.56A.54.54,0,0,0,6.5,11.65Z"/><path class="cls-5" d="M7.31,11.65a.9.9,0,0,1,.92-.92.86.86,0,0,1,.78.45l-.33.19a.49.49,0,0,0-.46-.27.55.55,0,0,0,0,1.1.51.51,0,0,0,.46-.27l.33.18a.88.88,0,0,1-.79.46A.9.9,0,0,1,7.31,11.65Z"/><path class="cls-5" d="M10.48,12.52l-.72-.81v.81H9.39V10.08h.38v1.47l.68-.77h.46l-.77.86.8.89Z"/><circle class="cls-6" cx="24.58" cy="2.11" r="0.66"/><circle class="cls-7" cx="26.93" cy="22.55" r="7.19"/><path class="cls-8" d="M23.28,22.81a.73.73,0,0,1-.71-.5v0a.76.76,0,0,1,.49-.93l6.24-2.09a.85.85,0,0,1,.23,0,.75.75,0,0,1,.73.51v0a.75.75,0,0,1-.52.89l-6.2,2.12a.81.81,0,0,1-.25,0Z"/><path class="cls-9" d="M24.32,25.88a.73.73,0,0,1-.71-.49v0a.77.77,0,0,1,.49-.94l6.24-2.11a.8.8,0,0,1,.25,0,.75.75,0,0,1,.73.51v0a.79.79,0,0,1-.1.63,1,1,0,0,1-.37.26l-6.26,2.14a.86.86,0,0,1-.26,0Z"/><path class="cls-10" d="M29.51,25.89a.77.77,0,0,1-.73-.52l-2.08-6.18v0a.77.77,0,0,1,1.46-.45l2.08,6.18v0a.77.77,0,0,1-.73,1Z"/><path class="cls-11" d="M26.41,26.93a.77.77,0,0,1-.73-.52L23.6,20.22a.77.77,0,0,1,.48-1h0a.78.78,0,0,1,.24,0,.77.77,0,0,1,.73.52l2.08,6.18a.77.77,0,0,1-.48,1h0a.77.77,0,0,1-.24,0h0Z"/><path class="cls-12" d="M28.48,24.5l1.45-.5-.47-1.41L28,23.08Z"/><path class="cls-13" d="M25.39,25.55l1.45-.5-.48-1.42-1.45.49Z"/><path class="cls-14" d="M27.45,21.43l1.45-.5-.47-1.39L27,20Z"/><path class="cls-15" d="M24.36,22.48l1.45-.5-.47-1.41-1.45.49Z"/></g></g></svg>