<?xml version="1.0" encoding="utf-8"?>
<!-- Generator: Adobe Illustrator 21.0.2, SVG Export Plug-In . SVG Version: 6.00 Build 0)  -->
<svg version="1.1" id="Layer_1" xmlns="http://www.w3.org/2000/svg" xmlns:xlink="http://www.w3.org/1999/xlink" x="0px" y="0px"
	 viewBox="0 0 30.3 28.5" style="enable-background:new 0 0 30.3 28.5;" xml:space="preserve">
<style type="text/css">
	.st0{fill:#223570;}
	.st1{fill:#16224D;}
	.st2{fill:#DF3D7B;}
	.st3{fill:#F9B25F;}
	.st4{fill:#FFFFFF;}
	.st5{fill:#42E0BE;}
	.st6{opacity:0.33;fill:#FFFFFF;enable-background:new    ;}
	.st7{fill:#F2F1F0;}
	.st8{fill:url(#SVGID_1_);}
</style>
<title>c3</title>
<path class="st0" d="M1,0H25c0.5,0,1,0.4,1,1v20.8c0,0.5-0.4,1-1,1H1c-0.5,0-1-0.4-1-1V1C0,0.4,0.4,0,1,0z"/>
<path class="st1" d="M1,0H25c0.5,0,1,0.4,1,1v3.1l0,0H0l0,0V1C0,0.4,0.4,0,1,0z"/>
<circle class="st2" cx="17.7" cy="2" r="0.6"/>
<circle class="st3" cx="20.7" cy="2" r="0.6"/>
<path class="st4" d="M3.6,7.3H2.9v2H2.5v-2H1.9V6.9h1.7V7.3z"/>
<path class="st4" d="M4.6,7.5v0.4c-0.2,0-0.5,0.1-0.5,0.4c0,0,0,0.1,0,0.1v0.8H3.7V7.6h0.4v0.3C4.2,7.7,4.4,7.5,4.6,7.5z"/>
<path class="st4" d="M5.7,9C5.9,9,6,8.9,6.1,8.8l0.3,0.2C6.3,9.2,6,9.3,5.7,9.3c-0.5,0-0.9-0.4-0.9-0.9s0.4-0.9,0.9-0.9
	c0.5,0,0.9,0.4,0.9,0.8c0,0,0,0,0,0c0,0.1,0,0.1,0,0.2H5.2C5.2,8.8,5.4,9,5.7,9z M6.2,8.3c0-0.2-0.2-0.4-0.5-0.4
	C5.4,7.8,5.2,8,5.2,8.3H6.2z"/>
<path class="st4" d="M6.9,6.8h0.4v2.5H6.9V6.8z"/>
<path class="st4" d="M7.8,6.8h0.4v2.5H7.8V6.8z"/>
<path class="st4" d="M8.6,8.4c0-0.5,0.4-0.9,0.9-0.9c0.5,0,0.9,0.4,0.9,0.9c0,0.5-0.4,0.9-0.9,0.9C9,9.3,8.6,8.9,8.6,8.4
	C8.6,8.4,8.6,8.4,8.6,8.4z M10,8.4c0-0.3-0.2-0.5-0.5-0.5C9.2,7.9,8.9,8.1,9,8.4c0,0.3,0.2,0.5,0.5,0.5C9.8,8.9,10,8.7,10,8.4
	C10,8.4,10,8.4,10,8.4z"/>
<circle class="st5" cx="23.7" cy="2" r="0.6"/>
<path class="st6" d="M3.6,13.1H3.3v-1.2l-0.5,0.8l0,0l-0.5-0.8v1.2H2v-1.7h0.3l0.5,0.8l0.5-0.8h0.3L3.6,13.1z"/>
<path class="st6" d="M5.2,11.9v1.2H4.9v-0.2c-0.1,0.1-0.3,0.2-0.4,0.2c-0.4,0-0.6-0.3-0.6-0.6c0-0.4,0.3-0.6,0.6-0.6
	c0.2,0,0.3,0.1,0.4,0.2v-0.2L5.2,11.9z M4.9,12.5c0-0.2-0.2-0.4-0.4-0.4c-0.2,0-0.4,0.2-0.4,0.4c0,0.2,0.2,0.4,0.4,0.4c0,0,0,0,0,0
	C4.8,12.9,4.9,12.7,4.9,12.5C4.9,12.5,4.9,12.5,4.9,12.5L4.9,12.5z"/>
<path class="st6" d="M6.7,12.4v0.7H6.4v-0.7c0-0.1-0.1-0.3-0.2-0.3c0,0,0,0-0.1,0c-0.2,0-0.3,0.1-0.3,0.3v0.6H5.6v-1.2h0.2V12
	c0.1-0.1,0.2-0.2,0.4-0.2C6.4,11.8,6.6,12,6.7,12.4C6.7,12.3,6.7,12.3,6.7,12.4z"/>
<path class="st6" d="M8.2,11.9v1.2H8v-0.2c-0.1,0.1-0.3,0.2-0.4,0.2c-0.4,0-0.6-0.3-0.6-0.6c0-0.4,0.3-0.6,0.6-0.6
	c0.2,0,0.3,0.1,0.4,0.2v-0.2L8.2,11.9z M8,12.5c0-0.2-0.2-0.4-0.4-0.4c-0.2,0-0.4,0.2-0.4,0.4c0,0.2,0.2,0.4,0.4,0.4c0,0,0,0,0,0
	C7.8,12.9,8,12.7,8,12.5C8,12.5,8,12.5,8,12.5L8,12.5z"/>
<path class="st6" d="M9.8,11.9V13c0,0.3-0.3,0.6-0.6,0.6c0,0,0,0-0.1,0c-0.2,0-0.5-0.1-0.6-0.3l0.2-0.1c0.1,0.1,0.2,0.2,0.4,0.2
	c0.2,0,0.3-0.1,0.4-0.3c0,0,0,0,0-0.1v-0.1c-0.1,0.1-0.3,0.2-0.4,0.2c-0.3,0-0.6-0.4-0.5-0.7c0-0.3,0.3-0.5,0.5-0.5
	c0.2,0,0.3,0.1,0.4,0.2v-0.2H9.8z M9.5,12.5c0-0.2-0.2-0.4-0.4-0.4s-0.4,0.2-0.4,0.4c0,0.2,0.2,0.4,0.4,0.4c0,0,0,0,0,0
	C9.4,12.9,9.5,12.7,9.5,12.5C9.5,12.5,9.5,12.5,9.5,12.5z"/>
<path class="st6" d="M10.8,12.9c0.1,0,0.2-0.1,0.3-0.2l0.2,0.1c-0.1,0.2-0.3,0.3-0.5,0.3c-0.4,0-0.6-0.3-0.6-0.6
	c0-0.4,0.3-0.6,0.6-0.6c0,0,0,0,0,0c0.3,0,0.6,0.3,0.6,0.6c0,0,0,0,0,0c0,0,0,0.1,0,0.1h-1C10.4,12.8,10.6,12.9,10.8,12.9z
	 M11.1,12.4c0-0.2-0.2-0.3-0.3-0.3c-0.2,0-0.3,0.1-0.4,0.3H11.1z"/>
<path class="st6" d="M13.4,12.3v0.8h-0.3v-0.7c0-0.2-0.1-0.3-0.2-0.3s-0.3,0.1-0.3,0.3v0.7h-0.3v-0.7c0-0.2-0.1-0.3-0.2-0.3
	s-0.3,0.1-0.3,0.3v0.7h-0.3v-1.2h0.3V12c0.1-0.1,0.2-0.2,0.3-0.2c0.1,0,0.3,0.1,0.3,0.2c0.1-0.1,0.2-0.2,0.4-0.2
	C13.2,11.8,13.4,12,13.4,12.3C13.4,12.3,13.4,12.3,13.4,12.3z"/>
<path class="st6" d="M14.3,12.9c0.1,0,0.2-0.1,0.3-0.2l0.2,0.1c-0.1,0.2-0.3,0.3-0.5,0.3c-0.4,0-0.6-0.3-0.6-0.6
	c0-0.4,0.3-0.6,0.6-0.6c0,0,0,0,0,0c0.3,0,0.6,0.3,0.6,0.6c0,0,0,0,0,0c0,0,0,0.1,0,0.1h-1C14,12.8,14.1,12.9,14.3,12.9z M14.6,12.4
	c0-0.2-0.2-0.3-0.3-0.3c-0.2,0-0.3,0.1-0.4,0.3H14.6z"/>
<path class="st6" d="M15.4,11.7v0.7h-0.2v-0.7c0-0.1-0.1-0.2-0.2-0.3c0,0,0,0,0,0c-0.2,0-0.3,0.1-0.3,0.3v0.6h-0.2v-1.1h0.2v0.1
	c0.1-0.1,0.2-0.2,0.4-0.2C15.2,11.2,15.4,11.4,15.4,11.7C15.4,11.6,15.4,11.7,15.4,11.7z"/>
<path class="st6" d="M16.1,11.5V12c0,0.1,0.1,0.1,0.3,0.1v0.2c-0.4,0-0.5-0.1-0.5-0.4v-0.5h-0.2v-0.2h0.2v-0.3l0.2-0.1v0.3h0.3v0.2
	L16.1,11.5z"/>
<path class="st6" d="M1.9,16.4c0-0.4,0.3-0.6,0.6-0.6s0.6,0.3,0.6,0.6c0,0.4-0.3,0.6-0.6,0.6c0,0,0,0,0,0C2.2,17,1.9,16.7,1.9,16.4
	C1.9,16.4,1.9,16.4,1.9,16.4z M2.9,16.4c0-0.2-0.2-0.4-0.4-0.4c-0.2,0-0.4,0.2-0.4,0.4c0,0.2,0.2,0.4,0.4,0.4
	C2.8,16.7,2.9,16.6,2.9,16.4L2.9,16.4z"/>
<path class="st6" d="M3.8,15.7L3.8,15.7h0.3V16H3.8v1H3.5v-1H3.3v-0.3h0.2l0,0c0-0.2,0.2-0.5,0.4-0.5c0,0,0.1,0,0.1,0v0.2
	C3.9,15.4,3.8,15.5,3.8,15.7z"/>
<path class="st6" d="M6.1,15.8c0,0.3-0.2,0.6-0.5,0.6c0,0,0,0,0,0H5.2V17H5v-1.7h0.6C5.9,15.3,6.1,15.5,6.1,15.8z M5.9,15.8
	c0-0.2-0.1-0.3-0.3-0.3c0,0,0,0,0,0H5.2v0.6h0.3C5.7,16.1,5.9,16,5.9,15.8C5.9,15.8,5.9,15.8,5.9,15.8z"/>
<path class="st6" d="M7,15.7V16c-0.2,0-0.3,0.1-0.4,0.3c0,0,0,0.1,0,0.1V17H6.4v-1.2h0.3V16C6.7,15.8,6.9,15.7,7,15.7z"/>
<path class="st6" d="M7.2,16.4c0-0.4,0.3-0.6,0.6-0.6s0.6,0.3,0.6,0.6c0,0.4-0.3,0.6-0.6,0.6l0,0C7.4,17,7.2,16.7,7.2,16.4
	C7.2,16.4,7.2,16.4,7.2,16.4z M8.2,16.4C8.2,16.1,8,16,7.8,16c-0.2,0-0.4,0.2-0.4,0.4c0,0.2,0.2,0.4,0.4,0.4
	C8,16.7,8.2,16.6,8.2,16.4C8.2,16.4,8.2,16.4,8.2,16.4z"/>
<path class="st6" d="M8.7,15.8h0.3V17c0,0.3-0.2,0.5-0.5,0.5v-0.3c0.2,0,0.2,0,0.2-0.2V15.8z M8.7,15.4c0-0.1,0.1-0.2,0.2-0.2
	c0.1,0,0.2,0.1,0.2,0.2c0,0.1-0.1,0.2-0.2,0.2C8.8,15.6,8.7,15.5,8.7,15.4L8.7,15.4z"/>
<path class="st6" d="M10,16.8c0.1,0,0.2-0.1,0.3-0.2l0.2,0.1c-0.1,0.2-0.3,0.3-0.5,0.3c-0.4,0-0.6-0.3-0.6-0.6
	c0-0.4,0.3-0.6,0.6-0.6c0,0,0,0,0,0c0.3,0,0.6,0.3,0.6,0.6c0,0,0,0,0,0c0,0,0,0.1,0,0.1h-1C9.6,16.6,9.8,16.8,10,16.8z M10.3,16.2
	c0-0.2-0.2-0.3-0.3-0.3c-0.2,0-0.3,0.1-0.4,0.3H10.3z"/>
<path class="st6" d="M10.7,16.4c0-0.3,0.3-0.6,0.6-0.6c0,0,0,0,0,0c0.2,0,0.4,0.1,0.5,0.3l-0.2,0.1C11.6,16,11.5,16,11.4,16
	c-0.2,0-0.4,0.2-0.4,0.4s0.2,0.4,0.4,0.4c0.1,0,0.3-0.1,0.3-0.2l0.2,0.1c-0.1,0.2-0.3,0.3-0.5,0.3C11,17,10.8,16.7,10.7,16.4
	C10.7,16.4,10.7,16.4,10.7,16.4z"/>
<path class="st6" d="M12.6,16v0.6c0,0.2,0.1,0.2,0.3,0.1V17c-0.4,0-0.6-0.1-0.6-0.4V16h-0.2v-0.3h0.2v-0.3h0.3v0.3h0.3V16L12.6,16z"
	/>
<path class="st6" d="M14,16.6c0,0.2-0.2,0.4-0.5,0.4c-0.2,0-0.4-0.1-0.5-0.3l0.2-0.1c0,0.1,0.2,0.2,0.3,0.2c0.1,0,0.2,0,0.2-0.1
	s-0.6-0.1-0.6-0.5c0-0.2,0.2-0.4,0.4-0.4c0,0,0,0,0,0c0.2,0,0.4,0.1,0.4,0.3l-0.2,0.1c0-0.1-0.1-0.1-0.2-0.1c-0.1,0-0.2,0-0.2,0.1
	S14,16.2,14,16.6z"/>
<circle class="st7" cx="23" cy="20.9" r="7.2"/>
<g>
	
		<linearGradient id="SVGID_1_" gradientUnits="userSpaceOnUse" x1="-241.149" y1="873.2747" x2="-241.149" y2="873.282" gradientTransform="matrix(2500 0 0 2500 602895.5625 -2183174)">
		<stop  offset="0" style="stop-color:#0091E6"/>
		<stop  offset="1" style="stop-color:#0079BF"/>
	</linearGradient>
	<path class="st8" d="M19.5,16.6h7.1c0.5,0,0.9,0.4,0.9,0.9v7.1c0,0.5-0.4,0.9-0.9,0.9h-7.1c-0.5,0-0.9-0.4-0.9-0.9v-7.1
		C18.6,17,19,16.6,19.5,16.6z"/>
	<path class="st4" d="M24,17.8h1.9c0.2,0,0.4,0.2,0.4,0.4v3c0,0.2-0.2,0.4-0.4,0.4H24c-0.2,0-0.4-0.2-0.4-0.4v-3
		C23.6,18,23.8,17.8,24,17.8z"/>
	<path class="st4" d="M20.2,17.8H22c0.2,0,0.4,0.2,0.4,0.4v5.3c0,0.2-0.2,0.4-0.4,0.4h-1.9c-0.2,0-0.4-0.2-0.4-0.4v-5.3
		C19.7,18,19.9,17.8,20.2,17.8z"/>
</g>
</svg>
