<svg xmlns="http://www.w3.org/2000/svg" viewBox="0 0 34.12 29.74"><defs><style>.cls-1{fill:#223570;}.cls-2{fill:#16224d;}.cls-3{fill:#df3d7b;}.cls-4{fill:#f9b25f;}.cls-5{fill:#fff;}.cls-6{fill:#42e0be;}.cls-7{fill:#f2f1f0;}.cls-8{fill:#03a9f4;}</style></defs><title>c5</title><g id="Layer_2" data-name="Layer 2"><g id="Layer_1-2" data-name="Layer 1"><rect class="cls-1" x="0.01" y="0.01" width="26.92" height="23.56" rx="1" ry="1"/><path class="cls-2" d="M1,0H25.92a1,1,0,0,1,1,1V4.21a0,0,0,0,1,0,0H0a0,0,0,0,1,0,0V1A1,1,0,0,1,1,0Z"/><circle class="cls-3" cx="18.33" cy="2.11" r="0.66"/><circle class="cls-4" cx="21.45" cy="2.11" r="0.66"/><path class="cls-5" d="M2,12.75l.35-.2a.59.59,0,0,0,.61.41c.32,0,.45-.14.45-.32s-.19-.29-.56-.4-.75-.25-.75-.72a.72.72,0,0,1,.79-.71.91.91,0,0,1,.85.54l-.34.2a.53.53,0,0,0-.51-.34c-.23,0-.38.12-.38.3s.14.27.49.38.81.25.81.74-.36.72-.87.72A.93.93,0,0,1,2,12.75Z"/><path class="cls-5" d="M5.31,13.31,4.6,12.5v.81H4.22V10.86H4.6v1.47l.68-.77h.46L5,12.41l.8.89Z"/><path class="cls-5" d="M7.65,11.56,7,13.36a.83.83,0,0,1-.85.64v-.35a.44.44,0,0,0,.46-.34l0,0-.74-1.72h.41l.52,1.27.45-1.27Z"/><path class="cls-5" d="M9.84,12.43a.89.89,0,0,1-.87.92.72.72,0,0,1-.61-.29V14H8V11.56h.38v.25a.72.72,0,0,1,.61-.3A.89.89,0,0,1,9.84,12.43Zm-.38,0a.55.55,0,1,0-.55.56A.54.54,0,0,0,9.46,12.43Z"/><path class="cls-5" d="M11.13,13a.53.53,0,0,0,.45-.22l.31.18a.88.88,0,0,1-.77.38.92.92,0,1,1,0-1.84.88.88,0,0,1,.88.92,1.16,1.16,0,0,1,0,.16H10.57A.52.52,0,0,0,11.13,13Zm.46-.72a.49.49,0,0,0-.5-.43.51.51,0,0,0-.53.43Z"/><circle class="cls-6" cx="24.58" cy="2.11" r="0.66"/><circle class="cls-7" cx="26.93" cy="22.55" r="7.19"/><circle class="cls-8" cx="26.93" cy="22.55" r="3.89"/><circle class="cls-8" cx="28.78" cy="24.4" r="2.24"/><circle class="cls-8" cx="25.08" cy="20.7" r="2.24"/><path class="cls-5" d="M27,24.88c-1.28,0-1.87-.64-1.87-1.13a.41.41,0,0,1,.43-.43c.54,0,.41.8,1.44.8.52,0,.82-.29.82-.58s-.08-.37-.43-.47l-1.15-.29c-.91-.23-1.09-.74-1.09-1.23,0-1,.91-1.34,1.77-1.34s1.71.43,1.71,1a.41.41,0,0,1-.45.41c-.47,0-.39-.66-1.32-.66-.47,0-.74.21-.74.53s.37.41.7.49l.86.19c.93.21,1.15.76,1.15,1.28C28.86,24.28,28.27,24.88,27,24.88Z"/></g></g></svg>