<svg xmlns="http://www.w3.org/2000/svg" viewBox="0 0 33.88 27.96"><defs><style>.cls-1{fill:#223570;}.cls-2{fill:#16224d;}.cls-3{fill:#df3d7b;}.cls-4{fill:#f9b25f;}.cls-5{fill:#42e0be;}.cls-6{fill:#fff;}.cls-7{fill:#efefef;}.cls-8{fill:#41b883;}.cls-9{fill:#35495e;}</style></defs><title>f1_1</title><g id="Layer_2" data-name="Layer 2"><g id="Layer_1-2" data-name="Layer 1"><rect class="cls-1" x="0.01" y="0.01" width="26.92" height="23.56" rx="1" ry="1"/><path class="cls-2" d="M1,0H25.92a1,1,0,0,1,1,1V4.21a0,0,0,0,1,0,0H0a0,0,0,0,1,0,0V1A1,1,0,0,1,1,0Z"/><circle class="cls-3" cx="18.33" cy="2.11" r="0.66"/><circle class="cls-4" cx="21.45" cy="2.11" r="0.66"/><circle class="cls-5" cx="24.58" cy="2.1" r="0.66"/><path class="cls-6" d="M5.9,11.07l-1.21.48L5.9,12v.46l-1.7-.74v-.4l1.7-.74Z"/><path class="cls-6" d="M6.34,13.35l1.6-3.6h.22l-1.6,3.6Z"/><path class="cls-6" d="M10.48,11,9.7,13H9.2l-.78-2h.47l.56,1.52L10,11Z"/><path class="cls-6" d="M12.63,11v2H12.2V12.7a.69.69,0,0,1-.62.31.75.75,0,0,1-.77-.82V11h.43v1.18a.42.42,0,0,0,.45.46c.28,0,.51-.17.51-.58V11Z"/><path class="cls-6" d="M14.22,12.61a.61.61,0,0,0,.52-.25l.36.21a1,1,0,0,1-.87.44,1.05,1.05,0,1,1,0-2.1,1,1,0,0,1,1,1.06,1.33,1.33,0,0,1,0,.18H13.58A.6.6,0,0,0,14.22,12.61Zm.53-.82a.56.56,0,0,0-.57-.49.58.58,0,0,0-.6.49Z"/><path class="cls-6" d="M15.47,12.7a.3.3,0,0,1,.6,0,.3.3,0,1,1-.6,0Z"/><path class="cls-6" d="M16.7,11h.43V13c0,.55-.27.81-.82.77v-.42c.26,0,.39-.08.39-.36Zm-.06-.58a.28.28,0,1,1,.28.28A.28.28,0,0,1,16.64,10.38Z"/><path class="cls-6" d="M19.19,12.39c0,.4-.35.62-.78.62a.83.83,0,0,1-.82-.47l.37-.22a.44.44,0,0,0,.44.29c.19,0,.34-.06.34-.22,0-.36-1.08-.16-1.08-.87a.65.65,0,0,1,.73-.61.8.8,0,0,1,.74.42l-.36.2a.39.39,0,0,0-.38-.23c-.16,0-.29.07-.29.21C18.11,11.87,19.19,11.65,19.19,12.39Z"/><path class="cls-6" d="M21.32,11.35v.4l-1.7.74V12l1.21-.48-1.21-.48v-.46Z"/><circle class="cls-7" cx="26.68" cy="20.76" r="7.19"/><polygon class="cls-8" points="23.87 18.57 25.02 18.57 26.75 22.04 28.49 18.58 29.64 18.58 26.75 24.35 23.87 18.57"/><polygon class="cls-9" points="25.02 18.57 26.18 18.57 26.75 19.73 27.33 18.57 28.49 18.58 26.75 22.04 25.02 18.57"/></g></g></svg>