<svg xmlns="http://www.w3.org/2000/svg" viewBox="0 0 34.13 27.93"><defs><style>.cls-1{fill:#223570;}.cls-2{fill:#16224d;}.cls-3{fill:#df3d7b;}.cls-4{fill:#f9b25f;}.cls-5{fill:#42e0be;}.cls-6{fill:#e5e5e5;}.cls-11,.cls-7,.cls-8,.cls-9{fill:#fff;}.cls-7{opacity:0.74;}.cls-8{opacity:0.2;}.cls-9{opacity:0.48;}.cls-10{fill:#563d7c;}</style></defs><title>f2_1</title><g id="Layer_2" data-name="Layer 2"><g id="Layer_1-2" data-name="Layer 1"><rect class="cls-1" width="26.92" height="23.56" rx="1" ry="1"/><path class="cls-2" d="M1,0H25.92a1,1,0,0,1,1,1V4.21a0,0,0,0,1,0,0H0a0,0,0,0,1,0,0V1A1,1,0,0,1,1,0Z"/><circle class="cls-3" cx="18.33" cy="2.1" r="0.66"/><circle class="cls-4" cx="21.45" cy="2.1" r="0.66"/><circle class="cls-5" cx="24.58" cy="2.1" r="0.66"/><rect class="cls-6" x="2.4" y="6.16" width="22.12" height="3.94" rx="0.5" ry="0.5"/><rect class="cls-7" x="2.4" y="11.81" width="4.17" height="8.76" rx="0.5" ry="0.5"/><rect class="cls-8" x="17.31" y="9.1" width="3.35" height="8.76" rx="0.5" ry="0.5" transform="translate(32.47 -5.5) rotate(90)"/><rect class="cls-8" x="17.31" y="14.16" width="3.35" height="8.76" rx="0.5" ry="0.5" transform="translate(37.53 -0.44) rotate(90)"/><rect class="cls-9" x="8.4" y="11.81" width="4.17" height="8.76" rx="0.5" ry="0.5"/><circle class="cls-10" cx="26.94" cy="20.74" r="7.19"/><path class="cls-10" d="M23.95,23a.77.77,0,0,0,.77.77h4.44a.77.77,0,0,0,.77-.77V18.52a.77.77,0,0,0-.77-.77H24.72a.77.77,0,0,0-.77.77Z"/><path class="cls-11" d="M26.43,20.4v-.85h.75l.21,0a.51.51,0,0,1,.18.06.34.34,0,0,1,.12.13.42.42,0,0,1,0,.21.38.38,0,0,1-.14.33.57.57,0,0,1-.35.1Zm-.8-1.47v3.62h1.76a1.85,1.85,0,0,0,.47-.06,1.27,1.27,0,0,0,.41-.19.92.92,0,0,0,.29-.33,1.11,1.11,0,0,0-.06-1.06.87.87,0,0,0-.5-.34.9.9,0,0,0,.37-.3.79.79,0,0,0,.12-.46,1,1,0,0,0-.08-.43.7.7,0,0,0-.24-.28,1,1,0,0,0-.37-.15,2.26,2.26,0,0,0-.47,0Zm.8,3v-1h.87a.67.67,0,0,1,.42.12.47.47,0,0,1,.16.4.5.5,0,0,1,0,.23.38.38,0,0,1-.13.14.55.55,0,0,1-.19.08l-.22,0Z"/></g></g></svg>