<?xml version="1.0" encoding="utf-8"?>
<!-- Generator: Adobe Illustrator 21.0.2, SVG Export Plug-In . SVG Version: 6.00 Build 0)  -->
<svg version="1.1" id="Layer_1" xmlns="http://www.w3.org/2000/svg" xmlns:xlink="http://www.w3.org/1999/xlink" x="0px" y="0px"
	 viewBox="0 0 33.9 28" style="enable-background:new 0 0 33.9 28;" xml:space="preserve">
<style type="text/css">
	.st0{fill:#223570;}
	.st1{fill:#16224D;}
	.st2{fill:#DF3D7B;}
	.st3{fill:#F9B25F;}
	.st4{fill:#42E0BE;}
	.st5{fill:#FFFFFF;}
	.st6{fill:#E1E6EF;}
	.st7{fill:#F27CC2;}
	.st8{fill:#66F1F3;}
	.st9{fill:#6074B8;}
	.st10{fill:#6DA5E5;}
	.st11{fill:#6750AE;}
	.st12{fill:#2B9BDA;}
	.st13{fill:#294BA5;}
</style>
<title>f3</title>
<g id="Layer_2">
	<g id="Layer_1-2">
		<path class="st0" d="M1,0h24.9c0.6,0,1,0.4,1,1v21.6c0,0.6-0.4,1-1,1H1c-0.6,0-1-0.4-1-1V1C0,0.5,0.5,0,1,0z"/>
		<path class="st1" d="M1,0h24.9c0.6,0,1,0.4,1,1v3.2l0,0H0l0,0V1C0,0.4,0.4,0,1,0z"/>
		<circle class="st2" cx="18.3" cy="2.1" r="0.7"/>
		<circle class="st3" cx="21.5" cy="2.1" r="0.7"/>
		<circle class="st4" cx="24.6" cy="2.1" r="0.7"/>
		<path class="st5" d="M5.4,9.9l-1.2,0.5l1.2,0.5v0.5l-1.7-0.7v-0.4l1.7-0.7V9.9z"/>
		<path class="st5" d="M5.9,12.2l1.6-3.6h0.2l-1.6,3.6H5.9z"/>
		<path class="st5" d="M8.2,8.9h0.4v2.9H8.2V8.9z"/>
		<path class="st5" d="M11.3,9.8v2h-0.4v-0.3c-0.2,0.2-0.4,0.4-0.7,0.3c-0.6,0-1-0.5-1-1.1c0-0.6,0.5-1,1-1c0.3,0,0.5,0.1,0.7,0.3
			V9.8H11.3z M10.8,10.8c0-0.3-0.3-0.6-0.6-0.6c-0.3,0-0.6,0.3-0.6,0.6c0,0.3,0.3,0.6,0.6,0.6C10.5,11.5,10.8,11.2,10.8,10.8
			C10.8,10.9,10.8,10.8,10.8,10.8z"/>
		<path class="st5" d="M12.9,9.8v0.5c-0.3-0.1-0.6,0.1-0.6,0.4c0,0,0,0.1,0,0.1v1h-0.4v-2h0.4v0.3C12.4,9.9,12.6,9.8,12.9,9.8z"/>
		<path class="st5" d="M15.3,9.8v2h-0.4v-0.3c-0.2,0.2-0.4,0.4-0.7,0.3c-0.6,0-1-0.5-1-1.1c0-0.6,0.5-1,1-1c0.3,0,0.5,0.1,0.7,0.3
			V9.8H15.3z M14.8,10.8c0-0.3-0.3-0.6-0.6-0.6c-0.3,0-0.6,0.3-0.6,0.6c0,0.3,0.3,0.6,0.6,0.6C14.5,11.5,14.8,11.2,14.8,10.8
			C14.8,10.8,14.8,10.8,14.8,10.8L14.8,10.8z"/>
		<path class="st5" d="M17.7,9.8l-0.8,2h-0.5l-0.8-2h0.5l0.6,1.5l0.6-1.5H17.7z"/>
		<path class="st5" d="M19,11.5c0.2,0,0.4-0.1,0.5-0.3l0.4,0.2c-0.2,0.3-0.5,0.5-0.9,0.4c-0.6,0-1.1-0.5-1.1-1.1s0.5-1.1,1.1-1.1
			c0.6,0,1,0.4,1,1c0,0,0,0,0,0.1c0,0.1,0,0.1,0,0.2h-1.7C18.4,11.3,18.7,11.5,19,11.5z M19.5,10.7c0-0.3-0.3-0.5-0.6-0.5
			c-0.3,0-0.6,0.2-0.6,0.5H19.5z"/>
		<path class="st5" d="M20.4,8.9h0.4v2.9h-0.4V8.9z"/>
		<path class="st5" d="M23.1,10.2v0.4l-1.7,0.7v-0.5l1.2-0.5l-1.2-0.5V9.5L23.1,10.2z"/>
	</g>
</g>
<circle class="st6" cx="26.5" cy="20.6" r="7.2"/>
<g>
	<path class="st7" d="M25.5,22.3c0-0.2,0-0.5,0.1-0.7c-1.1-0.3-2-1.2-2.3-2.4c-1.2,0.5-2,1.7-2,3c0,1.8,1.5,3.3,3.3,3.3
		c0.8,0,1.5-0.3,2.1-0.8C26,24.2,25.5,23.3,25.5,22.3z"/>
	<path class="st8" d="M29.7,19.1c-0.2,1.1-1,2-2,2.4c0.1,0.3,0.1,0.5,0.1,0.8c0,1-0.5,1.9-1.2,2.5c0.6,0.5,1.3,0.8,2.1,0.8
		c1.8,0,3.3-1.5,3.3-3.3C32.1,20.8,31.1,19.5,29.7,19.1z"/>
	<path class="st9" d="M27.8,22.3c0-0.3,0-0.5-0.1-0.8c-0.4,0.2-0.8,0.2-1.2,0.2c-0.3,0-0.6,0-0.9-0.1c0,0.2-0.1,0.4-0.1,0.7
		c0,1,0.5,1.9,1.2,2.5C27.4,24.2,27.8,23.3,27.8,22.3z"/>
	<path class="st10" d="M26.7,19.8c0.6-0.5,1.3-0.8,2.1-0.8c0.3,0,0.6,0,0.9,0.1c0-0.2,0.1-0.4,0.1-0.7c0-1.8-1.5-3.3-3.3-3.3
		c-1.8,0-3.3,1.5-3.3,3.3c0,0.3,0,0.5,0.1,0.8c0.4-0.2,0.8-0.2,1.2-0.2C25.4,19,26.1,19.3,26.7,19.8z"/>
	<path class="st11" d="M25.6,21.6c0.2-0.7,0.5-1.4,1.1-1.8c-0.6-0.5-1.3-0.8-2.1-0.8c-0.4,0-0.9,0.1-1.2,0.2
		C23.6,20.4,24.5,21.3,25.6,21.6z"/>
	<path class="st12" d="M26.7,19.8c0.5,0.4,0.9,1,1.1,1.7c1-0.4,1.7-1.3,2-2.4C29.4,19,29.1,19,28.8,19C28,19,27.2,19.3,26.7,19.8z"
		/>
	<path class="st13" d="M26.7,19.8c-0.5,0.5-0.9,1.1-1.1,1.8c0.3,0.1,0.6,0.1,0.9,0.1c0.4,0,0.9-0.1,1.2-0.2
		C27.6,20.8,27.2,20.2,26.7,19.8z"/>
</g>
</svg>
