<svg xmlns="http://www.w3.org/2000/svg" viewBox="0 0 33.88 26.27"><defs><style>.cls-1{fill:#223570;}.cls-2{fill:#16224d;}.cls-3{fill:#df3d7b;}.cls-4{fill:#f9b25f;}.cls-5{fill:#42e0be;}.cls-6{fill:#fff;}.cls-7{fill:#cb3837;}</style></defs><title>Asset 6</title><g id="Layer_2" data-name="Layer 2"><g id="Layer_1-2" data-name="Layer 1"><rect class="cls-1" x="0.01" y="0.01" width="26.92" height="23.56" rx="1" ry="1"/><path class="cls-2" d="M1,0H25.92a1,1,0,0,1,1,1V4.21a0,0,0,0,1,0,0H0a0,0,0,0,1,0,0V1A1,1,0,0,1,1,0Z"/><circle class="cls-3" cx="18.33" cy="2.11" r="0.66"/><circle class="cls-4" cx="21.45" cy="2.11" r="0.66"/><circle class="cls-5" cx="24.58" cy="2.1" r="0.66"/><path class="cls-6" d="M3.52,10.73l-1.21.48,1.21.48v.46l-1.7-.74V11l1.7-.74Z"/><path class="cls-6" d="M4,13l1.6-3.6h.22L4.18,13Z"/><path class="cls-6" d="M8.4,11.61a1,1,0,0,1-1,1.05.83.83,0,0,1-.7-.34v1.08H6.28v-2.8h.43v.29a.82.82,0,0,1,.7-.34A1,1,0,0,1,8.4,11.61Zm-.43,0a.63.63,0,1,0-.63.64A.62.62,0,0,0,8,11.61Z"/><path class="cls-6" d="M10.91,10.61v2h-.43v-.29a.82.82,0,0,1-.7.34,1.05,1.05,0,0,1,0-2.1.83.83,0,0,1,.7.34v-.28Zm-.43,1a.63.63,0,1,0-.63.64A.62.62,0,0,0,10.48,11.61Z"/><path class="cls-6" d="M11.4,11.61a1,1,0,0,1,1.06-1.05,1,1,0,0,1,.89.52l-.37.22a.56.56,0,0,0-.52-.31.63.63,0,0,0,0,1.25.59.59,0,0,0,.53-.31l.37.21a1,1,0,0,1-.9.52A1,1,0,0,1,11.4,11.61Z"/><path class="cls-6" d="M15,12.61l-.82-.92v.92h-.43V9.81h.43v1.68l.78-.88h.53l-.88,1,.91,1Z"/><path class="cls-6" d="M17.79,10.61v2h-.43v-.29a.82.82,0,0,1-.7.34,1.05,1.05,0,0,1,0-2.1.83.83,0,0,1,.7.34v-.28Zm-.43,1a.63.63,0,1,0-.63.64A.62.62,0,0,0,17.35,11.61Z"/><path class="cls-6" d="M20.41,10.61v1.91a.94.94,0,0,1-1,.94,1,1,0,0,1-.95-.48l.37-.22a.57.57,0,0,0,.58.31.53.53,0,0,0,.6-.55v-.24a.81.81,0,0,1-.7.35,1,1,0,0,1,0-2.06.81.81,0,0,1,.7.35v-.3Zm-.42,1a.64.64,0,1,0-.64.63A.62.62,0,0,0,20,11.59Z"/><path class="cls-6" d="M22,12.27a.61.61,0,0,0,.52-.25l.36.21a1,1,0,0,1-.87.44,1.05,1.05,0,1,1,0-2.1,1,1,0,0,1,1,1.06,1.33,1.33,0,0,1,0,.18H21.35A.6.6,0,0,0,22,12.27Zm.53-.82A.56.56,0,0,0,22,11a.58.58,0,0,0-.6.49Z"/><path class="cls-6" d="M25,11v.4l-1.7.74V11.7l1.21-.48-1.21-.48v-.46Z"/><g id="layer1"><path id="path4951" class="cls-7" d="M19.78,26.27V25.18H14.35V18.66H33.88v6.52H24.11v1.09Z"/><path id="path4949" class="cls-6" d="M23.06,25.18v-1.1h2.15V19.76H20.88v5.43Z"/><path id="path4947" class="cls-7" d="M23.06,20.85h1.06V23H23.06Z"/><path id="path4945" class="cls-6" d="M17.59,24.09V20.85h1.09v3.24h1.09V19.76H15.45v4.33Z"/><path id="path2998" class="cls-6" d="M28.45,24.09V20.85h1.09v3.24h1.09V20.85h1.09v3.24h1.09V19.76H26.3v4.33Z"/></g></g></g></svg>