<?xml version="1.0" encoding="utf-8"?>
<!-- Generator: Adobe Illustrator 21.0.2, SVG Export Plug-In . SVG Version: 6.00 Build 0)  -->
<svg version="1.1" id="Layer_1" xmlns="http://www.w3.org/2000/svg" xmlns:xlink="http://www.w3.org/1999/xlink" x="0px" y="0px"
	 viewBox="0 0 33.9 29.3" style="enable-background:new 0 0 33.9 29.3;" xml:space="preserve">
<style type="text/css">
	.st0{fill:#223570;}
	.st1{fill:#16224D;}
	.st2{fill:#DF3D7B;}
	.st3{fill:#F9B25F;}
	.st4{fill:#42E0BE;}
	.st5{fill:#FFFFFF;}
	.st6{fill:#8ED5FA;}
	.st7{fill:#1C78C0;}
	.st8{fill:#000B0F;fill-opacity:0.1;}
</style>
<title>f5</title>
<path class="st0" d="M1,0h24.9c0.6,0,1,0.4,1,1v21.6c0,0.6-0.4,1-1,1H1c-0.6,0-1-0.4-1-1V1C0,0.5,0.5,0,1,0z"/>
<path class="st1" d="M1,0h24.9c0.6,0,1,0.4,1,1v3.2l0,0H0l0,0V1C0,0.4,0.4,0,1,0z"/>
<circle class="st2" cx="18.3" cy="2.1" r="0.7"/>
<circle class="st3" cx="21.5" cy="2.1" r="0.7"/>
<circle class="st4" cx="24.6" cy="2.1" r="0.7"/>
<path class="st5" d="M2.2,11.1h0.4l0.5,1.9l0.5-1.9h0.4l0.6,1.9l0.5-1.9h0.4l-0.7,2.4H4.4l-0.5-1.8l-0.5,1.8H2.9L2.2,11.1z"/>
<path class="st5" d="M6.6,13.3c0.2,0,0.3-0.1,0.4-0.2l0.3,0.2c-0.2,0.3-0.5,0.4-0.8,0.4c-0.5,0-0.9-0.4-0.9-0.9s0.4-0.9,0.9-0.9
	c0.5,0,0.9,0.4,0.9,0.9c0,0,0,0,0,0c0,0.1,0,0.1,0,0.2H6C6.1,13.1,6.3,13.3,6.6,13.3z M7.1,12.6c0-0.3-0.2-0.4-0.5-0.4
	c-0.3,0-0.5,0.2-0.5,0.4H7.1z"/>
<path class="st5" d="M9.7,12.7c0,0.5-0.4,0.9-0.9,0.9c0,0,0,0,0,0c-0.2,0-0.5-0.1-0.6-0.3v0.3H7.9v-2.4h0.4v0.9
	c0.1-0.2,0.4-0.3,0.6-0.3C9.3,11.8,9.7,12.2,9.7,12.7z M9.3,12.7c0-0.3-0.3-0.5-0.6-0.5c-0.3,0-0.5,0.3-0.5,0.6
	c0,0.3,0.2,0.5,0.5,0.5C9.1,13.3,9.3,13,9.3,12.7C9.3,12.7,9.3,12.7,9.3,12.7L9.3,12.7z"/>
<path class="st5" d="M12,12.7c0,0.5-0.4,0.9-0.9,0.9c0,0,0,0,0,0c-0.2,0-0.5-0.1-0.6-0.3v0.9h-0.4v-2.4h0.4v0.3
	c0.1-0.2,0.4-0.3,0.6-0.3C11.6,11.8,12,12.2,12,12.7C12,12.7,12,12.7,12,12.7z M11.6,12.7c0-0.3-0.3-0.5-0.6-0.5
	c-0.3,0-0.5,0.3-0.5,0.6c0,0.3,0.2,0.5,0.5,0.5C11.4,13.3,11.6,13,11.6,12.7C11.6,12.7,11.6,12.7,11.6,12.7L11.6,12.7z"/>
<path class="st5" d="M14.2,11.8v1.8h-0.4v-0.3c-0.1,0.2-0.4,0.3-0.6,0.3c-0.5,0-0.9-0.4-0.9-0.9s0.4-0.9,0.9-0.9
	c0.2,0,0.5,0.1,0.6,0.3v-0.3H14.2z M13.8,12.7c0-0.3-0.3-0.5-0.6-0.5c-0.3,0-0.5,0.3-0.5,0.6c0,0.3,0.2,0.5,0.5,0.5
	C13.6,13.3,13.8,13,13.8,12.7C13.8,12.7,13.8,12.7,13.8,12.7z"/>
<path class="st5" d="M14.6,12.7c0-0.5,0.4-0.9,0.9-0.9c0,0,0,0,0,0c0.3,0,0.6,0.2,0.8,0.4L16,12.4c-0.1-0.2-0.3-0.3-0.5-0.3
	c-0.3,0-0.6,0.2-0.6,0.6s0.2,0.6,0.6,0.6c0.2,0,0.4-0.1,0.4-0.3l0.3,0.2c-0.2,0.3-0.5,0.5-0.8,0.5C15,13.6,14.6,13.2,14.6,12.7
	C14.6,12.7,14.6,12.7,14.6,12.7z"/>
<path class="st5" d="M17.8,13.6l-0.7-0.8v0.8h-0.4v-2.4h0.4v1.5l0.7-0.8h0.5l-0.8,0.9l0.8,0.9H17.8z"/>
<path class="st6" d="M26.7,13.7l-6.8,3.9v7.8l6.8,3.9l6.9-3.9v-7.8L26.7,13.7z"/>
<path class="st7" d="M26.7,17.7l-3.4,2v3.9l3.4,2l3.4-2v-3.9L26.7,17.7z"/>
<path class="st8" d="M26.7,13.7l-6.8,4l6.8,3.6l6.9-3.6L26.7,13.7z M26.7,21.9l-6.8,3.6l6.8,3.9l6.8-3.9L26.7,21.9L26.7,21.9z"/>
</svg>
