<svg xmlns="http://www.w3.org/2000/svg" viewBox="0 0 33.88 27.96"><defs><style>.cls-1{fill:#223570;}.cls-2{fill:#16224d;}.cls-3{fill:#df3d7b;}.cls-4{fill:#f9b25f;}.cls-5{fill:#42e0be;}.cls-6,.cls-9{fill:#fff;}.cls-7{fill:#edebeb;}.cls-8{fill:#f35045;}.cls-9{opacity:0.33;}</style></defs><title>i6</title><g id="Layer_2" data-name="Layer 2"><g id="Layer_1-2" data-name="Layer 1"><rect class="cls-1" x="0.01" y="0.01" width="26.92" height="23.56" rx="1" ry="1"/><path class="cls-2" d="M1,0H25.92a1,1,0,0,1,1,1V4.21a0,0,0,0,1,0,0H0a0,0,0,0,1,0,0V1A1,1,0,0,1,1,0Z"/><circle class="cls-3" cx="18.33" cy="2.11" r="0.66"/><circle class="cls-4" cx="21.45" cy="2.11" r="0.66"/><circle class="cls-5" cx="24.58" cy="2.1" r="0.66"/><path class="cls-6" d="M2.28,8.12h.43V11H2.28Z"/><path class="cls-6" d="M5.32,9v2H4.89v-.29a.82.82,0,0,1-.7.34,1.05,1.05,0,0,1,0-2.1.83.83,0,0,1,.7.34V9Zm-.43,1a.63.63,0,1,0-.63.64A.62.62,0,0,0,4.89,10Z"/><path class="cls-6" d="M7,9v.47a.53.53,0,0,0-.62.56v1H5.93V9h.43v.34A.63.63,0,0,1,7,9Z"/><path class="cls-6" d="M9.32,9v2H8.89v-.29a.82.82,0,0,1-.7.34,1.05,1.05,0,0,1,0-2.1.83.83,0,0,1,.7.34V9Zm-.43,1a.63.63,0,1,0-.63.64A.62.62,0,0,0,8.89,10Z"/><path class="cls-6" d="M11.75,9,11,11h-.5L9.69,9h.47l.56,1.52L11.28,9Z"/><path class="cls-6" d="M13,10.7a.61.61,0,0,0,.52-.25l.36.21a1,1,0,0,1-.87.44A1.05,1.05,0,1,1,13,9,1,1,0,0,1,14,10a1.33,1.33,0,0,1,0,.18H12.38A.6.6,0,0,0,13,10.7Zm.53-.82A.56.56,0,0,0,13,9.38a.58.58,0,0,0-.6.49Z"/><path class="cls-6" d="M14.47,8.12h.43V11h-.43Z"/><rect class="cls-7" x="19.49" y="13.57" width="14.38" height="14.38" rx="2.72" ry="2.72"/><path class="cls-8" d="M28.51,25.26c.11.16.18.15.27.11l4.72-1.6c.14,0,.09-.09,0-.16S32,21.5,31.93,21.38s-.11-.09-.23-.06l-4.76,1.24s1.46,2.53,1.57,2.69Z"/><path class="cls-8" d="M33.88,23.19V20.8l-1.48.39,1.48,2Z"/><path class="cls-8" d="M32.39,18.27l-1.8.32c-.1,0-.07.07,0,.13l1.43,2,1.86-.46h0V20l-1.26-1.6c-.09-.12-.15-.1-.23-.09Z"/><path class="cls-8" d="M22.16,15.18c.35,0,.38.06.54.29L26.58,22l4.89-1.17-1.62-2.29c-.13-.19,0-.27.22-.31l2.25-.37c.16,0,.29-.08.55.23l1,1.25v-3a2.7,2.7,0,0,0-2.7-2.7h-9a2.6,2.6,0,0,0-1.91.79,2.65,2.65,0,0,0-.65,1l2.52-.2Z"/><path class="cls-8" d="M28.95,26.13c-.41.12-.6.19-.87-.19s-1.29-2.24-1.82-3.2l-3.39.87a.66.66,0,0,1-.83-.38l-2.55-5.53v7.55a2.7,2.7,0,0,0,2.7,2.7h9a2.7,2.7,0,0,0,2.7-2.7v-.89c-1.1.4-4.65,1.68-4.93,1.76Z"/><path class="cls-8" d="M22.89,22.86l2.94-.7c.06,0,.1,0,0-.15l-3.65-6.3c0-.06,0-.08-.11-.07l-2.58.22a2.87,2.87,0,0,0,0,.3c.48,1,3.21,6.62,3.23,6.67s0,.07.16,0Z"/><path class="cls-9" d="M3.42,14.08a.57.57,0,0,1-.58.58H2.49v.6H2.2V13.5h.65A.57.57,0,0,1,3.42,14.08Zm-.29,0a.29.29,0,0,0-.29-.31H2.49v.61h.36A.29.29,0,0,0,3.14,14.08Z"/><path class="cls-9" d="M4.89,14v1.25H4.62v-.18a.51.51,0,0,1-.44.21.66.66,0,0,1,0-1.32.52.52,0,0,1,.44.21V14Zm-.27.63a.4.4,0,1,0-.4.4A.39.39,0,0,0,4.62,14.63Z"/><path class="cls-9" d="M6.18,14.9c0,.25-.22.38-.49.38A.52.52,0,0,1,5.18,15l.23-.14a.28.28,0,0,0,.28.18c.12,0,.21,0,.21-.14s-.67-.1-.67-.54A.41.41,0,0,1,5.69,14a.5.5,0,0,1,.46.26l-.23.13a.24.24,0,0,0-.24-.14c-.1,0-.18,0-.18.13S6.18,14.44,6.18,14.9Z"/><path class="cls-9" d="M7.32,14.9c0,.25-.22.38-.49.38A.52.52,0,0,1,6.32,15l.23-.14a.28.28,0,0,0,.28.18C6.95,15,7,15,7,14.9s-.67-.1-.67-.54A.41.41,0,0,1,6.83,14a.5.5,0,0,1,.46.26l-.23.13a.24.24,0,0,0-.24-.14c-.1,0-.18,0-.18.13S7.32,14.44,7.32,14.9Z"/><path class="cls-9" d="M8.95,14.63a.64.64,0,0,1-.62.66.52.52,0,0,1-.44-.21v.68H7.61V14h.27v.18A.52.52,0,0,1,8.32,14,.64.64,0,0,1,8.95,14.63Zm-.27,0a.4.4,0,1,0-.4.4A.39.39,0,0,0,8.68,14.63Z"/><path class="cls-9" d="M9.18,14.63a.66.66,0,1,1,.66.66A.65.65,0,0,1,9.18,14.63Zm1.05,0a.39.39,0,1,0-.39.4A.38.38,0,0,0,10.23,14.63Z"/><path class="cls-9" d="M11.47,14v.29a.33.33,0,0,0-.39.35v.63h-.27V14h.27v.21A.39.39,0,0,1,11.47,14Z"/><path class="cls-9" d="M12.15,14.26v.6c0,.16.1.16.31.15v.24c-.42,0-.58-.07-.58-.39v-.6h-.23V14h.23v-.27l.27-.08V14h.31v.26Z"/></g></g></svg>