<?xml version="1.0" encoding="utf-8"?>
<!-- Generator: Adobe Illustrator 21.0.2, SVG Export Plug-In . SVG Version: 6.00 Build 0)  -->
<svg version="1.1" id="Layer_1" xmlns="http://www.w3.org/2000/svg" xmlns:xlink="http://www.w3.org/1999/xlink" x="0px" y="0px"
	 viewBox="0 0 33.9 28" style="enable-background:new 0 0 33.9 28;" xml:space="preserve">
<style type="text/css">
	.st0{fill:#223570;}
	.st1{fill:#16224D;}
	.st2{fill:#DF3D7B;}
	.st3{fill:#F9B25F;}
	.st4{fill:#42E0BE;}
	.st5{fill:#FFFFFF;}
	.st6{opacity:0.33;fill:#FFFFFF;enable-background:new    ;}
	.st7{fill:#32A8D9;}
</style>
<title>i4</title>
<g id="Layer_2">
	<g id="Layer_1-2">
		<path class="st0" d="M1,0h24.9c0.6,0,1,0.4,1,1v21.6c0,0.6-0.4,1-1,1H1c-0.6,0-1-0.4-1-1V1C0,0.5,0.5,0,1,0z"/>
		<path class="st1" d="M1,0h24.9c0.6,0,1,0.4,1,1v3.2l0,0H0l0,0V1C0,0.4,0.4,0,1,0z"/>
		<circle class="st2" cx="18.3" cy="2.1" r="0.7"/>
		<circle class="st3" cx="21.5" cy="2.1" r="0.7"/>
		<circle class="st4" cx="24.6" cy="2.1" r="0.7"/>
		<path class="st5" d="M2.3,9.1h0.4V12H2.3V9.1z"/>
		<path class="st5" d="M5.3,10v2H4.9v-0.3c-0.2,0.2-0.4,0.4-0.7,0.3c-0.6,0-1-0.5-1-1.1c0-0.6,0.5-1,1-1c0.3,0,0.5,0.1,0.7,0.3V10
			H5.3z M4.9,11c0-0.3-0.3-0.6-0.6-0.6c-0.3,0-0.6,0.3-0.6,0.6c0,0.3,0.3,0.6,0.6,0.6C4.6,11.6,4.9,11.4,4.9,11
			C4.9,11,4.9,11,4.9,11z"/>
		<path class="st5" d="M7,9.9v0.5c-0.3-0.1-0.6,0.1-0.6,0.4c0,0,0,0.1,0,0.1v1H5.9v-2h0.4v0.3C6.5,10.1,6.7,9.9,7,9.9z"/>
		<path class="st5" d="M9.3,10v2H8.9v-0.3c-0.2,0.2-0.4,0.4-0.7,0.3c-0.6,0-1-0.5-1-1.1c0-0.6,0.5-1,1-1c0.3,0,0.5,0.1,0.7,0.3V10
			H9.3z M8.9,11c0-0.3-0.3-0.6-0.6-0.6c-0.3,0-0.6,0.3-0.6,0.6c0,0.3,0.3,0.6,0.6,0.6C8.6,11.6,8.9,11.4,8.9,11
			C8.9,11,8.9,11,8.9,11z"/>
		<path class="st5" d="M11.8,10L11,12h-0.5l-0.8-2h0.5l0.6,1.5l0.5-1.5H11.8z"/>
		<path class="st5" d="M13,11.6c0.2,0,0.4-0.1,0.5-0.3l0.4,0.2C13.7,11.9,13.3,12,13,12c-0.6,0-1.1-0.5-1.1-1.1s0.5-1.1,1.1-1.1
			c0.6,0,1,0.4,1,1c0,0,0,0.1,0,0.1c0,0.1,0,0.1,0,0.2h-1.6C12.5,11.5,12.7,11.6,13,11.6z M13.5,10.8c0-0.3-0.3-0.5-0.6-0.5
			c-0.3,0-0.6,0.2-0.6,0.5H13.5z"/>
		<path class="st5" d="M14.5,9.1h0.4V12h-0.4V9.1z"/>
		<path class="st6" d="M3.5,13.5v1.8H3.3l-0.8-1.2v1.2H2.2v-1.8h0.2l0.8,1.2v-1.2H3.5z"/>
		<path class="st6" d="M3.9,14.6c0-0.4,0.3-0.7,0.7-0.7c0.4,0,0.7,0.3,0.7,0.7c0,0.4-0.3,0.7-0.7,0.7l0,0C4.2,15.3,3.9,15,3.9,14.6
			C3.9,14.6,3.9,14.6,3.9,14.6z M4.9,14.6c0-0.2-0.2-0.4-0.4-0.4s-0.4,0.2-0.4,0.4c0,0.2,0.2,0.4,0.4,0.4C4.7,15,4.9,14.9,4.9,14.6
			C4.9,14.7,4.9,14.6,4.9,14.6z"/>
		<path class="st6" d="M6.6,14l-0.5,1.3H5.8L5.3,14h0.3l0.3,1l0.3-1H6.6z"/>
		<path class="st6" d="M8,14v1.3H7.8v-0.2c-0.1,0.1-0.3,0.2-0.4,0.2c-0.4,0-0.7-0.3-0.7-0.7c0-0.4,0.3-0.7,0.7-0.7
			c0.2,0,0.3,0.1,0.4,0.2V14H8z M7.7,14.6c0-0.2-0.2-0.4-0.4-0.4s-0.4,0.2-0.4,0.4c0,0.2,0.2,0.4,0.4,0.4c0,0,0,0,0,0
			C7.5,15,7.7,14.9,7.7,14.6C7.8,14.7,7.8,14.6,7.7,14.6L7.7,14.6z"/>
	</g>
</g>
<circle class="st7" cx="26.2" cy="20.4" r="7.2"/>
<g>
	<path d="M29.6,17.1c-1.8-1.1-3.5-1.2-5.3-0.1c-1.1,0.7-1.8,1.6-1.7,3c0.1,1.3,0.8,2.1,1.9,2.6c1.1,0.5,2.5,0.1,3.3-0.7
		c0.5-0.5,0.5-1.2,0-1.7c-0.5-0.5-1.2-0.6-1.8-0.2c-0.1,0.1-0.2,0.2-0.3,0.2c-0.2,0-0.4-0.1-0.4-0.2c-0.1-0.1,0-0.4,0.1-0.5
		c0.7-0.7,2-0.8,2.8-0.2c1.2,0.9,1.2,2.5,0,3.5c-2.3,1.8-5.6,0.7-6.3-2.1c-0.4-1.7,0.4-3.4,2.1-4.4C25.7,15.3,28.1,15.6,29.6,17.1
		C29.6,17.1,29.6,17.1,29.6,17.1z"/>
	<path d="M22.8,23.8c0.7,0.3,1.3,0.6,2.1,0.7c1.7,0.2,3.1-0.3,4.2-1.5c1.1-1.2,0.9-3-0.3-4.1c-1.2-1.1-3.1-1.1-4.2,0.1
		c-0.5,0.5-0.5,1.3-0.1,1.8c0.5,0.5,1.2,0.6,1.8,0.1c0,0,0.1-0.1,0.1-0.1c0.2-0.1,0.4-0.1,0.6,0.1c0.1,0.2,0.1,0.4-0.1,0.6
		c-0.7,0.7-2,0.8-2.8,0.2c-1.2-0.9-1.1-2.6,0.1-3.5c2.4-1.8,5.7-0.5,6.3,2.4c0.2,1.2-0.1,2.2-0.9,3.1c-1.7,2-4.8,2.2-6.8,0.4
		C22.9,23.9,22.9,23.8,22.8,23.8z"/>
</g>
</svg>
