<?xml version="1.0" encoding="utf-8"?>
<!-- Generator: Adobe Illustrator 21.0.2, SVG Export Plug-In . SVG Version: 6.00 Build 0)  -->
<svg version="1.1" id="Layer_1" xmlns="http://www.w3.org/2000/svg" xmlns:xlink="http://www.w3.org/1999/xlink" x="0px" y="0px"
	 viewBox="0 0 701.5 187.4" style="enable-background:new 0 0 701.5 187.4;" xml:space="preserve">
<style type="text/css">
	.st0{fill:#96D84A;}
	.st1{fill:#75B72F;}
	.st2{fill:#FBC316;}
	.st3{fill:#F2B01C;}
	.st4{fill:#BC50A5;}
	.st5{fill:#A73189;}
	.st6{fill:#32BFEA;}
	.st7{fill:#009AD6;}
	.st8{fill:#767993;}
	.st9{fill:#4E5066;}
	.st10{fill:#FFFFFF;}
</style>
<title>Asset 3</title>
<g id="Layer_2">
	<g id="Layer_1-2">
		<polygon class="st0" points="160.7,0 115.8,1.5 95.3,37 140.2,35.5 		"/>
		<polygon class="st1" points="160.7,0 181.8,39.6 161.3,75.2 140.2,35.5 		"/>
		<polygon class="st2" points="161.3,75.2 116.4,76.7 95.9,112.2 140.8,110.7 		"/>
		<polygon class="st3" points="161.3,75.2 182.4,114.8 161.9,150.3 140.8,110.7 		"/>
		<polygon class="st4" points="95.3,37 50.5,38.5 30,74 74.8,72.5 		"/>
		<polygon class="st5" points="95.3,37 116.4,76.6 95.9,112.1 74.8,72.5 		"/>
		<polygon class="st6" points="95.9,112.2 51,113.7 30.5,149.3 75.4,147.7 		"/>
		<polygon class="st7" points="95.9,112.2 117,151.8 96.5,187.4 75.4,147.7 		"/>
		<polygon class="st8" points="22.2,87.4 7,87.9 0,100 15.3,99.5 		"/>
		<polygon class="st9" points="22.2,87.4 29.4,100.9 22.4,112.9 15.3,99.5 		"/>
		<polygon class="st9" points="193.8,104.5 200.9,118 194,130 186.8,116.6 		"/>
		<path class="st10" d="M307.9,43.2l-1.3,3.9c-0.4,1.3-1.1,1.8-2.2,1.3c-2.8-1.1-5.7-1.7-8.7-1.8c-7.5,0-10.3,3.2-11.8,13.7
			l-1.3,9.8h15.2c0.9-0.1,1.7,0.6,1.8,1.4c0,0.2,0,0.4-0.1,0.6l-0.5,3.4c-0.1,1.2-0.5,1.7-1.7,1.7h-15.8l-2.7,19.8l-6.3,44.8
			c-1.7,11.8-7.3,19.8-19.4,19.8c-4.1-0.1-8.1-0.9-12-2.3c-0.7-0.4-1.3-0.9-1-1.8l1.2-3.9c0.5-1.3,1.1-1.8,2.3-1.3
			c2.8,1.1,5.7,1.7,8.7,1.8c7.4,0,10.2-3.1,11.8-13.7l5.1-36.8l3.6-26.3h-6.7c-0.9,0.1-1.7-0.5-1.9-1.4c0-0.2,0-0.4,0-0.7l0.5-3.2
			l9-1.4l1.7-11.8c1.7-11.8,7.2-19.8,19.3-19.8c4.1,0.1,8.1,0.9,12,2.3C307.7,41.8,308.3,42.3,307.9,43.2z"/>
		<path class="st10" d="M338.6,70.4l-1,6c-0.2,1.2-1.1,1.7-2.5,1.9c-10.8,2.3-17.7,5.3-18.6,10.8l-5.4,38.9c-0.2,1.7-1,2.1-2.2,2.1
			h-5c-1.2,0-1.6-0.5-1.3-1.7l7.8-56.3c0.1-1.1,1.1-2,2.2-1.9h1.8c3,0,4.6,2.2,3.9,7l-0.2,1.5c7.8-5.8,17.1-9.6,19.9-9.6
			C338.5,69.1,338.8,69.6,338.6,70.4z"/>
		<path class="st10" d="M390.7,85.7c0,15.8-14.9,19.4-42.8,19.2c-1.3,12.6,6.1,19,17.6,18.9c5.2-0.1,12.4-4,16.3-6.8
			c1.3-0.8,2.2,0.3,2.8,1.5l1.2,2.7c0.5,0.8,0,1.7-1,2.4c-4.3,3.2-12.9,7.8-21.7,7.8c-10.8,0-23.8-6.2-23.8-25
			c0-15.5,7.6-37.3,30.7-37.3C384.9,68.9,390.7,77.4,390.7,85.7z M369.6,76.5c-10.3,0-17.3,5.3-20.6,21.5c18.6,0,33.1-0.1,33.1-12.1
			C382.1,80.2,377.8,76.5,369.6,76.5L369.6,76.5z"/>
		<path class="st10" d="M435,73.1c0.8,0.4,1.2,1.5,0.7,2.3c-0.1,0.1-0.1,0.2-0.2,0.3l-2.4,3.2c-0.7,1-1.7,0.7-2.7,0.1
			c-2.7-1.7-5.7-2.5-8.9-2.6c-8.1,0-11.4,5.8-11.4,9.7c0,5,6,7.4,10.6,9.9c6.8,3.6,12.6,6.6,12.6,15.5c0,9.2-7.3,19.6-21.7,19.6
			c-7.4,0-11.4-2.7-15.9-7c-1-1-1.2-1.7-0.4-2.7l2.3-2.9c0.7-1,1.6-0.8,2.7,0.1c3.8,3.4,6.3,5,11.2,5c10.1,0,13.1-6.7,13.1-11.7
			c0-5.7-4-7.6-8.3-9.8c-6.8-3.6-14.9-7.5-14.9-15.5c0-7,5-17.8,19.8-17.8C427.2,68.9,430.6,70.4,435,73.1z"/>
		<path class="st10" d="M496.5,92.2l-5.1,35.8c-0.1,1.2-1.1,2.1-2.3,2.1h-5c-1.2,0-1.6-0.4-1.3-1.6l4.7-34.1
			c1.9-14.1-2.5-17.8-11.6-17.8c-7.2,0-13.4,4.7-17.6,9.2l-5.9,42.2c-0.1,1.2-1.1,2.1-2.3,2.1c0,0,0,0-0.1,0h-5
			c-1.2,0-1.6-0.4-1.3-1.6l12.4-87.8c0.2-1.3,0.6-1.6,1.8-1.6h5c1.2,0,1.8,0.7,1.7,2.1l-5.2,36.4c5.2-5.5,12.4-8.6,19.9-8.6
			C491.2,68.9,499,74.2,496.5,92.2z"/>
		<path class="st10" d="M574.3,91c0,14.1-9.3,37.6-34,37.6c-2.4,0-6.4-0.1-10.9-0.3h-0.6l-3.2-0.2c-3.8-0.2-7.5-0.5-10.4-0.7
			c-0.8-0.1-0.8-0.2-0.7-1.3l12.4-88.2c0.1-1.2,0.4-1.5,1.6-1.5h13.3c1.1,0.1,2,1.1,1.9,2.2c0,0,0,0.1,0,0.1l-4.6,33.1
			c3.4-3.4,8.6-6.8,15-6.8C569.9,65,574.3,78.3,574.3,91z M557.1,94.9c0-6.7-2.8-14.7-10.1-14.7c-3.5,0-6.9,2.2-9.7,4.6l-4.1,28.7
			c2.5,0.1,5.1,0.1,7.4,0.1C550.8,113.6,557.1,104.7,557.1,94.9L557.1,94.9z"/>
		<path class="st10" d="M606.6,125.8c-1.2,0.7-4.6,2.8-12.3,2.8c-8.6,0-16-2.1-13.6-19.7l5.8-41.4c0.2-1.2,0.4-1.3,1.6-1.3h13.3
			c1.2,0.1,2.1,1.1,2.1,2.3c0,0,0,0,0,0l-5.5,38.3c-0.8,5.3-0.6,7.5,1.9,7.5c2-0.2,4.1-0.7,6-1.4c1.1-0.4,1.9,0.1,2.2,2.7l0.8,7.4
			C609.1,124.1,608.5,124.8,606.6,125.8z M586.9,51.4c0-4,2.7-10.4,10.9-10.4c5.7,0,9.8,2.9,9.8,8.7c0,5.3-2.8,10.5-10.8,10.5
			C591.4,60.3,586.9,57.8,586.9,51.4z"/>
		<path class="st10" d="M654.7,68.5l-1.5,10.6c-0.1,1.2-0.5,1.3-1.7,1.3h-13.2l-3.8,27.3c-0.7,4.8,1.6,6.6,5.1,6.6
			c2.4-0.2,4.8-0.6,7.2-1.3c1.7-0.6,2.4,0.1,2.3,1.1l0.4,10.8c0.1,0.8-0.4,1.6-1.2,1.8c-4.6,1.2-9.4,1.8-14.2,1.9
			c-12.1,0-18.6-6.9-16.9-18.7l4.2-29.5h-4.1c-1,0.1-2-0.6-2.1-1.7c0-0.2,0-0.4,0-0.6l1.1-7.4l6.9-3.5l1-6.9c0.1-1,0.7-1.6,1.8-2.2
			l13.2-6.1c1.6-0.8,2.9,0.8,2.7,2.4l-1.7,11.8h12.4c1.2,0,2.1,1,2.1,2.1C654.7,68.4,654.7,68.4,654.7,68.5z"/>
		<path class="st10" d="M700.3,71.2c1.2,1,1.6,1.7,0.7,3l-6,7.9c-0.7,1-1.7,1-3,0.4c-2.7-1.5-5.7-2.4-8.9-2.6
			c-2.9,0-5.7,2.2-5.8,5.1c0.2,2.2,1.1,2.2,5.6,4.4c7,3.4,16,5.6,16,17.6c0,10.6-9.1,21.6-24.9,21.6c-6.4,0-13.8-3.3-18.8-9.2
			c-1-1.2-1.2-2.3-0.5-3l6.1-7.4c0.7-1,1.6-0.8,2.7,0.2c5,4.4,7.8,4.5,10.5,4.5c6.7,0,7.5-3.5,7.5-6.8c0-2.4-1-3.5-5.6-5.7
			c-7-3.3-15.8-6.3-15.8-14.9S666.8,65,682.8,65C690.7,65,696.2,67.5,700.3,71.2z"/>
	</g>
</g>
</svg>
