<?xml version="1.0" encoding="utf-8"?>
<!-- Generator: Adobe Illustrator 21.0.2, SVG Export Plug-In . SVG Version: 6.00 Build 0)  -->
<svg version="1.1" id="Layer_1" xmlns="http://www.w3.org/2000/svg" xmlns:xlink="http://www.w3.org/1999/xlink" x="0px" y="0px"
	 viewBox="0 0 34.1 29.7" style="enable-background:new 0 0 34.1 29.7;" xml:space="preserve">
<style type="text/css">
	.st0{fill:#223570;}
	.st1{fill:#16224D;}
	.st2{fill:#DF3D7B;}
	.st3{fill:#F9B25F;}
	.st4{fill:#FFFFFF;}
	.st5{opacity:0.33;fill:#FFFFFF;enable-background:new    ;}
	.st6{fill:#42E0BE;}
	.st7{fill:#FFD250;}
	.st8{fill:#4D9ED7;}
</style>
<title>i3</title>
<path class="st0" d="M1,0h24.9c0.6,0,1,0.4,1,1v21.6c0,0.6-0.4,1-1,1H1c-0.6,0-1-0.4-1-1V1C0,0.5,0.5,0,1,0z"/>
<path class="st1" d="M1,0h24.9c0.6,0,1,0.4,1,1v3.2l0,0H0l0,0V1C0,0.4,0.4,0,1,0z"/>
<circle class="st2" cx="18.3" cy="2.1" r="0.7"/>
<circle class="st3" cx="21.5" cy="2.1" r="0.7"/>
<path class="st4" d="M5,11.7H4.6V10l-0.7,1.2l0,0L3.1,10v1.7H2.7V9.3h0.4l0.7,1.2l0.7-1.2H5V11.7z"/>
<path class="st4" d="M7.3,10v1.7H6.9v-0.3c-0.1,0.2-0.4,0.3-0.6,0.3c-0.5,0-0.9-0.4-0.9-0.9s0.4-0.9,0.9-0.9c0.2,0,0.5,0.1,0.6,0.3
	V10H7.3z M6.9,10.9c0-0.3-0.3-0.5-0.6-0.5c-0.3,0-0.5,0.3-0.5,0.6s0.2,0.5,0.5,0.5C6.7,11.4,6.9,11.2,6.9,10.9L6.9,10.9L6.9,10.9z"
	/>
<path class="st4" d="M7.8,9.4c0-0.1,0.1-0.2,0.2-0.2c0.1,0,0.2,0.1,0.2,0.2c0,0.1-0.1,0.2-0.2,0.2C7.9,9.7,7.8,9.6,7.8,9.4z
	 M7.9,9.9h0.4v1.8H7.8L7.9,9.9z"/>
<path class="st4" d="M8.8,9.1h0.4v2.6H8.8V9.1z"/>
<path class="st4" d="M9.6,10.8c0-0.5,0.4-0.9,0.9-0.9l0,0c0.3,0,0.6,0.2,0.8,0.4L11,10.5c-0.1-0.2-0.3-0.3-0.5-0.3
	c-0.3,0-0.6,0.2-0.6,0.6s0.2,0.6,0.6,0.6c0.2,0,0.4-0.1,0.5-0.3l0.3,0.2c-0.2,0.3-0.5,0.5-0.8,0.5C10,11.8,9.6,11.4,9.6,10.8
	C9.6,10.9,9.6,10.8,9.6,10.8z"/>
<path class="st4" d="M13.2,10.6v1.1h-0.4v-1c0-0.2-0.1-0.4-0.3-0.4h-0.1c-0.3,0-0.4,0.1-0.4,0.5v0.9h-0.4V9.3H12v0.9
	c0.1-0.2,0.3-0.3,0.5-0.3c0.4,0,0.7,0.3,0.7,0.6C13.2,10.6,13.2,10.6,13.2,10.6z"/>
<path class="st4" d="M13.7,9.4c0-0.1,0.1-0.2,0.2-0.2c0.1,0,0.2,0.1,0.2,0.2c0,0.1-0.1,0.2-0.2,0.2C13.8,9.7,13.7,9.6,13.7,9.4z
	 M13.7,9.9h0.4v1.8h-0.4V9.9z"/>
<path class="st4" d="M17.2,10.6v1.1h-0.4v-1.1c0-0.3-0.1-0.4-0.3-0.4s-0.4,0.1-0.4,0.5v1h-0.4v-1.1c0-0.3-0.1-0.4-0.3-0.4
	S15,10.4,15,10.7v1h-0.4V10H15v0.2c0.1-0.2,0.3-0.3,0.5-0.3s0.4,0.1,0.5,0.3c0.1-0.2,0.3-0.3,0.5-0.3C16.9,9.9,17.2,10.2,17.2,10.6
	L17.2,10.6z"/>
<path class="st4" d="M19.5,10.8c0,0.5-0.4,0.9-0.9,0.9l0,0c-0.2,0-0.5-0.1-0.6-0.3v0.9h-0.4V10H18v0.3c0.1-0.2,0.4-0.3,0.6-0.3
	C19.2,10,19.5,10.4,19.5,10.8z M19.2,10.8c0-0.3-0.3-0.5-0.6-0.5c-0.3,0-0.5,0.3-0.5,0.6s0.2,0.5,0.5,0.5
	C18.9,11.4,19.2,11.2,19.2,10.8C19.2,10.9,19.2,10.8,19.2,10.8z"/>
<path class="st5" d="M4.6,14.6v0.8H4.4v-0.8c0-0.2-0.1-0.3-0.2-0.3s-0.3,0.1-0.3,0.3v0.7H3.6v-0.8c0-0.2-0.1-0.3-0.2-0.3
	s-0.3,0.1-0.3,0.3v0.7H2.8v-1.3h0.3V14c0.1-0.1,0.2-0.2,0.4-0.2c0.1,0,0.3,0.1,0.4,0.2c0.1-0.1,0.2-0.2,0.4-0.2
	C4.4,14.1,4.6,14.3,4.6,14.6C4.6,14.5,4.6,14.6,4.6,14.6z"/>
<path class="st5" d="M6.3,14.1v1.3H6v-0.2c-0.1,0.1-0.3,0.2-0.4,0.2c-0.4,0-0.7-0.3-0.7-0.7S5.2,14,5.6,14c0.2,0,0.3,0.1,0.4,0.2V14
	L6.3,14.1z M6,14.7c0-0.2-0.2-0.4-0.4-0.4s-0.4,0.2-0.4,0.4s0.2,0.4,0.4,0.4l0,0C5.8,15.1,6,15,6,14.7L6,14.7z"/>
<path class="st5" d="M7.3,14.1v0.3c-0.2,0-0.4,0.1-0.4,0.3v0.1v0.6H6.6v-1.3h0.3v0.2C7,14.2,7.1,14.1,7.3,14.1z"/>
<path class="st5" d="M8.3,15.4l-0.5-0.6v0.6H7.5v-1.8h0.3v1.1l0.5-0.6h0.3L8,14.7l0.6,0.6L8.3,15.4L8.3,15.4z"/>
<path class="st5" d="M9.4,15.1c0.1,0,0.2,0,0.3-0.1l0.2,0.1c-0.1,0.2-0.3,0.3-0.6,0.3c-0.4,0-0.7-0.3-0.7-0.7S8.9,14,9.3,14l0,0
	c0.3,0,0.6,0.3,0.6,0.6l0,0v0.1H9C9,15,9.2,15.2,9.4,15.1z M9.7,14.6c0-0.2-0.2-0.3-0.4-0.3s-0.4,0.1-0.4,0.3H9.7z"/>
<path class="st5" d="M10.7,14.4V15c0,0.2,0.1,0.2,0.3,0.1v0.2c-0.4,0-0.6-0.1-0.6-0.4v-0.6h-0.2V14h0.2v-0.3l0.3-0.1V14H11v0.3
	L10.7,14.4z"/>
<path class="st5" d="M11.2,13.8c0-0.1,0.1-0.2,0.2-0.2s0.2,0.1,0.2,0.2S11.5,14,11.4,14S11.2,13.8,11.2,13.8z M11.2,14.1h0.3v1.3
	h-0.3V14.1z"/>
<path class="st5" d="M13.1,14.6v0.8h-0.3v-0.7c0-0.1-0.1-0.3-0.2-0.3c0,0,0,0-0.1,0c-0.2,0-0.3,0.1-0.3,0.4v0.7h-0.3v-1.3h0.3v0.2
	c0.1-0.1,0.2-0.2,0.4-0.2C12.8,14.1,13.1,14.3,13.1,14.6L13.1,14.6z"/>
<path class="st5" d="M14.7,14.1v1.2c0,0.3-0.3,0.6-0.6,0.6c0,0,0,0-0.1,0c-0.2,0-0.5-0.1-0.6-0.3l0.2-0.1c0.1,0.1,0.2,0.2,0.4,0.2
	s0.3-0.1,0.4-0.3c0,0,0,0,0-0.1v-0.1c-0.1,0.1-0.3,0.2-0.4,0.2c-0.4,0-0.6-0.4-0.6-0.7s0.3-0.5,0.6-0.6c0.2,0,0.3,0.1,0.4,0.2v-0.2
	C14.4,14.1,14.7,14.1,14.7,14.1z M14.4,14.7c0-0.2-0.2-0.4-0.4-0.4s-0.4,0.2-0.4,0.4s0.2,0.4,0.4,0.4l0,0
	C14.2,15.1,14.4,15,14.4,14.7L14.4,14.7L14.4,14.7z"/>
<circle class="st6" cx="24.6" cy="2.1" r="0.7"/>
<circle class="st7" cx="26.9" cy="22.5" r="7.2"/>
<path class="st8" d="M27.4,18.4L27.4,18.4z"/>
<path class="st8" d="M27.1,18.1L27.1,18.1L27.1,18.1z"/>
<g>
	<path class="st1" d="M29.5,20.1C30,20.6,30,21.3,30,22c0.2,0.1,0.4,0.1,0.6,0.2c0.5,0.2,0.6,0.6,0.5,1.1c0,0.2,0,0.4,0.2,0.5
		c0.2,0.2,0.3,0.4,0.3,0.6c-0.1,0.4-0.1,0.8-0.3,1.1c-0.6,1.3-1.7,1.9-3.1,2.1c-0.8,0.1-1.5,0-2.2-0.3c-0.9-0.4-1.6-1-2-1.8
		c-0.1-0.1-0.1-0.2-0.2-0.2c-0.9-0.1-1.6-1-1.4-2c0-0.2,0-0.3-0.1-0.3c-0.5-0.3-0.6-0.8-0.4-1.3c0.1-0.3,0.2-0.5,0.3-0.8
		c0.7-1.3,1.7-2.4,2.9-3.2c0.3-0.2,0.7-0.4,1.1-0.5c0.3,0,0.7,0,0.9,0.3c0.3,0.4,0.6,0.4,1,0.2c0.4-0.2,0.9-0.3,1.4-0.2
		c0.6,0.1,0.9,0.6,0.7,1.2c-0.1,0.3-0.3,0.6-0.5,0.9C29.7,19.9,29.6,20,29.5,20.1z M30.7,24.5C30.7,24.6,30.7,24.6,30.7,24.5
		c-0.1,0.2-0.2,0.3-0.4,0.4c-0.7,0.4-1.4,0.6-2.2,0.5c-0.2,0-0.5-0.2-0.7-0.3c-0.2-0.1-0.3-0.5-0.2-0.7c0.1-0.3,0.3-0.3,0.6-0.3
		c0.8,0.1,1.6,0,2.3-0.4c0.2-0.1,0.4-0.3,0.6-0.5c0.2-0.2,0.2-0.5-0.1-0.7c-0.2-0.1-0.4-0.2-0.6-0.2c-0.2-0.1-0.3-0.2-0.3-0.4
		c0-0.3,0-0.7-0.1-1c-0.1-0.5-0.4-0.6-0.8-0.3c-0.2,0.2-0.5,0.3-0.8,0.3c-0.2,0-0.4,0-0.6,0c-0.3,0-0.6,0.1-0.8,0.3
		c-0.3,0.4-0.4,1-0.1,1.4c0.1,0.2,0.2,0.3,0.4,0.5c0.1,0.1,0.1,0.2,0,0.4c-0.9,1-0.5,2.5,0.8,3c1,0.4,2,0.2,2.8-0.5
		c0.5-0.4,0.8-0.8,0.8-1.4c0-0.1,0-0.3-0.1-0.3c-0.2-0.1-0.2-0.2-0.2-0.3c0-0.1-0.1-0.2-0.1-0.2c-0.4,0.2-0.8,0.4-1.3,0.5
		c-0.6,0.2-1.2,0.2-1.8,0.1c-0.1,0-0.3,0-0.3,0.2c0.5,0.2,1,0.2,1.6,0.2c-0.5,0.2-1.1,0.2-1.6,0c0,0.2,0.2,0.3,0.4,0.4
		c0.4,0.1,0.8,0.1,1.2,0.1C29.5,25.1,30.1,24.9,30.7,24.5z M27.1,18.2c-0.1-0.1-0.1-0.1-0.2-0.2c-0.2-0.3-0.5-0.4-0.9-0.2
		c-0.3,0.1-0.6,0.3-0.9,0.4c-1.2,0.8-2,1.7-2.7,3c-0.1,0.2-0.2,0.5-0.3,0.8c-0.1,0.5,0,0.7,0.4,0.9c0.2-0.2,0.5-0.3,0.7-0.4
		c0.1-0.1,0.2-0.1,0.3-0.3c0.5-1.1,1.1-2.1,2.1-2.9C26.2,18.9,26.6,18.6,27.1,18.2z M24.7,23.9c0-0.1-0.1-0.4-0.2-0.6
		c-0.3-0.6-1.1-0.7-1.6-0.1c-0.4,0.5-0.3,1.2,0.2,1.6c0.3,0.3,0.7,0.4,1.1,0.2C24.6,24.7,24.7,24.4,24.7,23.9z M25.5,20.2
		c1-0.6,2-0.8,3.1-0.6c0,0,0,0,0-0.1c-0.3-0.1-0.6-0.2-0.9-0.2c0-0.1,0.1-0.1,0.1-0.2c0,0,0,0,0-0.1c-0.4,0.1-0.7,0.3-1.1,0.4
		c0-0.1,0.1-0.2,0.1-0.3C26.3,19.4,25.9,19.8,25.5,20.2z"/>
	<path class="st1" d="M29.4,22c0,0.1-0.1,0.1-0.1,0.2c-0.1,0-0.2,0-0.2-0.1c0-0.1-0.1-0.3-0.1-0.4c0-0.1,0.1-0.2,0.1-0.2
		c0.1,0.1,0.2,0.1,0.2,0.2C29.4,21.7,29.4,21.9,29.4,22z"/>
	<path class="st1" d="M27,22.4c0.1-0.2,0.3-0.3,0.6-0.3c0.2,0,0.4,0.1,0.5,0.4C27.7,22.3,27.4,22.3,27,22.4z"/>
	<path class="st1" d="M28.1,22.7c-0.2,0-0.4,0-0.7,0.1C27.5,22.5,27.8,22.5,28.1,22.7z"/>
	<path class="st1" d="M29.5,22.6c-0.1,0.1-0.1,0.1-0.2,0.2c0-0.1-0.1-0.1-0.1-0.2c0-0.1,0.1-0.1,0.1-0.2
		C29.4,22.5,29.4,22.6,29.5,22.6z"/>
	<path class="st1" d="M28.8,22.7c0.1,0.1,0.1,0.2,0.2,0.2c-0.1,0-0.1,0.1-0.2,0.1c-0.1,0-0.1-0.1-0.2-0.2
		C28.7,22.8,28.7,22.7,28.8,22.7z"/>
	<path class="st1" d="M24.4,24.3c-0.1,0-0.2,0.1-0.2,0.1c-0.1,0-0.2-0.1-0.2-0.2c0-0.1,0-0.3,0-0.4c0-0.2,0-0.3-0.2-0.4
		c-0.2-0.1-0.3,0-0.4,0.2c0,0,0,0.1-0.1,0.1c0,0,0,0-0.1,0c-0.1-0.2,0-0.4,0.1-0.6c0.1-0.2,0.3-0.2,0.5-0.1c0.2,0.1,0.3,0.2,0.3,0.5
		c0,0.1,0,0.2-0.1,0.3C24,24.2,24,24.2,24.4,24.3z"/>
</g>
</svg>
