<svg xmlns="http://www.w3.org/2000/svg" viewBox="0 0 34.12 29.74"><defs><style>.cls-1{fill:#223570;}.cls-2{fill:#16224d;}.cls-3{fill:#df3d7b;}.cls-4{fill:#f9b25f;}.cls-5,.cls-8{fill:#fff;}.cls-6{fill:#42e0be;}.cls-7{fill:#ffd250;}.cls-8{opacity:0.33;}</style></defs><title>s5</title><g id="Layer_2" data-name="Layer 2"><g id="Layer_1-2" data-name="Layer 1"><rect class="cls-1" x="0.01" y="0.01" width="26.92" height="23.56" rx="1" ry="1"/><path class="cls-2" d="M1,0H25.92a1,1,0,0,1,1,1V4.21a0,0,0,0,1,0,0H0a0,0,0,0,1,0,0V1A1,1,0,0,1,1,0Z"/><circle class="cls-3" cx="18.33" cy="2.11" r="0.66"/><circle class="cls-4" cx="21.45" cy="2.11" r="0.66"/><path class="cls-5" d="M5.15,9.12v2.8H4.79L3.47,10v1.9H3V9.12h.36L4.69,11V9.12Z"/><path class="cls-5" d="M7.8,9.92v1.91a.94.94,0,0,1-1,.94,1,1,0,0,1-.95-.48l.37-.22a.57.57,0,0,0,.58.31.53.53,0,0,0,.6-.55v-.24a.81.81,0,0,1-.7.35,1,1,0,0,1,0-2.06.81.81,0,0,1,.7.35v-.3Zm-.42,1a.64.64,0,1,0-.64.63A.62.62,0,0,0,7.37,10.9Z"/><path class="cls-5" d="M8.34,9.35a.28.28,0,1,1,.28.28A.28.28,0,0,1,8.34,9.35Zm.06.58h.43v2H8.4Z"/><path class="cls-5" d="M11.25,10.7v1.23h-.43V10.74a.42.42,0,0,0-.45-.46c-.28,0-.51.17-.51.58v1.07H9.44v-2h.43v.26a.69.69,0,0,1,.62-.31A.75.75,0,0,1,11.25,10.7Z"/><path class="cls-5" d="M13.11,11.92l-.5-.68-.5.68h-.5l.75-1-.71-1h.5l.46.63.46-.63h.5l-.71,1,.75,1Z"/><circle class="cls-6" cx="24.58" cy="2.11" r="0.66"/><circle class="cls-7" cx="26.93" cy="22.55" r="7.19"/><g id="layer1"><path d="M23.42,23.65a.23.23,0,0,1-.16-.07l-1.35-1.35v1.19a.23.23,0,1,1-.46,0V21.68a.23.23,0,0,1,.39-.16l1.35,1.35V21.68a.23.23,0,0,1,.46,0v1.74a.23.23,0,0,1-.14.21Z"/><path id="path2996-0" d="M24.48,21.45l-.06.12-.48.88-.06.11.06.11.48.85.07.12h1.27l.06-.13.36-.73.16-.33H25a.23.23,0,1,0,0,.46h.56l-.14.28h-.72l-.36-.63.36-.65h.76l.18.37h.46l-.29-.69-.06-.13H24.48Z"/><path id="path2996-0-5" d="M26.79,21.45a.24.24,0,0,0-.23.23v.59H27v-.59A.24.24,0,0,0,26.79,21.45Z"/><g id="use3820"><path d="M27.52,23.65l-.09,0a.23.23,0,0,1-.14-.21V21.68a.23.23,0,0,1,.46,0v1.19l1.35-1.35a.23.23,0,0,1,.39.16v1.74a.23.23,0,1,1-.46,0V22.23l-1.35,1.35A.23.23,0,0,1,27.52,23.65Z"/></g><g id="g3920"><path d="M31.72,23.65a.23.23,0,0,1-.16-.07l-1.74-1.73a.23.23,0,1,1,.32-.32l1.74,1.73a.23.23,0,0,1-.16.39Z"/><g id="use3851"><path d="M30,23.65a.23.23,0,0,1-.16-.39l1.74-1.73a.23.23,0,0,1,.32.32l-1.74,1.73A.23.23,0,0,1,30,23.65Z"/></g></g><path id="path2996-0-5-1" d="M26.79,23.64a.24.24,0,0,1-.23-.23v-1H27v1A.24.24,0,0,1,26.79,23.64Z"/></g><path class="cls-8" d="M2.78,14.79h.3l.37,1.37.4-1.37h.27l.4,1.37.37-1.37h.3l-.5,1.75H4.35L4,15.26l-.37,1.28H3.28Z"/><path class="cls-8" d="M5.91,16.33a.38.38,0,0,0,.32-.16l.22.13a.63.63,0,0,1-.55.27.66.66,0,1,1,0-1.32.63.63,0,0,1,.63.66.84.84,0,0,1,0,.11h-1A.38.38,0,0,0,5.91,16.33Zm.33-.52a.35.35,0,0,0-.36-.31.36.36,0,0,0-.38.31Z"/><path class="cls-8" d="M8.15,15.91a.64.64,0,0,1-.62.66.52.52,0,0,1-.44-.21v.18H6.82V14.79h.27v.68a.52.52,0,0,1,.44-.21A.64.64,0,0,1,8.15,15.91Zm-.27,0a.4.4,0,1,0-.4.4A.39.39,0,0,0,7.88,15.91Z"/><path class="cls-8" d="M9.07,16.14,9.31,16a.42.42,0,0,0,.44.29c.23,0,.33-.1.33-.23s-.14-.21-.4-.29-.54-.18-.54-.51a.52.52,0,0,1,.56-.51.65.65,0,0,1,.61.39l-.24.14A.38.38,0,0,0,9.7,15c-.17,0-.27.08-.27.22s.1.19.35.27.58.18.58.53-.25.52-.62.52A.67.67,0,0,1,9.07,16.14Z"/><path class="cls-8" d="M11.3,16.33a.38.38,0,0,0,.32-.16l.22.13a.63.63,0,0,1-.55.27.66.66,0,1,1,0-1.32.63.63,0,0,1,.63.66.84.84,0,0,1,0,.11h-1A.38.38,0,0,0,11.3,16.33Zm.33-.52a.35.35,0,0,0-.36-.31.36.36,0,0,0-.38.31Z"/><path class="cls-8" d="M12.86,15.27v.29a.33.33,0,0,0-.39.35v.63h-.27V15.29h.27v.21A.39.39,0,0,1,12.86,15.27Z"/><path class="cls-8" d="M14.27,15.29l-.49,1.25h-.31L13,15.29h.29l.35,1,.35-1Z"/><path class="cls-8" d="M15.06,16.33a.38.38,0,0,0,.32-.16l.22.13a.63.63,0,0,1-.55.27.66.66,0,1,1,0-1.32.63.63,0,0,1,.63.66.84.84,0,0,1,0,.11h-1A.38.38,0,0,0,15.06,16.33Zm.33-.52A.35.35,0,0,0,15,15.5a.36.36,0,0,0-.38.31Z"/><path class="cls-8" d="M16.62,15.27v.29a.33.33,0,0,0-.39.35v.63H16V15.29h.27v.21A.39.39,0,0,1,16.62,15.27Z"/></g></g></svg>