<svg xmlns="http://www.w3.org/2000/svg" xmlns:xlink="http://www.w3.org/1999/xlink" viewBox="0 0 34.82 26.99"><defs><style>.cls-1{fill:none;}.cls-2{fill:#223570;}.cls-3{fill:#16224d;}.cls-4{fill:#df3d7b;}.cls-5{fill:#f9b25f;}.cls-6{fill:#42e0be;}.cls-7{fill:#fff;}.cls-8{fill:#777bb3;}.cls-9{clip-path:url(#clip-path);}</style><clipPath id="clip-path"><rect class="cls-1" x="15.5" y="16.13" width="19.32" height="10.87"/></clipPath></defs><title>b2</title><g id="Layer_2" data-name="Layer 2"><g id="Layer_1-2" data-name="Layer 1"><rect class="cls-2" x="0.01" y="0.01" width="26.92" height="23.56" rx="1" ry="1"/><path class="cls-3" d="M1,0H25.92a1,1,0,0,1,1,1V4.21a0,0,0,0,1,0,0H0a0,0,0,0,1,0,0V1A1,1,0,0,1,1,0Z"/><circle class="cls-4" cx="18.33" cy="2.11" r="0.66"/><circle class="cls-5" cx="21.45" cy="2.11" r="0.66"/><circle class="cls-6" cx="24.58" cy="2.1" r="0.66"/><path class="cls-7" d="M3.52,9.16l-1.21.48,1.21.48v.46l-1.7-.74v-.4l1.7-.74Z"/><path class="cls-7" d="M4,11.44l1.6-3.6h.22l-1.6,3.6Z"/><path class="cls-7" d="M8.4,10a1,1,0,0,1-1,1.05.83.83,0,0,1-.7-.34v1.08H6.28V9h.43v.29A.82.82,0,0,1,7.41,9,1,1,0,0,1,8.4,10ZM8,10a.63.63,0,1,0-.63.64A.62.62,0,0,0,8,10Z"/><path class="cls-7" d="M10.91,9v2h-.43v-.29a.82.82,0,0,1-.7.34,1.05,1.05,0,0,1,0-2.1.83.83,0,0,1,.7.34V9Zm-.43,1a.63.63,0,1,0-.63.64A.62.62,0,0,0,10.48,10Z"/><path class="cls-7" d="M11.4,10A1,1,0,0,1,12.46,9a1,1,0,0,1,.89.52L13,9.73a.56.56,0,0,0-.52-.31.63.63,0,0,0,0,1.25.59.59,0,0,0,.53-.31l.37.21a1,1,0,0,1-.9.52A1,1,0,0,1,11.4,10Z"/><path class="cls-7" d="M15,11l-.82-.92V11h-.43V8.25h.43V9.93L15,9h.53l-.88,1,.91,1Z"/><path class="cls-7" d="M17.78,9v2h-.43v-.29a.82.82,0,0,1-.7.34,1.05,1.05,0,0,1,0-2.1.83.83,0,0,1,.7.34V9Zm-.43,1a.63.63,0,1,0-.63.64A.62.62,0,0,0,17.35,10Z"/><path class="cls-7" d="M20.4,9V11a.94.94,0,0,1-1,.94,1,1,0,0,1-.95-.48l.37-.22a.57.57,0,0,0,.58.31A.53.53,0,0,0,20,11v-.24a.81.81,0,0,1-.7.35,1,1,0,0,1,0-2.06.81.81,0,0,1,.7.35V9ZM20,10a.64.64,0,1,0-.64.63A.62.62,0,0,0,20,10Z"/><path class="cls-7" d="M22,10.7a.61.61,0,0,0,.52-.25l.36.21a1,1,0,0,1-.87.44A1.05,1.05,0,1,1,22,9,1,1,0,0,1,23,10a1.33,1.33,0,0,1,0,.18H21.35A.6.6,0,0,0,22,10.7Zm.53-.82a.56.56,0,0,0-.57-.49.58.58,0,0,0-.6.49Z"/><path class="cls-7" d="M25,9.45v.4l-1.7.74v-.46l1.21-.48-1.21-.48V8.71Z"/><rect class="cls-1" x="15.5" y="16.13" width="19.32" height="10.87"/><g id="g3466"><g id="g3472"><path id="path3474" class="cls-8" d="M25.16,26.08c4.92,0,8.91-2,8.91-4.52S30.08,17,25.16,17s-8.91,2-8.91,4.52,4,4.52,8.91,4.52"/></g></g><g class="cls-9"><g id="g3478"><g id="g3484"><path id="path3486" class="cls-7" d="M20.93,22.12a1.48,1.48,0,0,0,.9-.22,1.2,1.2,0,0,0,.39-.75.81.81,0,0,0-.07-.68,1,1,0,0,0-.73-.19h-.65l-.36,1.84Zm-2.12,2.27a.1.1,0,0,1-.1-.12l1-4.89a.1.1,0,0,1,.1-.08h2a1.8,1.8,0,0,1,1.42.52,1.62,1.62,0,0,1,.28,1.44,2.22,2.22,0,0,1-.7,1.25,2,2,0,0,1-.75.45,3.38,3.38,0,0,1-1,.13h-.83L20,24.31a.1.1,0,0,1-.1.08Z"/></g><g id="g3492"><path id="path3494" class="cls-7" d="M26,23.09a.1.1,0,0,1-.1-.12l.42-2.16c0-.21,0-.35,0-.42s-.14-.1-.46-.1H25L24.5,23a.1.1,0,0,1-.1.08H23.35a.1.1,0,0,1-.1-.12l1-4.89a.1.1,0,0,1,.1-.08h1.06a.1.1,0,0,1,.1.12l-.23,1.18H26a1.9,1.9,0,0,1,1.29.34,1.12,1.12,0,0,1,.23,1.1L27.13,23a.1.1,0,0,1-.1.08Z"/></g><g id="g3500"><path id="path3502" class="cls-7" d="M29.24,22.12a1.48,1.48,0,0,0,.9-.22,1.2,1.2,0,0,0,.39-.75.81.81,0,0,0-.07-.68,1,1,0,0,0-.73-.19h-.65l-.36,1.84Zm-2.12,2.27a.1.1,0,0,1-.1-.12l1-4.89a.1.1,0,0,1,.1-.08h2a1.8,1.8,0,0,1,1.42.52,1.62,1.62,0,0,1,.28,1.44,2.22,2.22,0,0,1-.7,1.25,2,2,0,0,1-.75.45,3.38,3.38,0,0,1-1,.13h-.83l-.24,1.22a.1.1,0,0,1-.1.08Z"/></g></g></g></g></g></svg>