<svg xmlns="http://www.w3.org/2000/svg" viewBox="0 0 33.88 29.32"><defs><style>.cls-1{fill:#223570;}.cls-2{fill:#16224d;}.cls-3{fill:#df3d7b;}.cls-4{fill:#f9b25f;}.cls-5{fill:#42e0be;}.cls-6,.cls-7{fill:#fff;}.cls-7{opacity:0.33;}.cls-8{fill:#8849ea;}</style></defs><title>f6</title><g id="Layer_2" data-name="Layer 2"><g id="Layer_1-2" data-name="Layer 1"><rect class="cls-1" x="0.01" y="0.01" width="26.92" height="23.56" rx="1" ry="1"/><path class="cls-2" d="M1,0H25.92a1,1,0,0,1,1,1V4.21a0,0,0,0,1,0,0H0a0,0,0,0,1,0,0V1A1,1,0,0,1,1,0Z"/><circle class="cls-3" cx="18.33" cy="2.11" r="0.66"/><circle class="cls-4" cx="21.45" cy="2.11" r="0.66"/><circle class="cls-5" cx="24.58" cy="2.1" r="0.66"/><path class="cls-6" d="M4.49,9.66a.79.79,0,0,1-.81.8h-.5v.84h-.4V8.86h.9A.79.79,0,0,1,4.49,9.66Zm-.4,0a.4.4,0,0,0-.41-.43h-.5v.85h.5A.4.4,0,0,0,4.08,9.66Z"/><path class="cls-6" d="M4.72,8.86h.42l.51,1.91.55-1.91h.37l.55,1.91.51-1.91h.42l-.69,2.45H6.91L6.39,9.52l-.52,1.79H5.41Z"/><path class="cls-6" d="M9.76,10.81h-1l-.17.49H8.11L9,8.86h.48l.88,2.45H9.93Zm-.13-.38-.39-1.1-.39,1.1Z"/><path class="cls-7" d="M4.38,16.56H4.09V15.31l-.53.88h0L3,15.31v1.25H2.7V14.81H3l.53.88.53-.88h.31Z"/><path class="cls-7" d="M4.7,15.93a.66.66,0,1,1,.66.66A.65.65,0,0,1,4.7,15.93Zm1.05,0a.39.39,0,1,0-.39.4A.38.38,0,0,0,5.75,15.93Z"/><path class="cls-7" d="M7.66,15.93a.64.64,0,0,1-.62.66.52.52,0,0,1-.44-.21v.18H6.33V14.81H6.6v.68A.52.52,0,0,1,7,15.27.64.64,0,0,1,7.66,15.93Zm-.27,0a.4.4,0,1,0-.4.4A.39.39,0,0,0,7.39,15.93Z"/><path class="cls-7" d="M7.93,14.95a.17.17,0,0,1,.35,0,.17.17,0,1,1-.35,0Zm0,.36h.27v1.25H8Z"/><path class="cls-7" d="M8.61,14.73h.27v1.83H8.61Z"/><path class="cls-7" d="M9.87,16.34a.38.38,0,0,0,.32-.16l.22.13a.63.63,0,0,1-.55.27.66.66,0,1,1,0-1.32.63.63,0,0,1,.63.66.84.84,0,0,1,0,.11h-1A.38.38,0,0,0,9.87,16.34Zm.33-.52a.35.35,0,0,0-.36-.31.36.36,0,0,0-.38.31Z"/><path class="cls-7" d="M2.58,18.42h.3l.37,1.37.4-1.37h.27l.4,1.37.37-1.37H5l-.5,1.75H4.15l-.37-1.28-.37,1.28H3.07Z"/><path class="cls-7" d="M5.71,20A.38.38,0,0,0,6,19.8l.22.13a.63.63,0,0,1-.55.27.66.66,0,1,1,0-1.32.63.63,0,0,1,.63.66.84.84,0,0,1,0,.11h-1A.38.38,0,0,0,5.71,20ZM6,19.44a.35.35,0,0,0-.36-.31.36.36,0,0,0-.38.31Z"/><path class="cls-7" d="M7.95,19.54a.64.64,0,0,1-.62.66A.52.52,0,0,1,6.88,20v.18H6.61V18.42h.27v.68a.52.52,0,0,1,.44-.21A.64.64,0,0,1,7.95,19.54Zm-.27,0a.4.4,0,1,0-.4.4A.39.39,0,0,0,7.67,19.54Z"/><circle class="cls-8" cx="26.68" cy="22.13" r="7.19"/><path class="cls-6" d="M28.91,23.27l.27-.69H30l-.37-1,.47-1.18,1.34,3.56h-1l-.23-.64Z"/><path class="cls-6" d="M28.07,23.91l1.44-3.56h-1l-1,2.3-.7-2.3h-.73l-.75,2.3-.53-1-.48,1.47.49.83h.94l.68-2.06.65,2.06Z"/><path class="cls-6" d="M22.86,22.69h.59a1.73,1.73,0,0,0,.47-.06l.15-.47.42-1.31-.11-.15a1.22,1.22,0,0,0-1-.36H22v3.56h.9Zm.78-1.52a.47.47,0,0,1,.13.34.5.5,0,0,1-.11.34.58.58,0,0,1-.45.14h-.34V21h.34A.6.6,0,0,1,23.63,21.17Z"/></g></g></svg>