<svg xmlns="http://www.w3.org/2000/svg" viewBox="0 0 34.12 29.74"><defs><style>.cls-1{fill:#223570;}.cls-2{fill:#16224d;}.cls-3{fill:#df3d7b;}.cls-4{fill:#f9b25f;}.cls-5{fill:#fff;}.cls-6{fill:#42e0be;}.cls-7{fill:#f2f1f0;}.cls-8{fill:#0080ff;}</style></defs><title>s2</title><g id="Layer_2" data-name="Layer 2"><g id="Layer_1-2" data-name="Layer 1"><rect class="cls-1" x="0.01" y="0.01" width="26.92" height="23.56" rx="1" ry="1"/><path class="cls-2" d="M1,0H25.92a1,1,0,0,1,1,1V4.21a0,0,0,0,1,0,0H0a0,0,0,0,1,0,0V1A1,1,0,0,1,1,0Z"/><circle class="cls-3" cx="18.33" cy="2.11" r="0.66"/><circle class="cls-4" cx="21.45" cy="2.11" r="0.66"/><path class="cls-5" d="M5.62,10.24a1.18,1.18,0,0,1-1.17,1.22h-1V9h1A1.17,1.17,0,0,1,5.62,10.24Zm-.39,0a.78.78,0,0,0-.78-.84H3.89v1.68h.56A.78.78,0,0,0,5.23,10.24Z"/><path class="cls-5" d="M6,9.22a.24.24,0,0,1,.48,0,.24.24,0,1,1-.48,0Zm.05.5h.38v1.75H6.05Z"/><path class="cls-5" d="M8.72,9.72v1.67a.82.82,0,0,1-.9.82A.87.87,0,0,1,7,11.79l.33-.19a.5.5,0,0,0,.51.27.46.46,0,0,0,.52-.48v-.21a.71.71,0,0,1-.61.3.9.9,0,0,1,0-1.8.71.71,0,0,1,.61.3V9.72Zm-.37.86a.56.56,0,1,0-.56.55A.54.54,0,0,0,8.35,10.58Z"/><path class="cls-5" d="M9.2,9.22a.24.24,0,0,1,.48,0,.24.24,0,1,1-.48,0Zm.05.5h.38v1.75H9.25Z"/><path class="cls-5" d="M10.69,10.08v.84c0,.22.15.22.43.21v.34c-.58.07-.81-.09-.81-.54v-.84H10V9.72h.32V9.34l.38-.11v.49h.43v.36Z"/><path class="cls-5" d="M13.25,9.72v1.75h-.38v-.25a.72.72,0,0,1-.61.3.92.92,0,0,1,0-1.84.72.72,0,0,1,.61.29V9.72Zm-.38.87a.55.55,0,1,0-.55.56A.54.54,0,0,0,12.87,10.59Z"/><path class="cls-5" d="M13.78,8.92h.38v2.55h-.38Z"/><path class="cls-5" d="M3.36,15.24a1.27,1.27,0,1,1,1.27,1.27A1.26,1.26,0,0,1,3.36,15.24Zm2.13,0a.87.87,0,1,0-.87.88A.85.85,0,0,0,5.5,15.24Z"/><path class="cls-5" d="M6.24,15.59a.9.9,0,0,1,.92-.92.86.86,0,0,1,.78.45l-.33.19A.49.49,0,0,0,7.16,15a.55.55,0,0,0,0,1.1.51.51,0,0,0,.46-.27l.33.18a.88.88,0,0,1-.79.46A.9.9,0,0,1,6.24,15.59Z"/><path class="cls-5" d="M9.14,16.17a.53.53,0,0,0,.45-.22l.31.18a.88.88,0,0,1-.77.38.92.92,0,1,1,0-1.84.88.88,0,0,1,.88.92,1.16,1.16,0,0,1,0,.16H8.58A.52.52,0,0,0,9.14,16.17Zm.46-.72A.49.49,0,0,0,9.1,15a.51.51,0,0,0-.53.43Z"/><path class="cls-5" d="M12.16,14.72v1.75h-.38v-.25a.72.72,0,0,1-.61.3.92.92,0,0,1,0-1.84.72.72,0,0,1,.61.29v-.25Zm-.38.87a.55.55,0,1,0-.55.56A.54.54,0,0,0,11.78,15.59Z"/><path class="cls-5" d="M14.28,15.39v1.07H13.9v-1a.36.36,0,0,0-.39-.41c-.25,0-.44.15-.44.5v.94h-.38V14.72h.38v.22a.6.6,0,0,1,.54-.27A.65.65,0,0,1,14.28,15.39Z"/><circle class="cls-6" cx="24.58" cy="2.11" r="0.66"/><circle class="cls-7" cx="26.93" cy="22.55" r="7.19"/><path class="cls-8" d="M26.93,26.25V24.82A2.28,2.28,0,0,0,29,21.71a2.14,2.14,0,0,0-1.28-1.28,2.28,2.28,0,0,0-3.1,2.11H23.23A3.71,3.71,0,0,1,28.11,19a3.58,3.58,0,0,1,2.34,2.34,3.71,3.71,0,0,1-3.52,4.88Z"/><path class="cls-8" d="M25.51,24.82V23.4h1.43v1.43Z"/><path class="cls-8" d="M24.41,25.92v-1.1h1.1v1.1Z"/><path class="cls-8" d="M24.41,24.82h-.92V23.9h.92Z"/></g></g></svg>