<svg xmlns="http://www.w3.org/2000/svg" viewBox="0 0 33.88 27.96"><defs><style>.cls-1{fill:#223570;}.cls-2{fill:#16224d;}.cls-3{fill:#df3d7b;}.cls-4{fill:#f9b25f;}.cls-5{fill:#42e0be;}.cls-6,.cls-9{fill:#fff;}.cls-7{fill:#edebeb;}.cls-8{fill:#f35045;}.cls-9{opacity:0.33;}</style></defs><title>s3</title><g id="Layer_2" data-name="Layer 2"><g id="Layer_1-2" data-name="Layer 1"><rect class="cls-1" x="0.01" y="0.01" width="26.92" height="23.56" rx="1" ry="1"/><path class="cls-2" d="M1,0H25.92a1,1,0,0,1,1,1V4.21a0,0,0,0,1,0,0H0a0,0,0,0,1,0,0V1A1,1,0,0,1,1,0Z"/><circle class="cls-3" cx="18.33" cy="2.11" r="0.66"/><circle class="cls-4" cx="21.45" cy="2.11" r="0.66"/><circle class="cls-5" cx="24.58" cy="2.1" r="0.66"/><path class="cls-6" d="M2.28,9.25h.43v2.92H2.28Z"/><path class="cls-6" d="M5.32,10.17v2H4.89v-.29a.82.82,0,0,1-.7.34,1.05,1.05,0,0,1,0-2.1.83.83,0,0,1,.7.34v-.28Zm-.43,1a.63.63,0,1,0-.63.64A.62.62,0,0,0,4.89,11.17Z"/><path class="cls-6" d="M7,10.13v.47a.53.53,0,0,0-.62.56v1H5.93v-2h.43v.34A.63.63,0,0,1,7,10.13Z"/><path class="cls-6" d="M9.32,10.17v2H8.89v-.29a.82.82,0,0,1-.7.34,1.05,1.05,0,0,1,0-2.1.83.83,0,0,1,.7.34v-.28Zm-.43,1a.63.63,0,1,0-.63.64A.62.62,0,0,0,8.89,11.17Z"/><path class="cls-6" d="M11.75,10.17l-.78,2h-.5l-.78-2h.47l.56,1.52.56-1.52Z"/><path class="cls-6" d="M13,11.82a.61.61,0,0,0,.52-.25l.36.21a1,1,0,0,1-.87.44,1.05,1.05,0,1,1,0-2.1,1,1,0,0,1,1,1.06,1.33,1.33,0,0,1,0,.18H12.38A.6.6,0,0,0,13,11.82Zm.53-.82a.56.56,0,0,0-.57-.49.58.58,0,0,0-.6.49Z"/><path class="cls-6" d="M14.47,9.25h.43v2.92h-.43Z"/><rect class="cls-7" x="19.49" y="13.57" width="14.38" height="14.38" rx="2.72" ry="2.72"/><path class="cls-8" d="M28.51,25.26c.11.16.18.15.27.11l4.72-1.6c.14,0,.09-.09,0-.16S32,21.5,31.93,21.38s-.11-.09-.23-.06l-4.76,1.24s1.46,2.53,1.57,2.69Z"/><path class="cls-8" d="M33.88,23.19V20.8l-1.48.39,1.48,2Z"/><path class="cls-8" d="M32.39,18.27l-1.8.32c-.1,0-.07.07,0,.13l1.43,2,1.86-.46h0V20l-1.26-1.6c-.09-.12-.15-.1-.23-.09Z"/><path class="cls-8" d="M22.16,15.18c.35,0,.38.06.54.29L26.58,22l4.89-1.17-1.62-2.29c-.13-.19,0-.27.22-.31l2.25-.37c.16,0,.29-.08.55.23l1,1.25v-3a2.7,2.7,0,0,0-2.7-2.7h-9a2.6,2.6,0,0,0-1.91.79,2.65,2.65,0,0,0-.65,1l2.52-.2Z"/><path class="cls-8" d="M28.95,26.13c-.41.12-.6.19-.87-.19s-1.29-2.24-1.82-3.2l-3.39.87a.66.66,0,0,1-.83-.38l-2.55-5.53v7.55a2.7,2.7,0,0,0,2.7,2.7h9a2.7,2.7,0,0,0,2.7-2.7v-.89c-1.1.4-4.65,1.68-4.93,1.76Z"/><path class="cls-8" d="M22.89,22.86l2.94-.7c.06,0,.1,0,0-.15l-3.65-6.3c0-.06,0-.08-.11-.07l-2.58.22a2.87,2.87,0,0,0,0,.3c.48,1,3.21,6.62,3.23,6.67s0,.07.16,0Z"/><path class="cls-9" d="M2.49,15v.49H3.2v.28H2.49v.71H2.2V14.68h1V15Z"/><path class="cls-9" d="M3.47,15.8a.66.66,0,1,1,.66.66A.65.65,0,0,1,3.47,15.8Zm1.05,0a.39.39,0,1,0-.39.4A.38.38,0,0,0,4.52,15.8Z"/><path class="cls-9" d="M5.75,15.15v.29a.33.33,0,0,0-.39.35v.63H5.1V15.18h.27v.21A.39.39,0,0,1,5.75,15.15Z"/><path class="cls-9" d="M7.22,15.18v1.19a.59.59,0,0,1-.64.59.62.62,0,0,1-.59-.3l.23-.14a.36.36,0,0,0,.37.19A.33.33,0,0,0,7,16.37v-.15a.51.51,0,0,1-.44.22.65.65,0,0,1,0-1.29.51.51,0,0,1,.44.22v-.18ZM7,15.79a.4.4,0,1,0-.4.39A.39.39,0,0,0,7,15.79Z"/><path class="cls-9" d="M8.21,16.21a.38.38,0,0,0,.32-.16l.22.13a.63.63,0,0,1-.55.27.66.66,0,1,1,0-1.32.63.63,0,0,1,.63.66.84.84,0,0,1,0,.11h-1A.38.38,0,0,0,8.21,16.21Zm.33-.52a.35.35,0,0,0-.36-.31.36.36,0,0,0-.38.31Z"/></g></g></svg>