<svg xmlns="http://www.w3.org/2000/svg" viewBox="0 0 34.12 29.74"><defs><style>.cls-1{fill:#223570;}.cls-2{fill:#16224d;}.cls-3{fill:#df3d7b;}.cls-4{fill:#f9b25f;}.cls-10,.cls-5{fill:#fff;}.cls-6{fill:#42e0be;}.cls-7{fill:#f2f1f0;}.cls-8{fill:#202b3c;}.cls-9{fill:#ff9a00;fill-rule:evenodd;}.cls-10{opacity:0.33;}</style></defs><title>s4</title><g id="Layer_2" data-name="Layer 2"><g id="Layer_1-2" data-name="Layer 1"><rect class="cls-1" x="0.01" y="0.01" width="26.92" height="23.56" rx="1" ry="1"/><path class="cls-2" d="M1,0H25.92a1,1,0,0,1,1,1V4.21a0,0,0,0,1,0,0H0a0,0,0,0,1,0,0V1A1,1,0,0,1,1,0Z"/><circle class="cls-3" cx="18.33" cy="2.11" r="0.66"/><circle class="cls-4" cx="21.45" cy="2.11" r="0.66"/><path class="cls-5" d="M4.79,11.09H3.59l-.2.56H2.9l1-2.8h.55l1,2.8H5Zm-.15-.43L4.19,9.39l-.44,1.26Z"/><path class="cls-5" d="M5.52,8.85H6L6.59,11l.64-2.19h.42L8.28,11l.59-2.19h.48l-.79,2.8H8l-.59-2-.6,2H6.31Z"/><path class="cls-5" d="M9.59,11l.4-.23a.67.67,0,0,0,.7.47c.36,0,.52-.16.52-.37s-.22-.33-.64-.46-.86-.29-.86-.82a.83.83,0,0,1,.9-.81,1,1,0,0,1,1,.62l-.39.22a.6.6,0,0,0-.59-.39c-.27,0-.44.14-.44.35s.16.31.56.44.93.29.93.85-.41.82-1,.82A1.06,1.06,0,0,1,9.59,11Z"/><circle class="cls-6" cx="24.58" cy="2.11" r="0.66"/><circle class="cls-7" cx="26.93" cy="22.55" r="7.19"/><path class="cls-8" d="M24.74,22.1a.91.91,0,0,0,0,.3,1.42,1.42,0,0,0,.11.24.15.15,0,0,1,0,.08.13.13,0,0,1-.07.1l-.21.14a.16.16,0,0,1-.09,0,.14.14,0,0,1-.1,0,.77.77,0,0,1-.12-.16l-.1-.19a1.23,1.23,0,0,1-1,.46.91.91,0,0,1-.67-.24.86.86,0,0,1-.24-.64.85.85,0,0,1,.3-.68,1.21,1.21,0,0,1,.81-.26l.35,0,.38.07v-.24a.73.73,0,0,0-.16-.52.76.76,0,0,0-.54-.16,1.58,1.58,0,0,0-.36,0l-.36.11-.11,0H22.6s-.07,0-.07-.1v-.16a.22.22,0,0,1,0-.12.26.26,0,0,1,.09-.07,2.38,2.38,0,0,1,.42-.15,2.08,2.08,0,0,1,.52-.06,1.2,1.2,0,0,1,.87.26,1.09,1.09,0,0,1,.28.82Zm-1.35.51a1,1,0,0,0,.34-.06.73.73,0,0,0,.32-.21.54.54,0,0,0,.11-.21,1.17,1.17,0,0,0,0-.29v-.14l-.31-.05-.31,0a.76.76,0,0,0-.49.14.46.46,0,0,0-.16.38.48.48,0,0,0,.12.35A.48.48,0,0,0,23.39,22.6Zm2.67.36a.21.21,0,0,1-.13,0,.24.24,0,0,1-.07-.13l-.78-2.58a.65.65,0,0,1,0-.13.07.07,0,0,1,.06-.08h.34a.21.21,0,0,1,.13,0,.29.29,0,0,1,.07.13l.57,2.2.52-2.2a.26.26,0,0,1,.07-.13.22.22,0,0,1,.13,0h.26a.23.23,0,0,1,.14,0,.26.26,0,0,1,.06.13l.52,2.23.58-2.23a.29.29,0,0,1,.07-.13.21.21,0,0,1,.13,0H29a.07.07,0,0,1,.08.08.48.48,0,0,1,0,.05l0,.08-.81,2.57a.24.24,0,0,1-.07.13A.2.2,0,0,1,28,23h-.26a.21.21,0,0,1-.14,0,.24.24,0,0,1-.06-.14l-.52-2.14-.52,2.14a.26.26,0,0,1-.07.14.2.2,0,0,1-.13,0Zm4.28.09a2.25,2.25,0,0,1-.52-.06,1.59,1.59,0,0,1-.39-.13.22.22,0,0,1-.1-.09.24.24,0,0,1,0-.09V22.5c0-.07,0-.1.08-.1h.06l.08,0a2,2,0,0,0,.37.12,2.06,2.06,0,0,0,.4,0,.91.91,0,0,0,.49-.11.35.35,0,0,0,.18-.3.32.32,0,0,0-.09-.23.86.86,0,0,0-.33-.17l-.48-.15a1,1,0,0,1-.52-.34.8.8,0,0,1-.18-.48.74.74,0,0,1,.09-.37.93.93,0,0,1,.24-.26A1,1,0,0,1,30,20a1.48,1.48,0,0,1,.42-.06h.22a1,1,0,0,1,.22,0l.19.05.14.06a.35.35,0,0,1,.1.08.19.19,0,0,1,0,.11v.16c0,.07,0,.11-.08.11l-.13,0a1.54,1.54,0,0,0-.64-.13.87.87,0,0,0-.44.09A.35.35,0,0,0,30,21l0,0a1,1,0,0,0,.37.18l.47.15a1,1,0,0,1,.52.32.74.74,0,0,1,.15.47.86.86,0,0,1-.08.39.94.94,0,0,1-.26.29,1.1,1.1,0,0,1-.37.18,1.6,1.6,0,0,1-.47.07Z"/><path class="cls-9" d="M31,24.67a7.16,7.16,0,0,1-4.05,1.24A7.33,7.33,0,0,1,22,24c-.1-.09,0-.22.11-.15A10,10,0,0,0,27,25.19a9.85,9.85,0,0,0,3.78-.78C31,24.33,31.15,24.54,31,24.67Z"/><path class="cls-9" d="M31.43,24.15c-.14-.18-.93-.08-1.28,0-.11,0-.12-.08,0-.15a2,2,0,0,1,1.77-.17,2,2,0,0,1-.62,1.67c-.09.08-.17,0-.14-.07C31.27,25.07,31.56,24.33,31.43,24.15Z"/><path class="cls-10" d="M3,14.82a.89.89,0,0,1,.92-.91.86.86,0,0,1,.75.42l-.25.15a.56.56,0,0,0-.5-.28.63.63,0,1,0,0,1.26.56.56,0,0,0,.5-.28l.25.14a.86.86,0,0,1-.75.42A.89.89,0,0,1,3,14.82Z"/><path class="cls-10" d="M4.93,13.87H5.2V15.7H4.93Z"/><path class="cls-10" d="M5.5,15.07a.66.66,0,1,1,.66.66A.65.65,0,0,1,5.5,15.07Zm1.05,0a.39.39,0,1,0-.39.4A.38.38,0,0,0,6.55,15.07Z"/><path class="cls-10" d="M8.24,14.45V15.7H8v-.16a.43.43,0,0,1-.39.19.47.47,0,0,1-.48-.52v-.77h.27v.74a.26.26,0,0,0,.28.29c.18,0,.32-.1.32-.36v-.67Z"/><path class="cls-10" d="M9.88,13.95V15.7H9.61v-.18a.51.51,0,0,1-.44.21.66.66,0,0,1,0-1.32.52.52,0,0,1,.44.21v-.68Zm-.27,1.13a.4.4,0,1,0-.4.4A.39.39,0,0,0,9.61,15.07Z"/><path class="cls-10" d="M10.87,15.3l.25-.15a.42.42,0,0,0,.44.29c.23,0,.33-.1.33-.23s-.14-.21-.4-.29-.54-.18-.54-.51a.52.52,0,0,1,.56-.51.65.65,0,0,1,.61.39l-.24.14a.38.38,0,0,0-.37-.25c-.17,0-.27.08-.27.22s.1.19.35.27.58.18.58.53-.25.52-.62.52A.67.67,0,0,1,10.87,15.3Z"/><path class="cls-10" d="M13.11,15.48a.38.38,0,0,0,.32-.16l.22.13a.63.63,0,0,1-.55.27.66.66,0,1,1,0-1.32.63.63,0,0,1,.63.66.84.84,0,0,1,0,.11h-1A.38.38,0,0,0,13.11,15.48Zm.33-.52a.35.35,0,0,0-.36-.31.36.36,0,0,0-.38.31Z"/><path class="cls-10" d="M14.67,14.43v.29a.33.33,0,0,0-.39.35v.63H14V14.45h.27v.21A.39.39,0,0,1,14.67,14.43Z"/><path class="cls-10" d="M16.07,14.45l-.49,1.25h-.31l-.49-1.25h.29l.35,1,.35-1Z"/><path class="cls-10" d="M16.27,14.09a.17.17,0,0,1,.35,0,.17.17,0,0,1-.35,0Zm0,.36h.27V15.7H16.3Z"/><path class="cls-10" d="M16.88,15.07a.65.65,0,0,1,.66-.66.62.62,0,0,1,.56.32l-.23.13a.35.35,0,0,0-.33-.19.39.39,0,0,0,0,.79.37.37,0,0,0,.33-.19l.23.13a.63.63,0,0,1-.56.33A.65.65,0,0,1,16.88,15.07Z"/><path class="cls-10" d="M19,15.48a.38.38,0,0,0,.32-.16l.22.13a.63.63,0,0,1-.55.27.66.66,0,1,1,0-1.32.63.63,0,0,1,.63.66.84.84,0,0,1,0,.11h-1A.38.38,0,0,0,19,15.48Zm.33-.52a.35.35,0,0,0-.36-.31.36.36,0,0,0-.38.31Z"/></g></g></svg>