<?xml version="1.0" encoding="utf-8"?>
<!-- Generator: Adobe Illustrator 21.0.2, SVG Export Plug-In . SVG Version: 6.00 Build 0)  -->
<svg version="1.1" id="Layer_1" xmlns="http://www.w3.org/2000/svg" xmlns:xlink="http://www.w3.org/1999/xlink" x="0px" y="0px"
	 viewBox="0 0 34.1 29.7" style="enable-background:new 0 0 34.1 29.7;" xml:space="preserve">
<style type="text/css">
	.st0{fill:#223570;}
	.st1{fill:#16224D;}
	.st2{fill:#DF3D7B;}
	.st3{fill:#F9B25F;}
	.st4{fill:#FFFFFF;}
	.st5{fill:#42E0BE;}
	.st6{fill:#F2F1F0;}
	.st7{opacity:0.33;fill:#FFFFFF;enable-background:new    ;}
	.st8{fill:#F48120;}
	.st9{fill:#FAAD3F;}
</style>
<title>s7</title>
<path class="st0" d="M1,0h24.9c0.6,0,1,0.4,1,1v21.6c0,0.6-0.4,1-1,1H1c-0.6,0-1-0.4-1-1V1C0,0.5,0.5,0,1,0z"/>
<path class="st1" d="M1,0h24.9c0.6,0,1,0.4,1,1v3.2l0,0H0l0,0V1C0,0.4,0.4,0,1,0z"/>
<circle class="st2" cx="18.3" cy="2.1" r="0.7"/>
<circle class="st3" cx="21.5" cy="2.1" r="0.7"/>
<path class="st4" d="M2,10.2c0-0.7,0.5-1.3,1.2-1.3c0,0,0,0,0.1,0c0.4,0,0.8,0.2,1,0.6L4,9.7C3.9,9.4,3.6,9.3,3.3,9.3
	c-0.5-0.1-0.9,0.3-1,0.8c-0.1,0.5,0.3,0.9,0.8,1c0.1,0,0.1,0,0.2,0c0.3,0,0.6-0.1,0.7-0.4l0.3,0.2c-0.2,0.4-0.6,0.6-1,0.6
	C2.6,11.5,2,10.9,2,10.2C2,10.2,2,10.2,2,10.2z"/>
<path class="st4" d="M4.8,8.8h0.4v2.6H4.8V8.8z"/>
<path class="st4" d="M5.6,10.5C5.6,10,6,9.6,6.5,9.6s0.9,0.4,0.9,0.9c0,0.5-0.4,0.9-0.9,0.9C6,11.4,5.6,11,5.6,10.5
	C5.5,10.5,5.5,10.5,5.6,10.5z M7,10.5C7,10.2,6.8,10,6.5,10s-0.5,0.3-0.5,0.5c0,0.3,0.2,0.5,0.5,0.5C6.8,11,7,10.8,7,10.5L7,10.5z"
	/>
<path class="st4" d="M9.4,9.6v1.8H9v-0.2c-0.1,0.2-0.3,0.3-0.5,0.3c-0.4,0-0.7-0.3-0.7-0.6c0,0,0-0.1,0-0.1V9.6h0.4v1
	c0,0.2,0.1,0.4,0.3,0.4c0,0,0.1,0,0.1,0c0.3,0,0.4-0.1,0.4-0.5V9.6H9.4z"/>
<path class="st4" d="M11.7,8.9v2.4h-0.4v-0.3c-0.1,0.2-0.4,0.3-0.6,0.3c-0.5,0-0.9-0.4-0.9-0.9s0.4-0.9,0.9-0.9
	c0.2,0,0.5,0.1,0.6,0.3V8.9H11.7z M11.3,10.5c0-0.3-0.3-0.5-0.6-0.5c-0.3,0-0.5,0.3-0.5,0.6c0,0.3,0.2,0.5,0.5,0.5
	C11,11.1,11.3,10.8,11.3,10.5C11.3,10.5,11.3,10.5,11.3,10.5z"/>
<path class="st4" d="M13.7,9v2.4h-0.4V9.2h-0.2c-0.3,0-0.4,0.1-0.4,0.4l0,0H13V10h-0.3v1.4h-0.4V10H12V9.6h0.3l0,0
	c0-0.5,0.3-0.7,0.8-0.7C13.3,8.9,13.5,9,13.7,9z"/>
<path class="st4" d="M16,9.6v1.8h-0.4v-0.3c-0.1,0.2-0.4,0.3-0.6,0.3c-0.5,0-0.9-0.4-0.9-0.9s0.4-0.9,0.9-0.9c0.2,0,0.5,0.1,0.6,0.3
	V9.6H16z M15.6,10.5c0-0.3-0.3-0.5-0.6-0.5c-0.3,0-0.5,0.3-0.5,0.6c0,0.3,0.2,0.5,0.5,0.5C15.4,11.1,15.6,10.8,15.6,10.5L15.6,10.5z
	"/>
<path class="st4" d="M17.4,9.6V10c-0.3,0-0.5,0.1-0.5,0.4c0,0,0,0.1,0,0.1v0.9h-0.4V9.6h0.4v0.3C17,9.7,17.2,9.6,17.4,9.6z"/>
<path class="st4" d="M18.5,11.1c0.2,0,0.3-0.1,0.5-0.2l0.3,0.2c-0.2,0.3-0.5,0.4-0.8,0.4c-0.5,0-0.9-0.4-0.9-0.9s0.4-0.9,0.9-0.9
	c0.5,0,0.9,0.4,0.9,0.9c0,0,0,0,0,0c0,0.1,0,0.1,0,0.2H18C18.1,10.9,18.3,11.1,18.5,11.1z M19,10.4c0-0.3-0.2-0.4-0.5-0.4
	c-0.3,0-0.5,0.2-0.5,0.4H19z"/>
<circle class="st5" cx="24.6" cy="2.1" r="0.7"/>
<circle class="st6" cx="26.9" cy="22.5" r="7.2"/>
<path class="st7" d="M3.6,14.1c0,0.5-0.3,0.9-0.8,0.9c0,0,0,0,0,0H2v-1.8h0.7C3.2,13.2,3.6,13.6,3.6,14.1
	C3.6,14.1,3.6,14.1,3.6,14.1z M3.3,14.1c0-0.3-0.2-0.6-0.5-0.6c0,0,0,0,0,0H2.3v1.2h0.4C3,14.7,3.3,14.4,3.3,14.1
	C3.3,14.1,3.3,14.1,3.3,14.1z"/>
<path class="st7" d="M4.5,14.8c0.1,0,0.2-0.1,0.3-0.2L5,14.7C4.9,14.9,4.7,15,4.5,15c-0.4,0-0.7-0.3-0.7-0.7c0-0.4,0.3-0.7,0.7-0.7
	c0,0,0,0,0,0c0.3,0,0.6,0.3,0.6,0.6c0,0,0,0,0,0c0,0,0,0.1,0,0.1h-1C4.2,14.6,4.3,14.8,4.5,14.8z M4.8,14.2c0-0.2-0.2-0.3-0.4-0.3
	c-0.2,0-0.4,0.1-0.4,0.3H4.8z"/>
<path class="st7" d="M5.4,13.1h0.3V15H5.4V13.1z"/>
<path class="st7" d="M6,13.4c0-0.1,0.1-0.2,0.2-0.2c0.1,0,0.2,0.1,0.2,0.2s-0.1,0.2-0.2,0.2C6.1,13.5,6,13.5,6,13.4L6,13.4z M6,13.7
	h0.3V15H6V13.7z"/>
<path class="st7" d="M7.8,13.7L7.3,15H7l-0.5-1.3h0.3l0.3,1l0.3-1L7.8,13.7z"/>
<path class="st7" d="M8.6,14.8c0.1,0,0.3,0,0.4-0.2l0.2,0.1C9.1,14.9,8.9,15,8.7,15C8.3,15,8,14.7,8,14.3s0.3-0.7,0.7-0.7
	c0,0,0,0,0,0c0.3,0,0.6,0.3,0.6,0.6c0,0,0,0,0,0c0,0,0,0.1,0,0.1h-1C8.3,14.6,8.5,14.7,8.6,14.8z M9,14.2c0-0.2-0.2-0.3-0.4-0.3
	c-0.2,0-0.4,0.1-0.4,0.3H9z"/>
<path class="st7" d="M10.2,13.7V14c-0.2,0-0.4,0.1-0.4,0.3c0,0,0,0.1,0,0.1V15H9.5v-1.3h0.3v0.2C9.9,13.8,10,13.7,10.2,13.7z"/>
<path class="st7" d="M11.6,13.7L11.1,15c-0.1,0.3-0.3,0.5-0.6,0.5v-0.3c0.2,0,0.3-0.1,0.3-0.3l0,0l-0.5-1.2h0.3l0.4,0.9l0.3-0.9
	L11.6,13.7z"/>
<path class="st7" d="M13.9,13.2V15h-0.2l-0.8-1.2V15h-0.3v-1.8h0.2l0.8,1.2v-1.2H13.9z"/>
<path class="st7" d="M14.9,14.8c0.1,0,0.2-0.1,0.3-0.2l0.2,0.1c-0.1,0.2-0.3,0.3-0.6,0.3c-0.4,0-0.7-0.3-0.7-0.7s0.3-0.7,0.7-0.7
	c0,0,0,0,0,0c0.3,0,0.6,0.3,0.6,0.6c0,0,0,0,0,0c0,0,0,0.1,0,0.1h-1C14.5,14.6,14.7,14.8,14.9,14.8z M15.2,14.2
	c0-0.2-0.2-0.3-0.4-0.3c-0.2,0-0.4,0.1-0.4,0.3H15.2z"/>
<path class="st7" d="M16.1,14v0.6c0,0.2,0.1,0.2,0.3,0.1V15c-0.4,0-0.6-0.1-0.6-0.4V14h-0.2v-0.3h0.2v-0.3l0.3-0.1v0.4h0.3V14H16.1z
	"/>
<path class="st7" d="M18.5,13.7L18.1,15h-0.3l-0.3-0.8L17.3,15H17l-0.4-1.3H17l0.2,0.9l0.3-0.9h0.3l0.3,0.9l0.3-0.9L18.5,13.7z"/>
<path class="st7" d="M18.6,14.3c0-0.4,0.3-0.7,0.7-0.7S20,14,20,14.3c0,0.4-0.3,0.7-0.7,0.7l0,0C18.9,15,18.6,14.7,18.6,14.3
	C18.6,14.4,18.6,14.3,18.6,14.3z M19.7,14.3c0-0.2-0.2-0.4-0.4-0.4s-0.4,0.2-0.4,0.4c0,0.2,0.2,0.4,0.4,0.4
	C19.5,14.7,19.7,14.6,19.7,14.3C19.7,14.4,19.7,14.4,19.7,14.3z"/>
<path class="st7" d="M20.9,13.7V14c-0.2,0-0.4,0.1-0.4,0.3c0,0,0,0.1,0,0.1V15h-0.3v-1.3h0.3v0.2C20.6,13.8,20.8,13.7,20.9,13.7z"/>
<path class="st7" d="M22,15l-0.5-0.6V15h-0.3v-1.8h0.3v1.1l0.5-0.6h0.3l-0.5,0.6l0.6,0.6L22,15z"/>
<path class="st4" d="M31.6,21.6l-1.3-0.3l-0.2-0.1l-5.8,0V24l7.3,0L31.6,21.6z"/>
<path class="st8" d="M29.2,23.8c0.1-0.2,0-0.5-0.1-0.6c-0.1-0.1-0.3-0.2-0.5-0.2l-3.9,0c0,0,0,0-0.1,0c0,0,0,0,0-0.1
	c0,0,0-0.1,0.1-0.1l3.9,0c0.5,0,1-0.4,1.1-0.9l0.2-0.6c0,0,0,0,0-0.1c-0.2-1.1-1.3-2-2.5-2c-1.1,0-2.1,0.7-2.4,1.7
	c-0.2-0.2-0.5-0.2-0.8-0.2c-0.5,0-1,0.5-1,1c0,0.1,0,0.3,0,0.4c-0.9,0-1.6,0.7-1.6,1.6c0,0.1,0,0.2,0,0.2c0,0,0,0.1,0.1,0.1h7.2
	c0,0,0.1,0,0.1-0.1L29.2,23.8z"/>
<path class="st9" d="M30.5,21.2h-0.1c0,0,0,0-0.1,0l-0.2,0.5c-0.1,0.2,0,0.5,0.1,0.6c0.1,0.1,0.3,0.2,0.5,0.2l0.8,0c0,0,0,0,0.1,0
	c0,0,0,0,0,0.1c0,0,0,0.1-0.1,0.1l-0.9,0c-0.5,0-1,0.4-1.1,0.9l0,0.2c0,0,0,0.1,0,0.1h3c0,0,0.1,0,0.1-0.1c0-0.2,0.1-0.4,0.1-0.6
	C32.6,22.2,31.7,21.2,30.5,21.2"/>
</svg>
