<svg xmlns="http://www.w3.org/2000/svg" viewBox="0 0 34.12 29.74"><defs><style>.cls-1{fill:#223570;}.cls-2{fill:#16224d;}.cls-3{fill:#df3d7b;}.cls-4{fill:#f9b25f;}.cls-5{fill:#42e0be;}.cls-6,.cls-8,.cls-9{fill:#fff;}.cls-7{fill:#6772e5;}.cls-8{fill-rule:evenodd;}.cls-9{opacity:0.33;}</style></defs><title>i1</title><g id="Layer_2" data-name="Layer 2"><g id="Layer_1-2" data-name="Layer 1"><rect class="cls-1" x="0.01" y="0.01" width="26.92" height="23.56" rx="1" ry="1"/><path class="cls-2" d="M1,0H25.92a1,1,0,0,1,1,1V4.21a0,0,0,0,1,0,0H0a0,0,0,0,1,0,0V1A1,1,0,0,1,1,0Z"/><circle class="cls-3" cx="18.33" cy="2.11" r="0.66"/><circle class="cls-4" cx="21.45" cy="2.11" r="0.66"/><circle class="cls-5" cx="24.58" cy="2.1" r="0.66"/><path class="cls-6" d="M2.66,12l.4-.23a.67.67,0,0,0,.7.47c.36,0,.52-.16.52-.37s-.22-.33-.64-.46-.86-.29-.86-.82a.83.83,0,0,1,.9-.81,1,1,0,0,1,1,.62l-.39.22a.6.6,0,0,0-.59-.39c-.27,0-.44.14-.44.35s.16.31.56.44.93.29.93.85-.41.82-1,.82A1.06,1.06,0,0,1,2.66,12Z"/><path class="cls-6" d="M5.76,11v1c0,.26.17.25.5.24v.39c-.66.08-.93-.1-.93-.62V11H5v-.42h.37V10.2l.43-.13v.56h.5V11Z"/><path class="cls-6" d="M7.82,10.59v.47a.53.53,0,0,0-.62.56v1H6.77v-2H7.2V11A.63.63,0,0,1,7.82,10.59Z"/><path class="cls-6" d="M8.18,10.05a.28.28,0,1,1,.28.28A.28.28,0,0,1,8.18,10.05Zm.06.58h.43v2H8.24Z"/><path class="cls-6" d="M11.4,11.63a1,1,0,0,1-1,1.05.83.83,0,0,1-.7-.34v1.08H9.27v-2.8H9.7v.29a.82.82,0,0,1,.7-.34A1,1,0,0,1,11.4,11.63Zm-.43,0a.63.63,0,1,0-.63.64A.62.62,0,0,0,11,11.63Z"/><path class="cls-6" d="M12.87,12.28a.61.61,0,0,0,.52-.25l.36.21a1,1,0,0,1-.87.44,1.05,1.05,0,1,1,0-2.1,1,1,0,0,1,1,1.06,1.33,1.33,0,0,1,0,.18H12.23A.6.6,0,0,0,12.87,12.28Zm.53-.82a.56.56,0,0,0-.57-.49.58.58,0,0,0-.6.49Z"/><circle class="cls-7" cx="26.93" cy="22.55" r="7.19"/><path class="cls-8" d="M32,22.62c0-.72-.35-1.29-1-1.29a1.14,1.14,0,0,0-1.07,1.28,1.12,1.12,0,0,0,1.16,1.27,1.57,1.57,0,0,0,.78-.18v-.56a1.49,1.49,0,0,1-.69.15c-.27,0-.51-.1-.54-.43H32S32,22.69,32,22.62Zm-1.39-.27c0-.32.19-.45.37-.45s.35.13.35.45Z"/><path class="cls-8" d="M28.82,21.34a.79.79,0,0,0-.55.22l0-.17h-.62v3.27l.7-.15v-.79a.79.79,0,0,0,.5.18c.5,0,1-.4,1-1.29S29.31,21.34,28.82,21.34Zm-.17,1.93a.42.42,0,0,1-.33-.13v-1a.42.42,0,0,1,.33-.14c.26,0,.43.29.43.65S28.91,23.27,28.65,23.27Z"/><polygon class="cls-8" points="26.64 21.17 27.35 21.02 27.35 20.45 26.64 20.6 26.64 21.17"/><rect class="cls-6" x="26.65" y="21.38" width="0.7" height="2.46"/><path class="cls-8" d="M25.89,21.59l0-.21h-.61v2.46h.7V22.17a.5.5,0,0,1,.53-.15v-.65A.48.48,0,0,0,25.89,21.59Z"/><path class="cls-8" d="M24.49,20.77l-.69.15v2.25a.71.71,0,0,0,.73.72A1.08,1.08,0,0,0,25,23.8v-.57c-.09,0-.53.17-.53-.25V22H25v-.6h-.53Z"/><path class="cls-8" d="M22.59,22.1c0-.11.09-.15.24-.15a1.57,1.57,0,0,1,.7.18v-.66a1.85,1.85,0,0,0-.7-.13c-.57,0-.95.3-.95.79,0,.78,1.07.65,1.07,1,0,.13-.11.17-.27.17a1.75,1.75,0,0,1-.77-.22v.67a2,2,0,0,0,.77.16c.58,0,1-.29,1-.79C23.66,22.26,22.59,22.41,22.59,22.1Z"/><path class="cls-9" d="M3.72,17.14H3l-.12.35H2.54l.64-1.75h.34l.63,1.75H3.85Zm-.09-.27-.28-.79-.28.79Z"/><path class="cls-9" d="M5.63,16.31a.57.57,0,0,1-.58.58H4.69v.6H4.4V15.74H5A.57.57,0,0,1,5.63,16.31Zm-.29,0A.29.29,0,0,0,5,16H4.69v.61H5A.29.29,0,0,0,5.34,16.31Z"/><path class="cls-9" d="M6.23,15.74v1.75H5.94V15.74Z"/></g></g></svg>