<svg xmlns="http://www.w3.org/2000/svg" xmlns:xlink="http://www.w3.org/1999/xlink" viewBox="0 0 32.77 27.83"><defs><style>.cls-1,.cls-2,.cls-7{fill:#fff;}.cls-1{fill-rule:evenodd;}.cls-3{fill:#223570;}.cls-4{fill:#16224d;}.cls-5{fill:#df3d7b;}.cls-6{fill:#f9b25f;}.cls-7{opacity:0.33;}.cls-8{fill:#42e0be;}.cls-9{fill:url(#linear-gradient);}</style><linearGradient id="linear-gradient" x1="375.71" y1="-625.48" x2="375.91" y2="-625.68" gradientTransform="translate(-35316.54 58871.79) scale(94.04 94.07)" gradientUnits="userSpaceOnUse"><stop offset="0" stop-color="#00aeff"/><stop offset="1" stop-color="#3369e7"/></linearGradient></defs><title>i2</title><g id="Layer_2" data-name="Layer 2"><g id="Layer_1-2" data-name="Layer 1"><path class="cls-1" d="M32,22.62c0-.72-.35-1.29-1-1.29a1.14,1.14,0,0,0-1.07,1.28,1.12,1.12,0,0,0,1.16,1.27,1.57,1.57,0,0,0,.78-.18v-.56a1.49,1.49,0,0,1-.69.15c-.27,0-.51-.1-.54-.43H32S32,22.69,32,22.62Zm-1.39-.27c0-.32.19-.45.37-.45s.35.13.35.45Z"/><path class="cls-1" d="M28.82,21.34a.79.79,0,0,0-.55.22l0-.17h-.62v3.27l.7-.15v-.79a.79.79,0,0,0,.5.18c.5,0,1-.4,1-1.29S29.31,21.34,28.82,21.34Zm-.17,1.93a.42.42,0,0,1-.33-.13v-1a.42.42,0,0,1,.33-.14c.26,0,.43.29.43.65S28.91,23.27,28.65,23.27Z"/><polygon class="cls-1" points="26.64 21.17 27.35 21.02 27.35 20.45 26.64 20.6 26.64 21.17"/><rect class="cls-2" x="26.65" y="21.38" width="0.7" height="2.46"/><path class="cls-1" d="M25.89,21.59l0-.21h-.61v2.46h.7V22.17a.5.5,0,0,1,.53-.15v-.65A.48.48,0,0,0,25.89,21.59Z"/><path class="cls-1" d="M24.49,20.77l-.69.15v2.25a.71.71,0,0,0,.73.72A1.08,1.08,0,0,0,25,23.8v-.57c-.09,0-.53.17-.53-.25V22H25v-.6h-.53Z"/><path class="cls-1" d="M22.59,22.1c0-.11.09-.15.24-.15a1.57,1.57,0,0,1,.7.18v-.66a1.85,1.85,0,0,0-.7-.13c-.57,0-.95.3-.95.79,0,.78,1.07.65,1.07,1,0,.13-.11.17-.27.17a1.75,1.75,0,0,1-.77-.22v.67a2,2,0,0,0,.77.16c.58,0,1-.29,1-.79C23.66,22.26,22.59,22.41,22.59,22.1Z"/><rect class="cls-3" x="0.01" y="0.01" width="26.92" height="23.56" rx="1" ry="1"/><path class="cls-4" d="M1,0H25.92a1,1,0,0,1,1,1V4.21a0,0,0,0,1,0,0H0a0,0,0,0,1,0,0V1A1,1,0,0,1,1,0Z"/><circle class="cls-5" cx="18.33" cy="2.11" r="0.66"/><circle class="cls-6" cx="21.45" cy="2.11" r="0.66"/><path class="cls-2" d="M4.44,12.06H3.24l-.2.56h-.5l1-2.8h.55l1,2.8h-.5Zm-.15-.43-.44-1.26L3.4,11.63Z"/><path class="cls-2" d="M5.5,9.71h.43v2.92H5.5Z"/><path class="cls-2" d="M8.55,10.63v1.91a.94.94,0,0,1-1,.94A1,1,0,0,1,6.57,13l.37-.22a.57.57,0,0,0,.58.31.53.53,0,0,0,.6-.55v-.24a.81.81,0,0,1-.7.35,1,1,0,0,1,0-2.06.81.81,0,0,1,.7.35v-.3Zm-.42,1a.64.64,0,1,0-.64.63A.62.62,0,0,0,8.12,11.61Z"/><path class="cls-2" d="M9,11.63a1.06,1.06,0,1,1,1.06,1.05A1,1,0,0,1,9,11.63Zm1.68,0a.62.62,0,1,0-.62.63A.61.61,0,0,0,10.72,11.63Z"/><path class="cls-2" d="M11.65,9.71h.43v2.92h-.43Z"/><path class="cls-2" d="M12.62,10.05a.28.28,0,1,1,.28.28A.28.28,0,0,1,12.62,10.05Zm.06.58h.43v2h-.43Z"/><path class="cls-2" d="M15.72,10.63v2h-.43v-.29a.82.82,0,0,1-.7.34,1.05,1.05,0,0,1,0-2.1.83.83,0,0,1,.7.34v-.28Zm-.43,1a.63.63,0,1,0-.63.64A.62.62,0,0,0,15.29,11.63Z"/><path class="cls-7" d="M2.61,17.09l.25-.15a.42.42,0,0,0,.44.29c.23,0,.33-.1.33-.23s-.14-.21-.4-.29-.54-.18-.54-.51a.52.52,0,0,1,.56-.51.65.65,0,0,1,.61.39l-.24.14A.38.38,0,0,0,3.25,16c-.17,0-.27.08-.27.22s.1.19.35.27.58.18.58.53-.25.52-.62.52A.67.67,0,0,1,2.61,17.09Z"/><path class="cls-7" d="M5.5,16.24v1.25H5.23v-.18a.51.51,0,0,1-.44.21.66.66,0,0,1,0-1.32.52.52,0,0,1,.44.21v-.18Zm-.27.63a.4.4,0,1,0-.4.4A.39.39,0,0,0,5.23,16.86Z"/><path class="cls-7" d="M7.13,16.24v1.25H6.86v-.18a.51.51,0,0,1-.44.21.66.66,0,0,1,0-1.32.52.52,0,0,1,.44.21v-.18Zm-.27.63a.4.4,0,1,0-.4.4A.39.39,0,0,0,6.86,16.86Z"/><path class="cls-7" d="M7.43,17.09l.25-.15a.42.42,0,0,0,.44.29c.23,0,.33-.1.33-.23s-.14-.21-.4-.29-.54-.18-.54-.51a.52.52,0,0,1,.56-.51.65.65,0,0,1,.61.39l-.24.14A.38.38,0,0,0,8.07,16c-.17,0-.27.08-.27.22s.1.19.35.27.58.18.58.53-.25.52-.62.52A.67.67,0,0,1,7.43,17.09Z"/><circle class="cls-8" cx="24.27" cy="2.09" r="0.66"/><path class="cls-9" d="M22.62,16.14h8.61a1.54,1.54,0,0,1,1.54,1.54v8.61a1.54,1.54,0,0,1-1.54,1.54H22.62a1.54,1.54,0,0,1-1.54-1.54V17.67A1.54,1.54,0,0,1,22.62,16.14Z"/><path class="cls-2" d="M27.06,19.09a3.3,3.3,0,1,0,3.3,3.3A3.3,3.3,0,0,0,27.06,19.09Zm0,5.63a2.33,2.33,0,1,1,2.33-2.33A2.33,2.33,0,0,1,27.06,24.72Zm0-4.18v1.73a.07.07,0,0,0,.1.06l1.54-.8a.07.07,0,0,0,0-.1,1.92,1.92,0,0,0-1.6-1A.07.07,0,0,0,27.06,20.54Zm-2.16-1.27-.2-.2a.51.51,0,0,0-.72,0l-.24.24a.51.51,0,0,0,0,.72l.2.2a.07.07,0,0,0,.11,0,3.9,3.9,0,0,1,.39-.45,3.65,3.65,0,0,1,.46-.39A.07.07,0,0,0,24.91,19.27Zm3.24-.52v-.4a.51.51,0,0,0-.51-.51H26.46a.51.51,0,0,0-.51.51v.41a.07.07,0,0,0,.09.07,3.7,3.7,0,0,1,1-.15,3.75,3.75,0,0,1,1,.13A.07.07,0,0,0,28.15,18.75Z"/></g></g></svg>