<svg xmlns="http://www.w3.org/2000/svg" xmlns:xlink="http://www.w3.org/1999/xlink" viewBox="0 0 34.12 29.74"><defs><style>.cls-1{fill:none;}.cls-2{fill:#223570;}.cls-3{fill:#16224d;}.cls-4{fill:#df3d7b;}.cls-5{fill:#f9b25f;}.cls-6,.cls-9{fill:#fff;}.cls-7{fill:#42e0be;}.cls-8{fill:#f2f1f0;}.cls-9{opacity:0.33;}.cls-10{fill:#394d54;}.cls-11{clip-path:url(#clip-path);}.cls-12{fill:#00acd3;}.cls-13{fill:#20c2ef;}.cls-14{fill:#17b5eb;}.cls-15{fill-opacity:0.17;}.cls-16{fill:#d4edf1;}.cls-17{fill-opacity:0.09;}</style><clipPath id="clip-path"><path class="cls-1" d="M24.68,19.48v2h-1v1h-.8v.09a2.7,2.7,0,0,0,.26,1.48l.07.13a2,2,0,0,0,.15.23l.11.16a3.16,3.16,0,0,0,2.44,1,4.89,4.89,0,0,0,4.92-3.18,1.33,1.33,0,0,0,1.41-.59,1.39,1.39,0,0,0-1.24,0l.8-2.29-3.14,2h-1v-2Z"/></clipPath></defs><title>s6</title><g id="Layer_2" data-name="Layer 2"><g id="Layer_1-2" data-name="Layer 1"><rect class="cls-2" x="0.01" y="0.01" width="26.92" height="23.56" rx="1" ry="1"/><path class="cls-3" d="M1,0H25.92a1,1,0,0,1,1,1V4.21a0,0,0,0,1,0,0H0a0,0,0,0,1,0,0V1A1,1,0,0,1,1,0Z"/><circle class="cls-4" cx="18.33" cy="2.11" r="0.66"/><circle class="cls-5" cx="21.45" cy="2.11" r="0.66"/><path class="cls-6" d="M5.6,10.08a1.35,1.35,0,0,1-1.34,1.4H3.16V8.68h1.1A1.34,1.34,0,0,1,5.6,10.08Zm-.44,0a.89.89,0,0,0-.9-1H3.62V11h.64A.89.89,0,0,0,5.15,10.08Z"/><path class="cls-6" d="M6,10.48A1.06,1.06,0,1,1,7,11.53,1,1,0,0,1,6,10.48Zm1.68,0a.62.62,0,1,0-.62.63A.61.61,0,0,0,7.66,10.48Z"/><path class="cls-6" d="M8.47,10.48A1,1,0,0,1,9.53,9.43a1,1,0,0,1,.89.52l-.37.22a.56.56,0,0,0-.52-.31.63.63,0,0,0,0,1.25.59.59,0,0,0,.53-.31l.37.21a1,1,0,0,1-.9.52A1,1,0,0,1,8.47,10.48Z"/><path class="cls-6" d="M12.09,11.48l-.82-.92v.92h-.43V8.68h.43v1.68L12,9.48h.53l-.88,1,.91,1Z"/><path class="cls-6" d="M13.82,11.14a.61.61,0,0,0,.52-.25l.36.21a1,1,0,0,1-.87.44,1.05,1.05,0,1,1,0-2.1,1,1,0,0,1,1,1.06,1.33,1.33,0,0,1,0,.18H13.18A.6.6,0,0,0,13.82,11.14Zm.53-.82a.56.56,0,0,0-.57-.49.58.58,0,0,0-.6.49Z"/><path class="cls-6" d="M16.31,9.44v.47a.53.53,0,0,0-.62.56v1h-.43v-2h.43v.34A.63.63,0,0,1,16.31,9.44Z"/><circle class="cls-7" cx="24.58" cy="2.11" r="0.66"/><circle class="cls-8" cx="26.93" cy="22.55" r="7.19"/><path class="cls-9" d="M3,14.26a.89.89,0,0,1,.92-.91.86.86,0,0,1,.75.42l-.25.15a.56.56,0,0,0-.5-.28.63.63,0,1,0,0,1.26.56.56,0,0,0,.5-.28l.25.14a.86.86,0,0,1-.75.42A.89.89,0,0,1,3,14.26Z"/><path class="cls-9" d="M4.84,14.51a.66.66,0,1,1,.66.66A.65.65,0,0,1,4.84,14.51Zm1.05,0a.39.39,0,1,0-.39.4A.38.38,0,0,0,5.9,14.51Z"/><path class="cls-9" d="M7.61,14.36v.77H7.34v-.74a.26.26,0,0,0-.28-.29c-.18,0-.32.11-.32.36v.67H6.47V13.88h.27V14a.43.43,0,0,1,.39-.19A.47.47,0,0,1,7.61,14.36Z"/><path class="cls-9" d="M8.35,14.14v.6c0,.16.1.16.31.15v.24c-.42,0-.58-.07-.58-.39v-.6H7.85v-.26h.23v-.27l.27-.08v.35h.31v.26Z"/><path class="cls-9" d="M10.18,13.88v1.25H9.91V15a.51.51,0,0,1-.44.21.66.66,0,0,1,0-1.32.52.52,0,0,1,.44.21v-.18Zm-.27.63a.4.4,0,1,0-.4.4A.39.39,0,0,0,9.91,14.51Z"/><path class="cls-9" d="M10.52,13.52a.17.17,0,0,1,.35,0,.17.17,0,0,1-.35,0Zm0,.36h.27v1.25h-.27Z"/><path class="cls-9" d="M12.34,14.36v.77h-.27v-.74a.26.26,0,0,0-.28-.29c-.18,0-.32.11-.32.36v.67H11.2V13.88h.27V14a.43.43,0,0,1,.39-.19A.47.47,0,0,1,12.34,14.36Z"/><path class="cls-9" d="M13.3,14.92a.38.38,0,0,0,.32-.16l.22.13a.63.63,0,0,1-.55.27.66.66,0,1,1,0-1.32.63.63,0,0,1,.63.66.84.84,0,0,1,0,.11h-1A.38.38,0,0,0,13.3,14.92Zm.33-.52a.35.35,0,0,0-.36-.31.36.36,0,0,0-.38.31Z"/><path class="cls-9" d="M14.86,13.86v.29a.33.33,0,0,0-.39.35v.63h-.27V13.88h.27v.21A.39.39,0,0,1,14.86,13.86Z"/><path class="cls-9" d="M15.09,13.52a.17.17,0,0,1,.35,0,.17.17,0,0,1-.35,0Zm0,.36h.27v1.25h-.27Z"/><path class="cls-9" d="M16.7,14.88v.25h-1V15l.59-.82h-.56v-.25h.93v.18l-.58.82Z"/><path class="cls-9" d="M18.2,13.88v1.25h-.27V15a.51.51,0,0,1-.44.21.66.66,0,0,1,0-1.32.52.52,0,0,1,.44.21v-.18Zm-.27.63a.4.4,0,1,0-.4.4A.39.39,0,0,0,17.93,14.51Z"/><path class="cls-9" d="M19,14.14v.6c0,.16.1.16.31.15v.24c-.42,0-.58-.07-.58-.39v-.6h-.23v-.26h.23v-.27l.27-.08v.35h.31v.26Z"/><path class="cls-9" d="M19.54,13.52a.17.17,0,0,1,.35,0,.17.17,0,0,1-.35,0Zm0,.36h.27v1.25h-.27Z"/><path class="cls-9" d="M20.16,14.51a.66.66,0,1,1,.66.66A.65.65,0,0,1,20.16,14.51Zm1.05,0a.39.39,0,1,0-.39.4A.38.38,0,0,0,21.21,14.51Z"/><path class="cls-9" d="M22.92,14.36v.77h-.27v-.74a.26.26,0,0,0-.28-.29c-.18,0-.32.11-.32.36v.67h-.27V13.88h.27V14a.43.43,0,0,1,.39-.19A.47.47,0,0,1,22.92,14.36Z"/><path id="path14" class="cls-10" d="M27.8,21.39h1v1h.5a2.19,2.19,0,0,0,.69-.12,1.78,1.78,0,0,0,.34-.15,1.25,1.25,0,0,1-.23-.65,1.36,1.36,0,0,1,.24-1l.1-.12.13.1a1.59,1.59,0,0,1,.63,1,1.53,1.53,0,0,1,1.16.11l.14.08-.07.14a1.44,1.44,0,0,1-1.45.69,5.05,5.05,0,0,1-5,3.17,3.16,3.16,0,0,1-2.88-1.49L23,24a2.9,2.9,0,0,1-.23-1.47v-.15h.85v-1h1v-1h2v-1h1.2v2"/><g class="cls-11"><g id="g16"><g id="g18"><g id="g20"><path id="path22" class="cls-12" d="M26.77,18.56h.87v.87h-.87Z"/><path id="path24" class="cls-13" d="M26.77,19.56h.87v.87h-.87Z"/><path id="path26" d="M26.88,19.35v-.72m.13.72v-.72m.13.72v-.72m.13.72v-.72m.13.72v-.72m.13.72v-.72"/><rect class="cls-10" x="26.62" y="18.63" width="1.17" height="0.72"/><g id="use28"><path d="M26.88,20.35v-.72m.13.72v-.72m.13.72v-.72m.13.72v-.72m.13.72v-.72m.13.72v-.72"/><rect class="cls-10" x="26.62" y="19.63" width="1.17" height="0.72"/></g></g><g id="use30"><path class="cls-12" d="M27.77,20.42h.87v-.87h-.87Z"/><path class="cls-13" d="M27.77,19.42h.87v-.87h-.87Z"/><path d="M27.88,19.63v.72m.13-.72v.72m.13-.72v.72m.13-.72v.72m.13-.72v.72m.13-.72v.72"/><rect class="cls-10" x="27.62" y="19.63" width="1.17" height="0.72"/><path d="M27.88,18.63v.72m.13-.72v.72m.13-.72v.72m.13-.72v.72m.13-.72v.72m.13-.72v.72"/><rect class="cls-10" x="27.62" y="18.63" width="1.17" height="0.72"/></g></g><g id="use32"><path class="cls-12" d="M22.78,20.55h.87v.87h-.87Z"/><path class="cls-13" d="M22.78,21.55h.87v.87h-.87Z"/><path d="M22.88,21.35v-.72m.13.72v-.72m.13.72v-.72m.13.72v-.72m.13.72v-.72m.13.72v-.72"/><rect class="cls-10" x="22.63" y="20.63" width="1.17" height="0.72"/><path d="M22.88,22.35v-.72m.13.72v-.72m.13.72v-.72m.13.72v-.72m.13.72v-.72m.13.72v-.72"/><rect class="cls-10" x="22.63" y="21.62" width="1.17" height="0.72"/><path class="cls-12" d="M23.78,22.42h.87v-.87h-.87Z"/><path class="cls-13" d="M23.78,21.42h.87v-.87h-.87Z"/><path d="M23.88,21.63v.72m.13-.72v.72m.13-.72v.72m.13-.72v.72m.13-.72v.72m.13-.72v.72"/><rect class="cls-10" x="23.62" y="21.62" width="1.17" height="0.72"/><path d="M23.88,20.63v.72m.13-.72v.72m.13-.72v.72m.13-.72v.72m.13-.72v.72m.13-.72v.72"/><rect class="cls-10" x="23.62" y="20.63" width="1.17" height="0.72"/></g><g id="use34"><path class="cls-12" d="M24.78,20.55h.87v.87h-.87Z"/><path class="cls-13" d="M24.78,21.55h.87v.87h-.87Z"/><path d="M24.88,21.35v-.72m.13.72v-.72m.13.72v-.72m.13.72v-.72m.13.72v-.72m.13.72v-.72"/><rect class="cls-10" x="24.62" y="20.63" width="1.17" height="0.72"/><path d="M24.88,22.35v-.72m.13.72v-.72m.13.72v-.72m.13.72v-.72m.13.72v-.72m.13.72v-.72"/><rect class="cls-10" x="24.62" y="21.62" width="1.17" height="0.72"/><path class="cls-12" d="M25.77,22.42h.87v-.87h-.87Z"/><path class="cls-13" d="M25.77,21.42h.87v-.87h-.87Z"/><path d="M25.88,21.63v.72m.13-.72v.72m.13-.72v.72m.13-.72v.72m.13-.72v.72m.13-.72v.72"/><rect class="cls-10" x="25.62" y="21.62" width="1.17" height="0.72"/><path d="M25.88,20.63v.72m.13-.72v.72m.13-.72v.72m.13-.72v.72m.13-.72v.72m.13-.72v.72"/><rect class="cls-10" x="25.62" y="20.63" width="1.17" height="0.72"/></g><g id="use36"><path class="cls-12" d="M26.77,20.55h.87v.87h-.87Z"/><path class="cls-13" d="M26.77,21.55h.87v.87h-.87Z"/><path d="M26.88,21.35v-.72m.13.72v-.72m.13.72v-.72m.13.72v-.72m.13.72v-.72m.13.72v-.72"/><rect class="cls-10" x="26.62" y="20.63" width="1.17" height="0.72"/><path d="M26.88,22.35v-.72m.13.72v-.72m.13.72v-.72m.13.72v-.72m.13.72v-.72m.13.72v-.72"/><rect class="cls-10" x="26.62" y="21.62" width="1.17" height="0.72"/><path class="cls-12" d="M27.77,22.42h.87v-.87h-.87Z"/><path class="cls-13" d="M27.77,21.42h.87v-.87h-.87Z"/><path d="M27.88,21.63v.72m.13-.72v.72m.13-.72v.72m.13-.72v.72m.13-.72v.72m.13-.72v.72"/><rect class="cls-10" x="27.62" y="21.62" width="1.17" height="0.72"/><path d="M27.88,20.63v.72m.13-.72v.72m.13-.72v.72m.13-.72v.72m.13-.72v.72m.13-.72v.72"/><rect class="cls-10" x="27.62" y="20.63" width="1.17" height="0.72"/></g></g></g><g class="cls-11"><path id="path38" class="cls-14" d="M31,21.76a1.32,1.32,0,0,0-.56-1.12,1.22,1.22,0,0,0,.12,1.52,2.1,2.1,0,0,1-1.28.41H22.85c-.05.55,0,3.19,0,3.19h9.47l0-4a1.39,1.39,0,0,0-1.24,0"/></g><g class="cls-11"><path id="path40" class="cls-15" d="M22.85,23.28v2.49h9.47V23.28"/></g><g class="cls-11"><path id="path42" class="cls-16" d="M26.22,25.54a2.1,2.1,0,0,1-1.1-1.08l-1.8.08.92,1.22,2-.22"/></g><g class="cls-11"><path id="path44" class="cls-17" d="M31.08,21.74h0a8.7,8.7,0,0,1-3.62,2.74,3.86,3.86,0,0,1-3.09.1l-.24-.14a2.08,2.08,0,0,1-.84-1.86h-.44v3.19h9.47V21.57H31.23Z"/></g><path class="cls-10" d="M24,25.08l-.64,0a.57.57,0,0,1,.06-1.13A4.85,4.85,0,0,0,25,23.82a.57.57,0,1,1,.34,1.08A4.74,4.74,0,0,1,24,25.08Z"/><path id="path48" class="cls-16" d="M25.82,24.06a.24.24,0,1,1-.24-.24A.24.24,0,0,1,25.82,24.06Z"/><path id="path50" class="cls-10" d="M25.65,23.9a.07.07,0,1,0,.1.09.17.17,0,1,1-.16-.11Z"/><path id="path52" class="cls-10" d="M21.36,23.33h11.1c-.24-.06-.76-.14-.68-.46A1.53,1.53,0,0,1,30,23c-.3.43-2,.27-2.15-.07a1.54,1.54,0,0,1-1.9,0c-.12.34-1.86.5-2.15.07A1.53,1.53,0,0,1,22,22.87c.09.32-.44.4-.68.46"/></g></g></svg>