<?xml version="1.0" encoding="utf-8"?>
<!-- Generator: Adobe Illustrator 21.0.2, SVG Export Plug-In . SVG Version: 6.00 Build 0)  -->
<svg version="1.1" id="Layer_1" xmlns="http://www.w3.org/2000/svg" xmlns:xlink="http://www.w3.org/1999/xlink" x="0px" y="0px"
	 viewBox="0 0 33.9 28" style="enable-background:new 0 0 33.9 28;" xml:space="preserve">
<style type="text/css">
	.st0{fill:#223570;}
	.st1{fill:#16224D;}
	.st2{fill:#DF3D7B;}
	.st3{fill:#F9B25F;}
	.st4{fill:#42E0BE;}
	.st5{fill:#FFFFFF;}
	.st6{opacity:0.33;fill:#FFFFFF;enable-background:new    ;}
</style>
<title>i5</title>
<g id="Layer_2">
	<g id="Layer_1-2">
		<path class="st0" d="M1,0h24.9c0.6,0,1,0.4,1,1v21.6c0,0.6-0.4,1-1,1H1c-0.6,0-1-0.4-1-1V1C0,0.5,0.5,0,1,0z"/>
		<path class="st1" d="M1,0h24.9c0.6,0,1,0.4,1,1v3.2l0,0H0l0,0V1C0,0.4,0.4,0,1,0z"/>
		<circle class="st2" cx="18.3" cy="2.1" r="0.7"/>
		<circle class="st3" cx="21.5" cy="2.1" r="0.7"/>
		<circle class="st4" cx="24.6" cy="2.1" r="0.7"/>
		<path class="st5" d="M2.3,8.2h0.4v2.9H2.3V8.2z"/>
		<path class="st5" d="M5.3,9.1v2H4.9v-0.3c-0.2,0.2-0.4,0.4-0.7,0.3c-0.6,0-1.1-0.5-1.1-1.1s0.5-1.1,1.1-1.1c0.3,0,0.5,0.1,0.7,0.3
			V9.1H5.3z M4.9,10.1c0-0.3-0.3-0.6-0.6-0.6c-0.3,0-0.6,0.3-0.6,0.6c0,0.3,0.3,0.6,0.6,0.6C4.6,10.8,4.9,10.5,4.9,10.1
			C4.9,10.2,4.9,10.2,4.9,10.1z"/>
		<path class="st5" d="M7,9.1v0.5C6.7,9.5,6.4,9.7,6.4,10c0,0,0,0.1,0,0.1v1H5.9v-2h0.4v0.3C6.5,9.2,6.7,9.1,7,9.1z"/>
		<path class="st5" d="M9.3,9.1v2H8.9v-0.3c-0.2,0.2-0.4,0.4-0.7,0.3c-0.6,0-1.1-0.5-1.1-1.1s0.5-1.1,1.1-1.1c0.3,0,0.5,0.1,0.7,0.3
			V9.1H9.3z M8.9,10.1c0-0.3-0.3-0.6-0.6-0.6c-0.3,0-0.6,0.3-0.6,0.6c0,0.3,0.3,0.6,0.6,0.6C8.6,10.8,8.9,10.5,8.9,10.1
			C8.9,10.2,8.9,10.2,8.9,10.1z"/>
		<path class="st5" d="M11.8,9.1l-0.8,2h-0.5l-0.8-2h0.5l0.6,1.5l0.6-1.5L11.8,9.1z"/>
		<path class="st5" d="M13,10.8c0.2,0,0.4-0.1,0.5-0.3l0.4,0.2c-0.2,0.3-0.5,0.5-0.9,0.4c-0.6,0-1.1-0.5-1.1-1c0-0.6,0.5-1.1,1-1.1
			c0,0,0,0,0,0c0.6,0,1,0.4,1,1c0,0,0,0,0,0.1c0,0.1,0,0.1,0,0.2h-1.6C12.4,10.6,12.7,10.8,13,10.8z M13.5,10c0-0.3-0.3-0.5-0.5-0.5
			c-0.3,0-0.6,0.2-0.6,0.5L13.5,10z"/>
		<path class="st5" d="M14.5,8.2h0.4v2.9h-0.4V8.2z"/>
		<path class="st6" d="M2.1,14.9l0.3-0.1C2.4,14.9,2.6,15,2.8,15c0.2,0,0.3-0.1,0.3-0.2S3,14.6,2.7,14.5S2.2,14.3,2.2,14
			c0-0.3,0.2-0.5,0.5-0.5c0,0,0,0,0,0c0.3,0,0.5,0.1,0.6,0.4L3.1,14c-0.1-0.2-0.2-0.3-0.4-0.3c-0.2,0-0.3,0.1-0.3,0.2
			s0.1,0.2,0.3,0.3s0.6,0.2,0.6,0.5s-0.3,0.5-0.6,0.5C2.5,15.3,2.2,15.1,2.1,14.9z"/>
		<path class="st6" d="M3.7,14.6C3.7,14.3,4,14,4.3,14C4.7,14,5,14.3,5,14.6c0,0.4-0.3,0.7-0.7,0.7l0,0C4,15.3,3.7,15,3.7,14.6
			C3.7,14.6,3.7,14.6,3.7,14.6z M4.7,14.6c0-0.2-0.2-0.4-0.4-0.4s-0.4,0.2-0.4,0.4c0,0.2,0.2,0.4,0.4,0.4C4.5,15,4.7,14.9,4.7,14.6
			C4.7,14.7,4.7,14.6,4.7,14.6z"/>
		<path class="st6" d="M5.2,14.6c0-0.4,0.3-0.6,0.7-0.6c0.2,0,0.4,0.1,0.6,0.3l-0.2,0.1c-0.1-0.1-0.2-0.2-0.3-0.2
			c-0.2,0-0.4,0.2-0.4,0.4c0,0.2,0.2,0.4,0.4,0.4c0.1,0,0.3-0.1,0.3-0.2L6.4,15c-0.1,0.2-0.3,0.3-0.6,0.3C5.5,15.3,5.2,15,5.2,14.6
			C5.2,14.7,5.2,14.6,5.2,14.6z"/>
		<path class="st6" d="M6.7,13.6c0-0.1,0.1-0.2,0.2-0.2c0.1,0,0.2,0.1,0.2,0.2s-0.1,0.2-0.2,0.2C6.7,13.8,6.7,13.7,6.7,13.6z
			 M6.7,14H7v1.3H6.7L6.7,14z"/>
		<path class="st6" d="M8.6,14v1.3H8.3v-0.2c-0.1,0.1-0.3,0.2-0.4,0.2c-0.4,0-0.7-0.3-0.7-0.7c0-0.4,0.3-0.7,0.7-0.7
			c0.2,0,0.3,0.1,0.4,0.2V14H8.6z M8.3,14.6c0-0.2-0.2-0.4-0.4-0.4s-0.4,0.2-0.4,0.4c0,0.2,0.2,0.4,0.4,0.4c0,0,0,0,0,0
			C8.1,15,8.3,14.9,8.3,14.6C8.3,14.6,8.3,14.6,8.3,14.6z"/>
		<path class="st6" d="M9,13.4h0.3v1.8H9V13.4z"/>
		<path class="st6" d="M9.6,13.6c0-0.1,0.1-0.2,0.2-0.2s0.2,0.1,0.2,0.2s-0.1,0.2-0.2,0.2S9.6,13.7,9.6,13.6L9.6,13.6z M9.6,14h0.3
			v1.3H9.6L9.6,14z"/>
		<path class="st6" d="M10.7,14.3v0.6c0,0.2,0.1,0.2,0.3,0.1v0.2c-0.4,0-0.6-0.1-0.6-0.4v-0.6h-0.2V14h0.2v-0.3l0.3-0.1V14H11v0.3
			H10.7z"/>
		<path class="st6" d="M11.8,15c0.1,0,0.2-0.1,0.3-0.2l0.2,0.1c-0.1,0.2-0.3,0.3-0.6,0.3c-0.4,0-0.7-0.3-0.7-0.7s0.3-0.7,0.7-0.7
			c0,0,0,0,0,0c0.3,0,0.6,0.3,0.6,0.6c0,0,0,0,0,0c0,0,0,0.1,0,0.1h-1C11.5,14.9,11.7,15,11.8,15z M12.2,14.5c0-0.2-0.2-0.3-0.4-0.3
			c-0.2,0-0.4,0.1-0.4,0.3H12.2z"/>
	</g>
</g>
<circle class="st2" cx="26.2" cy="20.6" r="7.2"/>
<g>
	<path class="st5" d="M22.4,25h5.2c0.1,0,0.3-0.1,0.3-0.3v-3.1c0-0.1-0.1-0.3-0.3-0.3h-5.3c-0.1,0-0.3,0.1-0.3,0.3v3.1
		C22.1,24.9,22.2,25,22.4,25z M24.5,22.3h1c0.1,0,0.3,0.1,0.3,0.3s-0.1,0.3-0.3,0.3h-0.3v0.8c0,0.1-0.1,0.3-0.3,0.3
		s-0.3-0.1-0.3-0.3v-0.8h-0.3c-0.1,0-0.3-0.1-0.3-0.3S24.3,22.3,24.5,22.3z"/>
	<path class="st5" d="M29.7,16.1c-0.7,0-1.3,0.6-1.3,1.3c0,0.6,0.4,1.2,1,1.3v1.6h-0.3c-0.1,0-0.3,0.1-0.3,0.3s0.1,0.3,0.3,0.3h0.3
		v0.5h-0.8c-0.1,0-0.3,0.1-0.3,0.3s0.1,0.3,0.3,0.3h1c0.1,0,0.3-0.1,0.3-0.3v-2.9c0.6-0.1,1-0.6,1-1.3C31,16.7,30.4,16.1,29.7,16.1z
		 M29.7,17.6c-0.1,0-0.3-0.1-0.3-0.3c0-0.1,0.1-0.3,0.3-0.3s0.3,0.1,0.3,0.3C30,17.5,29.9,17.6,29.7,17.6z"/>
	<path class="st5" d="M27.4,20.8V20c0-1.3-1.1-2.4-2.4-2.4s-2.4,1.1-2.4,2.4v0.8h1V20c0-0.7,0.6-1.3,1.3-1.3s1.3,0.6,1.3,1.3v0.8
		H27.4z"/>
</g>
</svg>
