<svg xmlns="http://www.w3.org/2000/svg" viewBox="0 0 34.12 29.74"><defs><style>.cls-1{fill:#223570;}.cls-2{fill:#16224d;}.cls-3{fill:#df3d7b;}.cls-4{fill:#f9b25f;}.cls-5{fill:#fff;}.cls-6{fill:#42e0be;}.cls-7{fill:#ffcf63;}.cls-8{fill:#202020;}</style></defs><title>s8</title><g id="Layer_2" data-name="Layer 2"><g id="Layer_1-2" data-name="Layer 1"><rect class="cls-1" x="0.01" y="0.01" width="26.92" height="23.56" rx="1" ry="1"/><path class="cls-2" d="M1,0H25.92a1,1,0,0,1,1,1V4.21a0,0,0,0,1,0,0H0a0,0,0,0,1,0,0V1A1,1,0,0,1,1,0Z"/><circle class="cls-3" cx="18.33" cy="2.11" r="0.66"/><circle class="cls-4" cx="21.45" cy="2.11" r="0.66"/><path class="cls-5" d="M3.49,9.94h.43v2.92H3.49Z"/><path class="cls-5" d="M4.46,10.28a.28.28,0,1,1,.28.28A.28.28,0,0,1,4.46,10.28Zm.06.58H5v2H4.53Z"/><path class="cls-5" d="M7.38,11.63v1.23H6.94V11.67a.42.42,0,0,0-.45-.46c-.28,0-.51.17-.51.58v1.07H5.56v-2H6v.26a.69.69,0,0,1,.62-.31A.75.75,0,0,1,7.38,11.63Z"/><path class="cls-5" d="M9.72,10.86v2H9.29V12.6a.69.69,0,0,1-.62.31.75.75,0,0,1-.77-.82V10.86h.43V12a.42.42,0,0,0,.45.46c.28,0,.51-.17.51-.58V10.86Z"/><path class="cls-5" d="M11.61,12.86l-.5-.68-.5.68h-.5l.75-1-.71-1h.5l.46.63.46-.63h.5l-.71,1,.75,1Z"/><circle class="cls-6" cx="24.58" cy="2.11" r="0.66"/><circle class="cls-7" cx="26.93" cy="22.55" r="7.19"/><path id="path3" class="cls-8" d="M30.64,25.35h0a.92.92,0,0,1-.14-.37.74.74,0,0,0-.2-.42h0l-.08-.06-.08,0a2.19,2.19,0,0,0-.07-1.5,5,5,0,0,0-.88-1.41,2.12,2.12,0,0,1-.63-1.36c0-.87.1-2.48-1.44-2.49h-.19c-1.71.14-1.26,1.95-1.28,2.55a2.19,2.19,0,0,1-.43,1.22,6,6,0,0,0-1.1,1.83,2.19,2.19,0,0,0-.12,1l0,0c-.1.11-.18.25-.27.34a.83.83,0,0,1-.32.16.58.58,0,0,0-.35.27h0a.49.49,0,0,0-.05.23,1.49,1.49,0,0,0,0,.22A1,1,0,0,1,23,26a.76.76,0,0,0,0,.6.51.51,0,0,0,.38.23,4,4,0,0,1,1.12.24l0-.06,0,.06a1.6,1.6,0,0,0,1.06.2.69.69,0,0,0,.49-.38c.24,0,.5-.1.91-.12s.64.1,1,.08A.56.56,0,0,0,28,27h0a.76.76,0,0,0,.76.43,1.38,1.38,0,0,0,.91-.53l0,0,0,0a3.28,3.28,0,0,1,1-.61.46.46,0,0,0,.26-.35A.84.84,0,0,0,30.64,25.35Z"/><path id="path5" class="cls-5" d="M30.81,25.9c0,.1-.07.17-.2.24a3.18,3.18,0,0,0-1,.64,1.26,1.26,0,0,1-.83.48.62.62,0,0,1-.64-.37h0a1,1,0,0,1,0-.69,4.59,4.59,0,0,0,.19-.77h0a4.12,4.12,0,0,1,.08-.73.57.57,0,0,1,.26-.4h0a.58.58,0,0,0,.36.56.89.89,0,0,0,.73-.31h.08a.45.45,0,0,1,.34.1h0a.66.66,0,0,1,.16.36.94.94,0,0,0,.17.43h0C30.75,25.66,30.81,25.81,30.81,25.9Z"/><path id="path7" class="cls-5" d="M26,26.61h0a.54.54,0,0,1-.46.53,1.48,1.48,0,0,1-1-.18h0a3.82,3.82,0,0,0-1.16-.25.39.39,0,0,1-.29-.17.66.66,0,0,1,0-.5h0a1,1,0,0,0,0-.45.64.64,0,0,1,0-.38h0a.44.44,0,0,1,.28-.21.9.9,0,0,0,.37-.19h0c.1-.11.18-.24.27-.34a.35.35,0,0,1,.27-.14h.07a.66.66,0,0,1,.41.3l.37.67h0a4.65,4.65,0,0,0,.48.66A1.08,1.08,0,0,1,26,26.61Z"/><path id="path9" class="cls-5" d="M27.81,20.32a.36.36,0,0,0-.19-.16h0a3,3,0,0,1-.43-.18.9.9,0,0,0-.49-.17.58.58,0,0,0-.19,0,.93.93,0,0,0-.34.24h0l-.07.05-.2.14a.2.2,0,0,0-.08.23.56.56,0,0,0,.28.29h0a2,2,0,0,1,.25.2l.13.08a.53.53,0,0,0,.18,0,.7.7,0,0,0,.41-.11,1.86,1.86,0,0,1,.31-.18h0a.66.66,0,0,0,.43-.34A.22.22,0,0,0,27.81,20.32Z"/><path id="path11" class="cls-8" d="M27.24,20.65a1.35,1.35,0,0,1-.6.2.83.83,0,0,1-.52-.2L26,20.52c-.07-.05-.06-.13,0-.12s.05.07.08.09l.15.13a.76.76,0,0,0,.47.18,1.3,1.3,0,0,0,.57-.19,3,3,0,0,0,.26-.18c.06,0,.06-.1.11-.1s0,.06-.06.13A1.63,1.63,0,0,1,27.24,20.65Z"/><path id="path13" class="cls-5" d="M29.95,24.42h-.08c.06-.19-.07-.33-.43-.49s-.67-.15-.72.18v.05l-.08,0a.7.7,0,0,0-.32.48,4.15,4.15,0,0,0-.08.76h0a2.94,2.94,0,0,1-.13.55,1.87,1.87,0,0,1-2.17.13l-.16-.23-.11-.14a.45.45,0,0,0,.19,0,.24.24,0,0,0,.13-.13.53.53,0,0,0-.14-.47,2.56,2.56,0,0,0-.72-.62h0a1,1,0,0,1-.47-.57,1.27,1.27,0,0,1,0-.67,4,4,0,0,1,.52-1.12s0,.06-.16.39a1.49,1.49,0,0,0,0,1.56,3.27,3.27,0,0,1,.26-1.16,7,7,0,0,0,.74-2.13l.12.08h0a2.18,2.18,0,0,1,.24.2.59.59,0,0,0,.35.14h0a.79.79,0,0,0,.4-.12,2.06,2.06,0,0,1,.3-.17h0a.81.81,0,0,0,.42-.28,9.78,9.78,0,0,0,.7,1.81A4.22,4.22,0,0,1,29,23.67l.21,0a1.65,1.65,0,0,0-.44-1.61c-.09-.09-.09-.12,0-.12a2.33,2.33,0,0,1,.67,1.12,1.43,1.43,0,0,1,0,.68l.08,0C29.87,24,30,24.18,29.95,24.42Z"/><path id="path15" class="cls-5" d="M27.83,19.66a.73.73,0,0,1-.06.31.6.6,0,0,1-.09.15l0,0-.12,0-.09,0a.38.38,0,0,0,.07-.09.46.46,0,0,0,0-.17h0a.47.47,0,0,0,0-.16.3.3,0,0,0-.08-.13.15.15,0,0,0-.11,0h0a.16.16,0,0,0-.11,0,.3.3,0,0,0-.08.12.47.47,0,0,0,0,.17h0a.5.5,0,0,0,0,.1,1.23,1.23,0,0,0-.25-.08.83.83,0,0,1,0-.09h0a.72.72,0,0,1,.06-.31.55.55,0,0,1,.17-.23.38.38,0,0,1,.24-.09h0a.39.39,0,0,1,.24.08.54.54,0,0,1,.18.22.72.72,0,0,1,.07.3h0Z"/><path id="path17" class="cls-5" d="M26.51,19.77h0l-.16.08a.43.43,0,0,0,0-.1h0a.45.45,0,0,0,0-.13.26.26,0,0,0-.07-.1.11.11,0,0,0-.07,0h0a.11.11,0,0,0-.08,0,.26.26,0,0,0,0,.11.43.43,0,0,0,0,.14h0a.44.44,0,0,0,0,.13.25.25,0,0,0,.07.1h0l-.07.05-.05,0a.49.49,0,0,1-.11-.17.74.74,0,0,1-.06-.26h0a.74.74,0,0,1,0-.27.46.46,0,0,1,.12-.2.25.25,0,0,1,.17-.08h0a.25.25,0,0,1,.16.06.47.47,0,0,1,.14.19.73.73,0,0,1,.06.26h0a.78.78,0,0,1,0,.12Z"/><path id="path28396-7" class="cls-8" d="M26.8,20s0,0,.07,0,0,0,.06,0,.05,0,.06,0,0,0-.06-.05a.13.13,0,0,0-.1,0s0,0,0,0Z"/><path id="path5461" class="cls-8" d="M26.58,20s0,0-.07,0,0,0-.06,0-.05,0-.06,0,0,0,.06-.05a.13.13,0,0,1,.1,0s0,0,0,0Z"/></g></g></svg>