<svg xmlns="http://www.w3.org/2000/svg" viewBox="0 0 34.12 29.74"><defs><style>.cls-1{fill:#223570;}.cls-2{fill:#16224d;}.cls-3{fill:#df3d7b;}.cls-4{fill:#f9b25f;}.cls-5{fill:#fff;}.cls-6{fill:#42e0be;}.cls-7{fill:#f2f1f0;}.cls-8{fill:#939598;}.cls-9{fill:#acabb1;}.cls-10{fill:#c6c5ca;}.cls-11{fill:#f1f2f2;}.cls-12{fill:#ff7956;}</style></defs><title>c4</title><g id="Layer_2" data-name="Layer 2"><g id="Layer_1-2" data-name="Layer 1"><rect class="cls-1" x="0.01" y="0.01" width="26.92" height="23.56" rx="1" ry="1"/><path class="cls-2" d="M1,0H25.92a1,1,0,0,1,1,1V4.21a0,0,0,0,1,0,0H0a0,0,0,0,1,0,0V1A1,1,0,0,1,1,0Z"/><circle class="cls-3" cx="18.33" cy="2.11" r="0.66"/><circle class="cls-4" cx="21.45" cy="2.11" r="0.66"/><path class="cls-5" d="M3.83,11.82a.79.79,0,0,1-.81.8h-.5v.84h-.4V11H3A.79.79,0,0,1,3.83,11.82Zm-.4,0A.4.4,0,0,0,3,11.4h-.5v.85H3A.4.4,0,0,0,3.43,11.82Z"/><path class="cls-5" d="M4.25,10.91h.38v2.55H4.25Z"/><path class="cls-5" d="M6.91,11.72v1.75H6.54v-.25a.72.72,0,0,1-.61.3.92.92,0,0,1,0-1.84.72.72,0,0,1,.61.29v-.25Zm-.38.87a.55.55,0,1,0-.55.56A.54.54,0,0,0,6.54,12.59Z"/><path class="cls-5" d="M7.39,11.21a.24.24,0,1,1,.48,0,.24.24,0,1,1-.48,0Zm.05.5h.38v1.75H7.44Z"/><path class="cls-5" d="M9.94,12.39v1.07H9.56v-1A.36.36,0,0,0,9.17,12c-.25,0-.44.15-.44.5v.94H8.35V11.72h.38v.22a.6.6,0,0,1,.54-.27A.65.65,0,0,1,9.94,12.39Z"/><path class="cls-5" d="M13.13,11.82a.79.79,0,0,1-.81.8h-.5v.84h-.4V11h.9A.79.79,0,0,1,13.13,11.82Zm-.4,0a.4.4,0,0,0-.41-.43h-.5v.85h.5A.4.4,0,0,0,12.73,11.82Z"/><path class="cls-5" d="M15.19,11.72v1.75h-.38v-.25a.72.72,0,0,1-.61.3.92.92,0,0,1,0-1.84.72.72,0,0,1,.61.29v-.25Zm-.38.87a.55.55,0,1,0-.55.56A.54.54,0,0,0,14.81,12.59Z"/><path class="cls-5" d="M17.58,12.59a.89.89,0,0,1-.87.92.72.72,0,0,1-.61-.29v.95h-.38V11.72h.38V12a.72.72,0,0,1,.61-.3A.89.89,0,0,1,17.58,12.59Zm-.38,0a.55.55,0,1,0-.55.56A.54.54,0,0,0,17.2,12.59Z"/><path class="cls-5" d="M18.87,13.16a.53.53,0,0,0,.45-.22l.31.18a.88.88,0,0,1-.77.38.92.92,0,1,1,0-1.84.88.88,0,0,1,.88.92,1.16,1.16,0,0,1,0,.16H18.31A.52.52,0,0,0,18.87,13.16Zm.46-.72a.49.49,0,0,0-.5-.43.51.51,0,0,0-.53.43Z"/><path class="cls-5" d="M21.05,11.69v.41a.46.46,0,0,0-.54.49v.88h-.38V11.72h.38V12A.55.55,0,0,1,21.05,11.69Z"/><circle class="cls-6" cx="24.58" cy="2.11" r="0.66"/><circle class="cls-7" cx="26.93" cy="22.55" r="7.19"/><g id="surface1"><path class="cls-6" d="M29.45,19.11a.26.26,0,0,0-.25-.25H25.25v1.27a.25.25,0,0,1-.25.25h-1.4V26a.26.26,0,0,0,.25.25H29.2a.26.26,0,0,0,.25-.25Z"/><path class="cls-8" d="M25.54,25.57l.18-1.26.81.27.27.81Z"/><path class="cls-6" d="M25.25,26.25H29.2a.25.25,0,0,0,.25-.25V22.31A6.38,6.38,0,0,1,25.25,26.25Z"/><path class="cls-9" d="M28.43,21.6l.36-.36,1.08,1.08-.36.36Z"/><path class="cls-10" d="M29.43,20.84l-.13,0a.76.76,0,0,0-.33.19l-.18.18,1.08,1.08.18-.18a.76.76,0,0,0-.62-1.3Z"/><path class="cls-4" d="M28.43,21.6l-2.7,2.7.72.36L28.07,23l-1.62,1.62.16.33.2.39,2.62-2.62.08-.08-.21-.21Zm0,1.07.18-.18Z"/><path class="cls-3" d="M25.25,20.13V18.86l-1.66,1.53H25A.25.25,0,0,0,25.25,20.13Z"/><path class="cls-11" d="M26.79,24.45a.13.13,0,0,1-.09-.22l1.37-1.37a.13.13,0,1,1,.18.18l-1.37,1.37A.13.13,0,0,1,26.79,24.45Z"/><path class="cls-11" d="M28.51,22.73a.13.13,0,0,1-.09-.22l.18-.18a.13.13,0,0,1,.18.18l-.18.18A.13.13,0,0,1,28.51,22.73Z"/><path class="cls-12" d="M27.16,22.3H24.48a.13.13,0,1,1,0-.25h2.68a.13.13,0,1,1,0,.25Z"/><path class="cls-12" d="M26.39,23.06H24.48a.13.13,0,1,1,0-.25h1.91a.13.13,0,1,1,0,.25Z"/><path class="cls-12" d="M25.63,23.83H24.48a.13.13,0,1,1,0-.25h1.15a.13.13,0,0,1,0,.25Z"/><path class="cls-12" d="M27.92,21.53H25.5a.13.13,0,0,1,0-.25h2.42a.13.13,0,1,1,0,.25Z"/><path class="cls-12" d="M25,21.53h-.51a.13.13,0,1,1,0-.25H25a.13.13,0,1,1,0,.25Z"/></g></g></g></svg>