<svg xmlns="http://www.w3.org/2000/svg" viewBox="0 0 34.12 29.74"><defs><style>.cls-1{fill:#223570;}.cls-2{fill:#16224d;}.cls-3{fill:#df3d7b;}.cls-4{fill:#f9b25f;}.cls-5,.cls-6{fill:#fff;}.cls-6{opacity:0.33;}.cls-7{fill:#42e0be;}</style></defs><title>s1</title><g id="Layer_2" data-name="Layer 2"><g id="Layer_1-2" data-name="Layer 1"><rect class="cls-1" x="0.01" y="0.01" width="26.92" height="23.56" rx="1" ry="1"/><path class="cls-2" d="M1,0H25.92a1,1,0,0,1,1,1V4.21a0,0,0,0,1,0,0H0a0,0,0,0,1,0,0V1A1,1,0,0,1,1,0Z"/><circle class="cls-3" cx="18.33" cy="2.11" r="0.66"/><circle class="cls-4" cx="21.45" cy="2.11" r="0.66"/><path class="cls-5" d="M2.15,10.84l.32-.19A.54.54,0,0,0,3,11c.29,0,.42-.13.42-.29s-.18-.27-.51-.37-.69-.23-.69-.66A.66.66,0,0,1,3,9.06a.83.83,0,0,1,.78.49l-.31.18A.48.48,0,0,0,3,9.42c-.21,0-.35.11-.35.28s.13.25.45.35.75.23.75.68-.33.66-.79.66A.85.85,0,0,1,2.15,10.84Z"/><path class="cls-5" d="M5,11.07a.49.49,0,0,0,.41-.2l.29.17a.81.81,0,0,1-.7.35A.84.84,0,1,1,5,9.71a.81.81,0,0,1,.8.85,1.15,1.15,0,0,1,0,.14H4.5A.48.48,0,0,0,5,11.07Zm.43-.66A.45.45,0,0,0,5,10a.47.47,0,0,0-.48.39Z"/><path class="cls-5" d="M7,9.72v.38a.42.42,0,0,0-.49.45v.81H6.17V9.75h.35V10A.5.5,0,0,1,7,9.72Z"/><path class="cls-5" d="M8.81,9.75l-.62,1.6h-.4l-.62-1.6h.38L8,11l.45-1.22Z"/><path class="cls-5" d="M9.82,11.07a.49.49,0,0,0,.41-.2l.29.17a.81.81,0,0,1-.7.35.84.84,0,1,1,0-1.69.81.81,0,0,1,.8.85,1.15,1.15,0,0,1,0,.14H9.31A.48.48,0,0,0,9.82,11.07Zm.43-.66A.45.45,0,0,0,9.79,10a.47.47,0,0,0-.48.39Z"/><path class="cls-5" d="M11.82,9.72v.38a.42.42,0,0,0-.49.45v.81H11V9.75h.35V10A.5.5,0,0,1,11.82,9.72Z"/><path class="cls-5" d="M12.94,10.84l.32-.19a.54.54,0,0,0,.56.38c.29,0,.42-.13.42-.29s-.18-.27-.51-.37S13,10.14,13,9.71a.66.66,0,0,1,.72-.65.83.83,0,0,1,.78.49l-.31.18a.48.48,0,0,0-.47-.31c-.21,0-.35.11-.35.28s.13.25.45.35.75.23.75.68-.33.66-.79.66A.85.85,0,0,1,12.94,10.84Z"/><path class="cls-5" d="M15.8,11.07a.49.49,0,0,0,.41-.2l.29.17a.81.81,0,0,1-.7.35.84.84,0,1,1,0-1.69.81.81,0,0,1,.8.85,1.15,1.15,0,0,1,0,.14H15.29A.48.48,0,0,0,15.8,11.07Zm.43-.66a.45.45,0,0,0-.46-.39.47.47,0,0,0-.48.39Z"/><path class="cls-5" d="M17.4,10.08v.77c0,.21.13.2.4.19v.31c-.53.06-.74-.08-.74-.5v-.77h-.29V9.75h.29V9.4l.35-.1v.45h.4v.33Z"/><path class="cls-5" d="M19.64,9.75v1.6h-.35v-.21a.55.55,0,0,1-.5.25.6.6,0,0,1-.62-.66v-1h.35v.95a.33.33,0,0,0,.36.37c.23,0,.41-.13.41-.46V9.75Z"/><path class="cls-5" d="M21.82,10.55a.82.82,0,0,1-.8.84.66.66,0,0,1-.56-.27V12h-.35V9.75h.35V10A.66.66,0,0,1,21,9.71.82.82,0,0,1,21.82,10.55Zm-.35,0a.51.51,0,1,0-.51.51A.5.5,0,0,0,21.48,10.55Z"/><path class="cls-6" d="M2.13,14.73a.65.65,0,0,1,.66-.66.62.62,0,0,1,.56.32l-.23.13a.35.35,0,0,0-.33-.19.39.39,0,0,0,0,.79.37.37,0,0,0,.33-.19l.23.13a.63.63,0,0,1-.56.33A.65.65,0,0,1,2.13,14.73Z"/><path class="cls-6" d="M3.52,14.73a.66.66,0,1,1,.66.66A.65.65,0,0,1,3.52,14.73Zm1.05,0a.39.39,0,1,0-.39.4A.38.38,0,0,0,4.57,14.73Z"/><path class="cls-6" d="M6.29,14.59v.77H6v-.74a.26.26,0,0,0-.28-.29c-.18,0-.32.11-.32.36v.67H5.15V14.11h.27v.16a.43.43,0,0,1,.39-.19A.47.47,0,0,1,6.29,14.59Z"/><path class="cls-6" d="M7.69,15.36H7.41v-1H7v1H6.73v-1H6.54v-.26h.19v0c0-.34.19-.51.57-.51a1.23,1.23,0,0,1,.28,0v.25l-.28,0c-.19,0-.3.06-.3.25v0h.69Z"/><path class="cls-6" d="M9.32,14.11V15.3a.59.59,0,0,1-.64.59.62.62,0,0,1-.59-.3l.23-.14a.36.36,0,0,0,.37.19.33.33,0,0,0,.37-.35v-.15a.51.51,0,0,1-.44.22.65.65,0,0,1,0-1.29.51.51,0,0,1,.44.22v-.18Zm-.27.61a.4.4,0,1,0-.4.39A.39.39,0,0,0,9.05,14.72Z"/><path class="cls-6" d="M10.81,14.11v1.25h-.27V15.2a.43.43,0,0,1-.39.19.47.47,0,0,1-.48-.52v-.77h.27v.74a.26.26,0,0,0,.28.29c.18,0,.32-.1.32-.36v-.67Z"/><path class="cls-6" d="M11.84,14.09v.29a.33.33,0,0,0-.39.35v.63h-.27V14.11h.27v.21A.39.39,0,0,1,11.84,14.09Z"/><path class="cls-6" d="M13.31,14.11v1.25H13v-.18a.51.51,0,0,1-.44.21.66.66,0,0,1,0-1.32.52.52,0,0,1,.44.21v-.18Zm-.27.63a.4.4,0,1,0-.4.4A.39.39,0,0,0,13,14.73Z"/><path class="cls-6" d="M14.07,14.37V15c0,.16.1.16.31.15v.24c-.42,0-.58-.07-.58-.39v-.6h-.23v-.26h.23v-.27l.27-.08v.35h.31v.26Z"/><path class="cls-6" d="M14.65,13.75a.17.17,0,0,1,.35,0,.17.17,0,0,1-.35,0Zm0,.36H15v1.25h-.27Z"/><path class="cls-6" d="M15.26,14.73a.66.66,0,1,1,.66.66A.65.65,0,0,1,15.26,14.73Zm1.05,0a.39.39,0,1,0-.39.4A.38.38,0,0,0,16.32,14.73Z"/><path class="cls-6" d="M18,14.59v.77h-.27v-.74a.26.26,0,0,0-.28-.29c-.18,0-.32.11-.32.36v.67h-.27V14.11h.27v.16a.43.43,0,0,1,.39-.19A.47.47,0,0,1,18,14.59Z"/><circle class="cls-7" cx="24.58" cy="2.11" r="0.66"/><circle class="cls-7" cx="26.93" cy="22.55" r="7.19"/><path class="cls-5" d="M23.88,21.29h5.3a.94.94,0,0,0,0-1.89h-5.3a.94.94,0,0,0,0,1.89ZM28.77,20a.31.31,0,1,1-.31.31A.31.31,0,0,1,28.77,20Zm-4.69.07h.86a.25.25,0,1,1,0,.49h-.86a.25.25,0,1,1,0-.49Z"/><path class="cls-5" d="M23.88,23.5H27.2a.62.62,0,0,1-.06-.13.62.62,0,0,1,.06-.47l.25-.45a.62.62,0,0,1,.54-.32l.19,0,.16-.09a.62.62,0,0,1,.38-.45H23.88a.94.94,0,0,0,0,1.89Zm.2-1.19h.86a.25.25,0,0,1,0,.49h-.86a.25.25,0,1,1,0-.49Z"/><path class="cls-5" d="M28.18,25.29l-.19,0a.62.62,0,0,1-.54-.32l-.25-.45a.62.62,0,0,1,.09-.73H23.88a.94.94,0,0,0,0,1.89h4.64a.62.62,0,0,1-.18-.33ZM24.94,25h-.86a.25.25,0,1,1,0-.49h.86a.25.25,0,0,1,0,.49Z"/><path class="cls-5" d="M30.8,24l-.1-.06a1.52,1.52,0,0,0,0-.49l.1-.06a.25.25,0,0,0,.1-.34l-.25-.45a.25.25,0,0,0-.34-.1l-.1.06a1.51,1.51,0,0,0-.47-.28v-.12a.25.25,0,0,0-.25-.25h-.52a.25.25,0,0,0-.25.25v.12a1.51,1.51,0,0,0-.47.28l-.1-.06a.25.25,0,0,0-.34.1l-.25.45a.25.25,0,0,0,.1.34l.1.06a1.52,1.52,0,0,0,0,.49l-.1.06a.25.25,0,0,0-.1.34l.25.45a.25.25,0,0,0,.34.1l.1-.06a1.51,1.51,0,0,0,.47.28v.12a.25.25,0,0,0,.25.25h.52a.25.25,0,0,0,.25-.25v-.12a1.51,1.51,0,0,0,.47-.28l.1.06a.25.25,0,0,0,.12,0h0a.25.25,0,0,0,.22-.13l.25-.45a.25.25,0,0,0-.1-.34Zm-1.59.43a.73.73,0,1,1,.73-.73A.73.73,0,0,1,29.21,24.41Z"/></g></g></svg>